SplineFontDB: 3.0
FontName: Sahel
FullName: Sahel
FamilyName: Sahel
Weight: Regular
Copyright: Copyright (c) 2016 by Saber Rastikerdar. All Rights Reserved.\nBased on DejaVu font.
Version: 1.0.0-alpha
ItalicAngle: 0
UnderlinePosition: -205
UnderlineWidth: 100
Ascent: 1638
Descent: 410
InvalidEm: 0
LayerCount: 2
Layer: 0 1 "Back" 1
Layer: 1 1 "Fore" 0
XUID: [1021 502 1027637223 5453938]
UniqueID: 4028628
UseUniqueID: 1
FSType: 0
OS2Version: 1
OS2_WeightWidthSlopeOnly: 0
OS2_UseTypoMetrics: 1
CreationTime: 1431850356
ModificationTime: 1469202077
PfmFamily: 17
TTFWeight: 400
TTFWidth: 5
LineGap: 0
VLineGap: 0
Panose: 2 11 6 3 3 8 4 2 2 4
OS2TypoAscent: 2350
OS2TypoAOffset: 0
OS2TypoDescent: -1000
OS2TypoDOffset: 0
OS2TypoLinegap: 0
OS2WinAscent: 2350
OS2WinAOffset: 0
OS2WinDescent: 1000
OS2WinDOffset: 0
HheadAscent: 2350
HheadAOffset: 0
HheadDescent: -1000
HheadDOffset: 0
OS2SubXSize: 1331
OS2SubYSize: 1433
OS2SubXOff: 0
OS2SubYOff: 286
OS2SupXSize: 1331
OS2SupYSize: 1433
OS2SupXOff: 0
OS2SupYOff: 983
OS2StrikeYSize: 102
OS2StrikeYPos: 530
OS2Vendor: 'PfEd'
OS2CodePages: 00000040.20080000
OS2UnicodeRanges: 00002000.80000000.00000008.00000000
Lookup: 1 9 0 "'fina' Terminal Forms in Arabic lookup 9" { "'fina' Terminal Forms in Arabic lookup 9 subtable"  } ['fina' ('arab' <'KUR ' 'SND ' 'URD ' 'dflt' > ) ]
Lookup: 1 9 0 "'medi' Medial Forms in Arabic lookup 11" { "'medi' Medial Forms in Arabic lookup 11 subtable"  } ['medi' ('arab' <'KUR ' 'SND ' 'URD ' 'dflt' > ) ]
Lookup: 1 9 0 "'init' Initial Forms in Arabic lookup 13" { "'init' Initial Forms in Arabic lookup 13 subtable"  } ['init' ('arab' <'KUR ' 'SND ' 'URD ' 'dflt' > ) ]
Lookup: 4 1 1 "'rlig' Required Ligatures in Arabic lookup 14" { "'rlig' Required Ligatures in Arabic lookup 14 subtable"  } ['rlig' ('arab' <'KUR ' 'dflt' > ) ]
Lookup: 4 1 1 "'rlig' Required Ligatures in Arabic lookup 15" { "'rlig' Required Ligatures in Arabic lookup 15 subtable"  } ['rlig' ('arab' <'KUR ' 'SND ' 'URD ' 'dflt' > ) ]

StartChar: afii57388
Encoding: 1548 1548 2
Width: 968
VWidth: 3387
GlyphClass: 2
Flags: W
LayerCount: 2
Fore
SplineSet
492.693359375 300.504882812 m 1,0,-1
 519.088867188 296.405273438 l 1,1,2
 625.275075137 278.424597541 625.275075137 278.424597541 639.996912569 184.306537052 c 128,-1,3
 654.71875 90.1884765625 654.71875 90.1884765625 605.587890625 42.1494140625 c 128,-1,4
 556.45703125 -5.8896484375 556.45703125 -5.8896484375 484.662109375 -0.232421875 c 0,5,6
 324.463867188 13.8046875 324.463867188 13.8046875 341.25 211.008789062 c 0,7,8
 362.62890625 466.758789062 362.62890625 466.758789062 634.293945312 630.275390625 c 0,9,10
 668.725124627 651.050003018 668.725124627 651.050003018 680 641.241936232 c 4,11,12
 686.021207623 636.004059577 686.021207623 636.004059577 688.141601562 633.666992188 c 0,13,14
 699.405549094 621.258686135 699.405549094 621.258686135 665.732559703 595.818307911 c 128,-1,15
 632.059570312 570.377929688 632.059570312 570.377929688 607.55859375 543.62109375 c 0,16,17
 482.043302519 406.549330649 482.043302519 406.549330649 492.693359375 300.504882812 c 1,0,-1
EndSplineSet
EndChar

StartChar: uni0615
Encoding: 1557 1557 3
Width: 0
VWidth: 3435
GlyphClass: 4
Flags: W
AnchorPoint: "Anchor-10" 770.381 1853.78 mark 0
AnchorPoint: "Anchor-9" 770.381 1853.78 mark 0
AnchorPoint: "Anchor-1" 770.381 2946.96 basemark 0
AnchorPoint: "Anchor-1" 770.381 1853.78 mark 0
LayerCount: 2
Fore
SplineSet
675.7578125 2118.23925781 m 1,0,-1
 777.056640625 2118.23925781 l 2,1,2
 972.34375 2118.12011719 972.34375 2118.12011719 1041.34375 2195.97753906 c 0,3,4
 1075.53243379 2233.65827656 1075.53243379 2233.65827656 1068.41894531 2294.65332031 c 0,5,6
 1059.97753906 2366.99609375 1059.97753906 2366.99609375 976.935058593 2357.20507812 c 0,7,8
 862.056635205 2343.66048707 862.056635205 2343.66048707 675.7578125 2118.23925781 c 1,0,-1
727.256835938 2018.17675781 m 2,9,-1
 419.657226562 2017.98730469 l 1,10,-1
 367.364257812 2118.23925781 l 1,11,-1
 504.23828125 2118.23925781 l 1,12,-1
 504.23828125 2789.27636719 l 1,13,-1
 605.983398438 2789.27636719 l 1,14,-1
 605.983398438 2168.59765625 l 1,15,16
 854.297036647 2527.98689602 854.297036647 2527.98689602 1059.34863281 2465.60351562 c 0,17,18
 1144.40249715 2439.72814741 1144.40249715 2439.72814741 1164.1484375 2341.31640625 c 0,19,20
 1192.36887166 2200.90998523 1192.36887166 2200.90998523 1087.50717281 2109.62164407 c 128,-1,21
 982.64547397 2018.3333029 982.64547397 2018.3333029 727.256835938 2018.17675781 c 2,9,-1
EndSplineSet
EndChar

StartChar: uni061B
Encoding: 1563 1563 4
Width: 950
VWidth: 3387
GlyphClass: 2
Flags: W
LayerCount: 2
Fore
SplineSet
345 158.837890625 m 132,-1,1
 345 215.537109375 345 215.537109375 385.5 256.037109375 c 132,-1,2
 426 296.537109375 426 296.537109375 482.700195312 296.537109375 c 132,-1,3
 539.400390625 296.537109375 539.400390625 296.537109375 580.912109375 257.049804688 c 4,4,5
 620.400390625 215.537109375 620.400390625 215.537109375 620.400390625 158.837890625 c 132,-1,6
 620.400390625 102.137695312 620.400390625 102.137695312 579.900390625 61.6376953125 c 132,-1,7
 539.400390625 21.1376953125 539.400390625 21.1376953125 482.700195312 21.1376953125 c 132,-1,8
 426 21.1376953125 426 21.1376953125 385.5 61.6376953125 c 132,-1,0
 345 102.137695312 345 102.137695312 345 158.837890625 c 132,-1,1
482.692382812 860.504882812 m 5,9,-1
 509.088867188 856.404296875 l 5,10,11
 615.274414062 838.42578125 615.274414062 838.42578125 629.99609375 744.306640625 c 132,-1,12
 644.71875 650.1875 644.71875 650.1875 595.416015625 601.979492188 c 132,-1,13
 546.11328125 553.772460938 546.11328125 553.772460938 470.401367188 560.127929688 c 4,14,15
 314.413085938 573.221679688 314.413085938 573.221679688 331.25 771.008789062 c 4,16,17
 352.629882812 1026.75976562 352.629882812 1026.75976562 624.293945312 1190.27441406 c 4,18,19
 658.713867188 1211.04296875 658.713867188 1211.04296875 670 1201.2578125 c 4,20,21
 675.876953125 1196.16308594 675.876953125 1196.16308594 678.141601562 1193.66699219 c 4,22,23
 689.3984375 1181.25292969 689.3984375 1181.25292969 655.728515625 1155.81542969 c 4,24,25
 583.924804688 1101.56640625 583.924804688 1101.56640625 529.717773438 1016.79492188 c 132,-1,26
 475.510742188 932.024414062 475.510742188 932.024414062 482.692382812 860.504882812 c 5,9,-1
EndSplineSet
EndChar

StartChar: uni061F
Encoding: 1567 1567 5
Width: 1149
VWidth: 3375
GlyphClass: 2
Flags: W
LayerCount: 2
Fore
SplineSet
538 158.837890625 m 132,-1,1
 538 215.537109375 538 215.537109375 578.5 256.037109375 c 132,-1,2
 619 296.537109375 619 296.537109375 675.700195312 296.537109375 c 132,-1,3
 732.400390625 296.537109375 732.400390625 296.537109375 773.912109375 257.049804688 c 4,4,5
 813.400390625 215.537109375 813.400390625 215.537109375 813.400390625 158.837890625 c 132,-1,6
 813.400390625 102.137695312 813.400390625 102.137695312 772.900390625 61.6376953125 c 132,-1,7
 732.400390625 21.1376953125 732.400390625 21.1376953125 675.700195312 21.1376953125 c 132,-1,8
 619 21.1376953125 619 21.1376953125 578.5 61.6376953125 c 132,-1,0
 538 102.137695312 538 102.137695312 538 158.837890625 c 132,-1,1
645.051757812 556.077148438 m 6,9,10
 618.529296875 556.077148438 618.529296875 556.077148438 618.529296875 583.2421875 c 6,11,-1
 618.529296875 613.87109375 l 6,12,13
 618.998519629 731.628482264 618.998519629 731.628482264 478.38387101 839.024012824 c 6,14,-1
 401.193036723 897.979112339 l 6,15,16
 257.013259031 1008.22521824 257.013259031 1008.22521824 255.665039062 1180.1796875 c 4,17,18
 255 1265 255 1265 286.15625 1333.17578125 c 4,19,20
 317 1401 317 1401 378.763671875 1452.72265625 c 4,21,22
 473 1531 473 1531 620.973632812 1531.18847656 c 4,23,24
 821 1531 821 1531 920.376953125 1392.05664062 c 4,25,26
 978 1311 978 1311 983.436549405 1181.7691052 c 4,27,28
 984 1167 984 1167 983.160931339 1152.50298738 c 4,29,30
 983 1138 983 1138 982.111555741 1124.93253929 c 5,31,-1
 884.184558907 1124.37091025 l 5,32,33
 843 1344 843 1344 632.54738005 1343.82714837 c 4,34,35
 508 1344 508 1344 455.168688976 1261.92780037 c 4,36,37
 431 1225 431 1225 430.968751024 1171.19035884 c 4,38,39
 431 1124 431 1124 468.035176906 1070.00795864 c 4,40,41
 503.762802417 1017.3496016 503.762802417 1017.3496016 578.864868179 956.099508338 c 6,42,-1
 626.946330914 916.886285016 l 6,43,44
 753.461505233 813.623314736 753.461505233 813.623314736 753.461914062 619.729492188 c 6,45,-1
 753.461988071 584.62951014 l 6,46,47
 753 571 753 571 748.811937368 562.965939376 c 4,48,49
 744.053292662 556.077148438 744.053292662 556.077148438 735.461914062 556.077148438 c 6,50,-1
 645.051757812 556.077148438 l 6,9,10
EndSplineSet
EndChar

StartChar: uni0621
Encoding: 1569 1569 6
Width: 891
VWidth: 3739
GlyphClass: 2
Flags: W
AnchorPoint: "Anchor-7" 458.756 -196.488 basechar 0
AnchorPoint: "Anchor-10" 436.642 1142.47 basechar 0
LayerCount: 2
Fore
SplineSet
682.145507812 534.395507812 m 1,0,1
 550.663164658 580.065955896 550.663164658 580.065955896 481.441933892 574.798114667 c 128,-1,2
 412.220703125 569.530273438 412.220703125 569.530273438 362.8515625 518.044921875 c 128,-1,3
 313.581054688 466.647460938 313.581054688 466.647460938 315.790039062 446.228027344 c 0,4,5
 320.197129303 405.489719042 320.197129303 405.489719042 393.878838089 355.659898584 c 128,-1,6
 467.560546875 305.830078125 467.560546875 305.830078125 481.899414062 303.730957031 c 128,-1,7
 496.23828125 301.631835938 496.23828125 301.631835938 513.8515625 304.16015625 c 0,8,9
 550.558486421 309.431332395 550.558486421 309.431332395 627.692382812 329.021484375 c 2,10,-1
 728.904296875 354.729492188 l 2,11,12
 781.362304688 368.47265625 781.362304688 368.47265625 785.163574219 361.052246094 c 128,-1,13
 788.96484375 353.631835938 788.96484375 353.631835938 783.5703125 316.017578125 c 2,14,-1
 767.729492188 205.563476562 l 1,15,-1
 105.375976562 23.3291015625 l 1,16,-1
 173.591796875 207.422851562 l 1,17,-1
 274.09765625 235.237304688 l 1,18,19
 128.91015625 360.9296875 128.91015625 360.9296875 194.079101562 559.317382812 c 0,20,21
 239.200195312 697.104492188 239.200195312 697.104492188 372.892578125 745.233398438 c 128,-1,22
 506.749863068 793.398907507 506.749863068 793.398907507 654.284179688 721.356445312 c 0,23,24
 686.939816169 704.910613452 686.939816169 704.910613452 721.829101562 671.774414062 c 1,25,26
 713.195148849 626.106078971 713.195148849 626.106078971 682.145507812 534.395507812 c 1,0,1
EndSplineSet
EndChar

StartChar: uni0627
Encoding: 1575 1575 12
Width: 494
VWidth: 3705
GlyphClass: 2
Flags: W
AnchorPoint: "Anchor-10" 233.583 1706.65 basechar 0
AnchorPoint: "Anchor-7" 245.098 -224.043 basechar 0
LayerCount: 2
Fore
SplineSet
197.284179688 -13.3427734375 m 5,0,1
 186 1290 186 1290 160.795898438 1448.72265625 c 5,2,-1
 276.068359375 1506.0078125 l 6,3,4
 336 1536 336 1536 339.93359375 1463.15136719 c 4,5,6
 355 1162 355 1162 346.540527344 614.708984375 c 4,7,8
 338 75 338 75 334.44140625 66.7333984375 c 4,9,10
 297 -12 297 -12 197.284179688 -13.3427734375 c 5,0,1
EndSplineSet
Substitution2: "'fina' Terminal Forms in Arabic lookup 9 subtable" uniFE8E
EndChar

StartChar: uni062D
Encoding: 1581 1581 18
Width: 1335
VWidth: 3739
GlyphClass: 2
Flags: W
AnchorPoint: "Anchor-7" 464.402 -842.641 basechar 0
AnchorPoint: "Anchor-10" 609.972 1253.02 basechar 0
LayerCount: 2
Fore
SplineSet
1208.58300781 -403.70703125 m 1,0,1
 1226 -406 1226 -406 1210.47460938 -512.251953125 c 0,2,3
 1200 -584 1200 -584 1172.16992188 -588.37890625 c 0,4,5
 1019 -613 1019 -613 841.9921875 -613.255859375 c 0,6,7
 675 -613 675 -613 584.427734375 -598.079101562 c 0,8,9
 404 -568 404 -568 298.9609375 -476.314453125 c 0,10,11
 142 -340 142 -340 142.25390625 -113.3515625 c 4,12,13
 142 283 142 283 488.01171875 496.65234375 c 0,14,15
 613 574 613 574 794.43359375 609.942382812 c 1,16,17
 677 632 677 632 608.021274728 647.972009009 c 0,18,19
 474 678 474 678 408.571289062 678.428710938 c 0,20,21
 301 678 301 678 203.560546875 559.346679688 c 1,22,23
 155 577 155 577 111.53125 606.78515625 c 1,24,25
 175 759 175 759 274.556640625 828.467773438 c 0,26,27
 326 865 326 865 382.6796875 864.798339844 c 0,28,29
 439 865 439 865 548.143554688 840.106445312 c 0,30,31
 657 815 657 815 998.66796875 717.557617188 c 0,32,33
 1119 683 1119 683 1222.37109375 686.41796875 c 0,34,35
 1241.05969105 687.001864954 1241.05969105 687.001864954 1234.45898438 671.40625 c 2,36,-1
 1163.33007812 503.348632812 l 1,37,38
 848 494 848 494 609.952148438 371.383789062 c 0,39,40
 289 206 289 206 288.989257812 -83.6806640625 c 4,41,42
 290 -436 290 -436 807.822265625 -433.583984375 c 0,43,44
 959 -433 959 -433 1041.796875 -423.38671875 c 0,45,46
 1125 -413 1125 -413 1208.58300781 -403.70703125 c 1,0,1
EndSplineSet
Substitution2: "'fina' Terminal Forms in Arabic lookup 9 subtable" uniFEA2
Substitution2: "'medi' Medial Forms in Arabic lookup 11 subtable" uniFEA4
Substitution2: "'init' Initial Forms in Arabic lookup 13 subtable" uniFEA3
EndChar

StartChar: uni062F
Encoding: 1583 1583 20
Width: 1031
VWidth: 3737
GlyphClass: 2
Flags: W
AnchorPoint: "Anchor-10" 413.795 1308.18 basechar 0
AnchorPoint: "Anchor-7" 400.949 -226.827 basechar 0
LayerCount: 2
Fore
SplineSet
230.859375 325.612304688 m 1,0,1
 228 268 228 268 248.879882812 241.4453125 c 0,2,3
 298 180 298 180 417.994140625 179.999023438 c 4,4,5
 617 180 617 180 737.555664062 253.502929688 c 0,6,7
 803.261434159 292.504750441 803.261434159 292.504750441 751.274414062 398.422851562 c 0,8,9
 665 571 665 571 353.720703125 787.817382812 c 1,10,-1
 411.606445312 942.17578125 l 2,11,12
 428 987 428 987 470.560546875 953.236328125 c 0,13,14
 919 602 919 602 919.126953125 350.834960938 c 0,15,16
 919 277 919 277 890.487304688 218.8046875 c 0,17,18
 784 2 784 2 416.579101562 2.798828125 c 0,19,20
 40 3 40 3 119.606445312 336.571289062 c 1,21,-1
 230.859375 325.612304688 l 1,0,1
EndSplineSet
Substitution2: "'fina' Terminal Forms in Arabic lookup 9 subtable" uniFEAA
EndChar

StartChar: uni0631
Encoding: 1585 1585 22
Width: 775
VWidth: 3744
GlyphClass: 2
Flags: W
AnchorPoint: "Anchor-7" 224.313 -749.669 basechar 0
AnchorPoint: "Anchor-10" 398.411 1086.21 basechar 0
LayerCount: 2
Fore
SplineSet
29.212890625 -430.844726562 m 4,0,1
 506 -308 506 -308 540.05859375 40.9892578125 c 4,2,3
 549 133 549 133 420.515625 377.907226562 c 5,4,5
 524 512 524 512 536.064453125 519.168945312 c 4,6,7
 548 526 548 526 559.153320312 523.880859375 c 4,8,9
 570 522 570 522 581.081054688 511.51953125 c 132,-1,10
 592 501 592 501 617.84765625 456.040039062 c 4,11,12
 644 411 644 411 665.732421875 333.053710938 c 4,13,14
 684 267 684 267 690.4296875 173.6953125 c 4,15,16
 701 15 701 15 667.502929688 -88 c 4,17,18
 585 -344 585 -344 344.763671875 -484.211914062 c 4,19,20
 237 -547 237 -547 141.038085938 -569.3515625 c 4,21,22
 89.4697265625 -581.356445312 89.4697265625 -581.356445312 72.755859375 -559.8359375 c 4,23,24
 33 -509 33 -509 22.13671875 -489.24609375 c 4,25,26
 -5 -440 -5 -440 29.212890625 -430.844726562 c 4,0,1
EndSplineSet
PairPos2: "'kern' Horizontal Kerning lookup 15-1" uniFEF3 dx=70 dy=0 dh=70 dv=0 dx=0 dy=0 dh=0 dv=0
PairPos2: "'kern' Horizontal Kerning lookup 15-1" uniFB58 dx=53 dy=0 dh=53 dv=0 dx=0 dy=0 dh=0 dv=0
PairPos2: "'kern' Horizontal Kerning lookup 15-1" uniFBFE dx=70 dy=0 dh=70 dv=0 dx=0 dy=0 dh=0 dv=0
PairPos2: "'kern' Horizontal Kerning lookup 15-4" uni0621 dx=-196 dy=0 dh=-196 dv=0 dx=0 dy=0 dh=0 dv=0
PairPos2: "'kern' Horizontal Kerning lookup 15-3" uni0648 dx=-43 dy=0 dh=-43 dv=0 dx=0 dy=0 dh=0 dv=0
PairPos2: "'kern' Horizontal Kerning lookup 15-1" uni0632 dx=-43 dy=0 dh=-43 dv=0 dx=0 dy=0 dh=0 dv=0
PairPos2: "'kern' Horizontal Kerning lookup 15-1" uni0631 dx=-43 dy=0 dh=-43 dv=0 dx=0 dy=0 dh=0 dv=0
PairPos2: "'kern' Horizontal Kerning lookup 15-1" uni06CC dx=-43 dy=0 dh=-43 dv=0 dx=0 dy=0 dh=0 dv=0
PairPos2: "'kern' Horizontal Kerning lookup 15-1" uniFEEB dx=-128 dy=0 dh=-128 dv=0 dx=0 dy=0 dh=0 dv=0
PairPos2: "'kern' Horizontal Kerning lookup 15-1" uniFB7C dx=-115 dy=0 dh=-115 dv=0 dx=0 dy=0 dh=0 dv=0
PairPos2: "'kern' Horizontal Kerning lookup 15-1" uniFEDF dx=-128 dy=0 dh=-128 dv=0 dx=0 dy=0 dh=0 dv=0
PairPos2: "'kern' Horizontal Kerning lookup 15-1" uniFB90 dx=-213 dy=0 dh=-213 dv=0 dx=0 dy=0 dh=0 dv=0
PairPos2: "'kern' Horizontal Kerning lookup 15-1" uni06A9 dx=-213 dy=0 dh=-213 dv=0 dx=0 dy=0 dh=0 dv=0
PairPos2: "'kern' Horizontal Kerning lookup 15-1" uni0649 dx=-43 dy=0 dh=-43 dv=0 dx=0 dy=0 dh=0 dv=0
PairPos2: "'kern' Horizontal Kerning lookup 15-1" uni0647 dx=-128 dy=0 dh=-128 dv=0 dx=0 dy=0 dh=0 dv=0
PairPos2: "'kern' Horizontal Kerning lookup 15-1" uniFEE7 dx=-128 dy=0 dh=-128 dv=0 dx=0 dy=0 dh=0 dv=0
PairPos2: "'kern' Horizontal Kerning lookup 15-1" uniFEE3 dx=-128 dy=0 dh=-128 dv=0 dx=0 dy=0 dh=0 dv=0
PairPos2: "'kern' Horizontal Kerning lookup 15-1" uni0645 dx=-128 dy=0 dh=-128 dv=0 dx=0 dy=0 dh=0 dv=0
PairPos2: "'kern' Horizontal Kerning lookup 15-1" uni0644 dx=-43 dy=0 dh=-43 dv=0 dx=0 dy=0 dh=0 dv=0
PairPos2: "'kern' Horizontal Kerning lookup 15-1" uniFEDB dx=-213 dy=0 dh=-213 dv=0 dx=0 dy=0 dh=0 dv=0
PairPos2: "'kern' Horizontal Kerning lookup 15-1" uniFED7 dx=-128 dy=0 dh=-128 dv=0 dx=0 dy=0 dh=0 dv=0
PairPos2: "'kern' Horizontal Kerning lookup 15-1" uni0642 dx=-43 dy=0 dh=-43 dv=0 dx=0 dy=0 dh=0 dv=0
PairPos2: "'kern' Horizontal Kerning lookup 15-1" uniFED3 dx=-128 dy=0 dh=-128 dv=0 dx=0 dy=0 dh=0 dv=0
PairPos2: "'kern' Horizontal Kerning lookup 15-1" uni0641 dx=-128 dy=0 dh=-128 dv=0 dx=0 dy=0 dh=0 dv=0
PairPos2: "'kern' Horizontal Kerning lookup 15-1" uniFECF dx=-128 dy=0 dh=-128 dv=0 dx=0 dy=0 dh=0 dv=0
PairPos2: "'kern' Horizontal Kerning lookup 15-1" uniFECB dx=-128 dy=0 dh=-128 dv=0 dx=0 dy=0 dh=0 dv=0
PairPos2: "'kern' Horizontal Kerning lookup 15-1" uniFEC7 dx=-128 dy=0 dh=-128 dv=0 dx=0 dy=0 dh=0 dv=0
PairPos2: "'kern' Horizontal Kerning lookup 15-1" uni0638 dx=-128 dy=0 dh=-128 dv=0 dx=0 dy=0 dh=0 dv=0
PairPos2: "'kern' Horizontal Kerning lookup 15-1" uniFEC3 dx=-128 dy=0 dh=-128 dv=0 dx=0 dy=0 dh=0 dv=0
PairPos2: "'kern' Horizontal Kerning lookup 15-1" uni0637 dx=-128 dy=0 dh=-128 dv=0 dx=0 dy=0 dh=0 dv=0
PairPos2: "'kern' Horizontal Kerning lookup 15-1" uniFEBF dx=-128 dy=0 dh=-128 dv=0 dx=0 dy=0 dh=0 dv=0
PairPos2: "'kern' Horizontal Kerning lookup 15-1" uni0636 dx=-128 dy=0 dh=-128 dv=0 dx=0 dy=0 dh=0 dv=0
PairPos2: "'kern' Horizontal Kerning lookup 15-1" uniFEBB dx=-128 dy=0 dh=-128 dv=0 dx=0 dy=0 dh=0 dv=0
PairPos2: "'kern' Horizontal Kerning lookup 15-1" uni0635 dx=-128 dy=0 dh=-128 dv=0 dx=0 dy=0 dh=0 dv=0
PairPos2: "'kern' Horizontal Kerning lookup 15-1" uniFEB7 dx=-128 dy=0 dh=-128 dv=0 dx=0 dy=0 dh=0 dv=0
PairPos2: "'kern' Horizontal Kerning lookup 15-1" uni0634 dx=-128 dy=0 dh=-128 dv=0 dx=0 dy=0 dh=0 dv=0
PairPos2: "'kern' Horizontal Kerning lookup 15-1" uniFEB3 dx=-128 dy=0 dh=-128 dv=0 dx=0 dy=0 dh=0 dv=0
PairPos2: "'kern' Horizontal Kerning lookup 15-1" uni0633 dx=-128 dy=0 dh=-128 dv=0 dx=0 dy=0 dh=0 dv=0
PairPos2: "'kern' Horizontal Kerning lookup 15-1" uni0630 dx=-128 dy=0 dh=-128 dv=0 dx=0 dy=0 dh=0 dv=0
PairPos2: "'kern' Horizontal Kerning lookup 15-1" uni062F dx=-128 dy=0 dh=-128 dv=0 dx=0 dy=0 dh=0 dv=0
PairPos2: "'kern' Horizontal Kerning lookup 15-1" uniFEA7 dx=-128 dy=0 dh=-128 dv=0 dx=0 dy=0 dh=0 dv=0
PairPos2: "'kern' Horizontal Kerning lookup 15-1" uniFEA3 dx=-128 dy=0 dh=-128 dv=0 dx=0 dy=0 dh=0 dv=0
PairPos2: "'kern' Horizontal Kerning lookup 15-1" uniFE9F dx=-128 dy=0 dh=-128 dv=0 dx=0 dy=0 dh=0 dv=0
PairPos2: "'kern' Horizontal Kerning lookup 15-1" uniFE9B dx=-128 dy=0 dh=-128 dv=0 dx=0 dy=0 dh=0 dv=0
PairPos2: "'kern' Horizontal Kerning lookup 15-1" uni062B dx=-128 dy=0 dh=-128 dv=0 dx=0 dy=0 dh=0 dv=0
PairPos2: "'kern' Horizontal Kerning lookup 15-1" uniFE97 dx=-128 dy=0 dh=-128 dv=0 dx=0 dy=0 dh=0 dv=0
PairPos2: "'kern' Horizontal Kerning lookup 15-1" uni062A dx=-128 dy=0 dh=-128 dv=0 dx=0 dy=0 dh=0 dv=0
PairPos2: "'kern' Horizontal Kerning lookup 15-1" uni0629 dx=-128 dy=0 dh=-128 dv=0 dx=0 dy=0 dh=0 dv=0
PairPos2: "'kern' Horizontal Kerning lookup 15-1" uniFE91 dx=-53 dy=0 dh=-53 dv=0 dx=0 dy=0 dh=0 dv=0
PairPos2: "'kern' Horizontal Kerning lookup 15-1" uni0628 dx=-128 dy=0 dh=-128 dv=0 dx=0 dy=0 dh=0 dv=0
PairPos2: "'kern' Horizontal Kerning lookup 15-1" uni0627 dx=-196 dy=0 dh=-196 dv=0 dx=0 dy=0 dh=0 dv=0
PairPos2: "'kern' Horizontal Kerning lookup 15-1" uni0622 dx=-196 dy=0 dh=-196 dv=0 dx=0 dy=0 dh=0 dv=0
PairPos2: "'kern' Horizontal Kerning lookup 15-1" uniFB94 dx=-235 dy=0 dh=-235 dv=0 dx=0 dy=0 dh=0 dv=0
PairPos2: "'kern' Horizontal Kerning lookup 15-1" afii57509 dx=-235 dy=0 dh=-235 dv=0 dx=0 dy=0 dh=0 dv=0
PairPos2: "'kern' Horizontal Kerning lookup 15-1" uniFB56 dx=-128 dy=0 dh=-128 dv=0 dx=0 dy=0 dh=0 dv=0
PairPos2: "'kern' Horizontal Kerning lookup 15-1" afii57506 dx=-128 dy=0 dh=-128 dv=0 dx=0 dy=0 dh=0 dv=0
Substitution2: "'fina' Terminal Forms in Arabic lookup 9 subtable" uniFEAE
EndChar

StartChar: uni0633
Encoding: 1587 1587 24
Width: 2360
VWidth: 3744
GlyphClass: 2
Flags: W
AnchorPoint: "Anchor-7" 481.746 -804.065 basechar 0
AnchorPoint: "Anchor-10" 664.203 981.759 basechar 0
LayerCount: 2
Fore
SplineSet
1934.19726562 0.93359375 m 20,0,1
 1785 1 1785 1 1689.984375 142.227539062 c 1,2,3
 1587 1 1587 1 1483.74121094 1.98046875 c 0,4,5
 1381 3 1381 3 1316.43554688 69.19140625 c 1,6,7
 1321 -4 1321 -4 1303 -91.0180421115 c 0,8,9
 1209 -540 1209 -540 685.975585938 -538.853515625 c 0,10,11
 374 -538 374 -538 240.803710938 -395.043945312 c 0,12,13
 71 -212 71 -212 116.5820866 84 c 0,14,15
 139 229 139 229 209.79296875 384.94140625 c 1,16,-1
 320.0546875 352.40234375 l 1,17,18
 263 165 263 165 262.880859375 13.18359375 c 0,19,20
 263 -359 263 -359 687.813476562 -359.276367188 c 0,21,22
 1003 -359 1003 -359 1123.19140625 -164.387695312 c 0,23,24
 1155 -113 1155 -113 1155 -28 c 0,25,26
 1155 37 1155 37 1037.66699219 328.455078125 c 1,27,-1
 1144.31640625 484.686523438 l 1,28,29
 1168 516 1168 516 1195.24511719 455.676757812 c 0,30,31
 1271 291 1271 291 1271.33007812 289.373046875 c 0,32,33
 1334 180 1334 180 1458.89160156 185.19921875 c 0,34,35
 1594.83306233 190.992885311 1594.83306233 190.992885311 1613.50683594 361.958007812 c 2,36,-1
 1629.83105469 511.412109375 l 1,37,-1
 1753.29882812 511.412109375 l 1,38,-1
 1768.85449219 365.776367188 l 2,39,40
 1788 183 1788 183 1931.20703125 182.44140625 c 12,41,42
 2099 182 2099 182 2096.90234375 345.39453125 c 4,43,44
 2096 399 2096 399 2018.48828125 615.358398438 c 5,45,-1
 2098.99707031 708.455078125 l 5,46,47
 2144 759 2144 759 2170.66503906 703.78515625 c 4,48,49
 2251 538 2251 538 2248.48828125 376.721679688 c 4,50,51
 2246 234 2246 234 2167.19238281 125.884765625 c 4,52,53
 2075 1 2075 1 1934.19726562 0.93359375 c 20,0,1
EndSplineSet
Substitution2: "'fina' Terminal Forms in Arabic lookup 9 subtable" uniFEB2
Substitution2: "'medi' Medial Forms in Arabic lookup 11 subtable" uniFEB4
Substitution2: "'init' Initial Forms in Arabic lookup 13 subtable" uniFEB3
EndChar

StartChar: uni0635
Encoding: 1589 1589 26
Width: 2639
VWidth: 3745
GlyphClass: 2
Flags: W
AnchorPoint: "Anchor-7" 481.746 -812.466 basechar 0
AnchorPoint: "Anchor-10" 664.203 979.759 basechar 0
LayerCount: 2
Fore
SplineSet
1271.33007812 279.373046875 m 24,0,1
 1326 186 1326 186 1462.34082031 184.841796875 c 1,2,3
 1828 768 1828 768 2184.01171875 766.310546875 c 0,4,5
 2406 765 2406 765 2494.86914062 579.616210938 c 0,6,7
 2526 515 2526 515 2523.99902344 427.048828125 c 0,8,9
 2520 244 2520 244 2358.49294081 125.741056352 c 0,10,11
 2187.04686239 0.0343601709366 2187.04686239 0.0343601709366 1831.74902344 0.013671875 c 2,12,-1
 1596.95019531 0 l 2,13,14
 1405 -0 1405 -0 1316.43554688 69.19140625 c 1,15,16
 1321 -3 1321 -3 1303 -88.0850487225 c 0,17,18
 1206 -540 1206 -540 685.975585938 -538.853515625 c 0,19,20
 374 -538 374 -538 240.803710938 -395.043945312 c 0,21,22
 66.8707685711 -207.784246767 66.8707685711 -207.784246767 118.19178937 94 c 0,23,24
 142 234 142 234 209.79296875 384.94140625 c 1,25,-1
 320.0546875 352.40234375 l 1,26,27
 263 165 263 165 262.880859375 13.18359375 c 0,28,29
 263 -359 263 -359 687.813476562 -359.276367188 c 0,30,31
 1003 -359 1003 -359 1123.19140625 -164.387695312 c 0,32,33
 1155 -113 1155 -113 1155 -28 c 0,34,35
 1155 37 1155 37 1037.66699219 328.455078125 c 1,36,-1
 1144.31640625 484.686523438 l 1,37,38
 1168.80865461 517.069169974 1168.80865461 517.069169974 1195.24511719 455.676757812 c 0,39,40
 1271 280 1271 280 1271.33007812 279.373046875 c 24,0,1
1612.10058594 181.791015625 m 1,41,-1
 1923.25390625 181.791015625 l 2,42,43
 2395 182 2395 182 2358.19433594 419.33984375 c 0,44,45
 2330 595 2330 595 2146.01464844 589.87109375 c 0,46,47
 1944 584 1944 584 1612.10058594 181.791015625 c 1,41,-1
EndSplineSet
Substitution2: "'fina' Terminal Forms in Arabic lookup 9 subtable" uniFEBA
Substitution2: "'medi' Medial Forms in Arabic lookup 11 subtable" uniFEBC
Substitution2: "'init' Initial Forms in Arabic lookup 13 subtable" uniFEBB
EndChar

StartChar: uni0637
Encoding: 1591 1591 28
Width: 1608
VWidth: 3745
GlyphClass: 2
Flags: W
AnchorPoint: "Anchor-10" 495.708 1633.06 basechar 0
AnchorPoint: "Anchor-7" 722.507 -219.535 basechar 0
LayerCount: 2
Fore
SplineSet
579.793945312 183.791015625 m 1,0,-1
 890.946289062 183.791015625 l 2,1,2
 1360 184 1360 184 1325.88769531 421.346679688 c 0,3,4
 1301 597 1301 597 1120.23730469 592.107421875 c 0,5,6
 912 586 912 586 579.793945312 183.791015625 c 1,0,-1
270.19921875 1.2568359375 m 1,7,8
 108 128 108 128 106.317382812 164 c 0,9,10
 106 170 106 170 114.256835938 176.383789062 c 0,11,12
 119.649428897 181.6571783 119.649428897 181.6571783 134.399414062 181.657226562 c 2,13,-1
 432.862304688 181.658203125 l 1,14,15
 465 234 465 234 497.7890625 286.39453125 c 1,16,17
 498 310 498 310 475.507438683 777.770809725 c 0,18,19
 449 1325 449 1325 425.522460938 1439.796875 c 1,20,-1
 559.055664062 1504.75 l 2,21,22
 613.774420399 1530.89222794 613.774420399 1530.89222794 614.880859375 1462.04882812 c 2,23,-1
 631.05859375 455.458984375 l 1,24,25
 899 769 899 769 1137 769 c 128,-1,26
 1375 769 1375 769 1462.57421875 581.594726562 c 0,27,28
 1492 518 1492 518 1491.91894531 435.375 c 0,29,30
 1492 249 1492 249 1328.30078125 130.112304688 c 0,31,32
 1152.04706896 2.03420355325 1152.04706896 2.03420355325 799.443359375 2.013671875 c 2,33,-1
 564.647460938 2 l 1,34,-1
 270.19921875 1.2568359375 l 1,7,8
EndSplineSet
Substitution2: "'fina' Terminal Forms in Arabic lookup 9 subtable" uniFEC2
Substitution2: "'medi' Medial Forms in Arabic lookup 11 subtable" uniFEC4
Substitution2: "'init' Initial Forms in Arabic lookup 13 subtable" uniFEC3
EndChar

StartChar: uni0639
Encoding: 1593 1593 30
Width: 1285
VWidth: 3739
GlyphClass: 2
Flags: W
AnchorPoint: "Anchor-7" 428.136 -855.44 basechar 0
AnchorPoint: "Anchor-10" 716.051 1499.67 basechar 0
LayerCount: 2
Fore
SplineSet
1167.13085938 -423.568359375 m 1,0,1
 1173 -437 1173 -437 1173.33789062 -488.723632812 c 0,2,3
 1173 -605 1173 -605 1140.71679688 -610.404296875 c 0,4,5
 1007 -633 1007 -633 791.497070312 -633.19140625 c 0,6,7
 586 -633 586 -633 463.669921875 -599.03125 c 0,8,9
 341 -565 341 -565 262.694335938 -496.314453125 c 0,10,11
 106 -359 106 -359 105.989257812 -152.729492188 c 4,12,13
 106 234 106 234 447.766601562 413.391601562 c 1,14,15
 240 566 240 566 299.127929688 803.736328125 c 0,16,17
 332 935 332 935 441.2578125 1014 c 0,18,19
 554 1096 554 1096 700.419921875 1096.00878906 c 0,20,21
 881 1097 881 1097 995.583984375 992.750976562 c 0,22,23
 1003 986 1003 986 1011.28808594 977.672851562 c 1,24,25
 1007 958 1007 958 964.852539062 848.501953125 c 1,26,27
 624 980 624 980 463.205078125 797.178710938 c 0,28,29
 429 758 429 758 428.647460938 727.791992188 c 0,30,31
 429 657 429 657 541.40625 570.189453125 c 0,32,33
 618 511 618 511 752.333007812 533.08984375 c 0,34,35
 800 541 800 541 938.5625 561.759765625 c 1,36,-1
 1077.60449219 579.389648438 l 2,37,38
 1079.95029002 579.811311838 1079.95029002 579.811311838 1087.14355469 580.037109375 c 2,39,-1
 1087.36132812 580.043945312 l 2,40,41
 1105 581 1105 581 1104.17480469 563.205078125 c 0,42,43
 1103 546 1103 546 1042.72167969 364.971679688 c 1,44,45
 673.423159109 360.602776749 673.423159109 360.602776749 480.227822604 246.634438579 c 4,46,47
 252 112 252 112 252.719726562 -123.53515625 c 0,48,49
 254 -456 254 -456 775.825195312 -453.583984375 c 0,50,51
 904 -453 904 -453 1167.13085938 -423.568359375 c 1,0,1
EndSplineSet
Substitution2: "'fina' Terminal Forms in Arabic lookup 9 subtable" uniFECA
Substitution2: "'medi' Medial Forms in Arabic lookup 11 subtable" uniFECC
Substitution2: "'init' Initial Forms in Arabic lookup 13 subtable" uniFECB
EndChar

StartChar: afii57440
Encoding: 1600 1600 32
Width: 245
VWidth: 3772
GlyphClass: 2
Flags: W
AnchorPoint: "Anchor-10" 139.034 1344.08 basechar 0
AnchorPoint: "Anchor-7" 124.768 -197.603 basechar 0
LayerCount: 2
Fore
SplineSet
-12.3662109375 0 m 1,0,-1
 -12.3662109375 179.999023438 l 1,1,-1
 259.340820312 179.999023438 l 1,2,-1
 259.340820312 0 l 1,3,-1
 -12.3662109375 0 l 1,0,-1
EndSplineSet
EndChar

StartChar: uni0643
Encoding: 1603 1603 35
Width: 1888
VWidth: 3705
GlyphClass: 2
Flags: W
AnchorPoint: "Anchor-10" 572.253 1604.45 basechar 0
AnchorPoint: "Anchor-7" 594.494 -204.19 basechar 0
LayerCount: 2
Fore
SplineSet
859.633789062 1197.10546875 m 0,0,1
 858.53515625 1151.81640625 858.53515625 1151.81640625 995.580566406 1127.65185547 c 128,-1,2
 1132.62597656 1103.48730469 1132.62597656 1103.48730469 1163.32421875 1010.41601562 c 0,3,4
 1199.23925781 901.521484375 1199.23925781 901.521484375 1137.52832031 815.630859375 c 0,5,6
 1064.34863281 713.770507812 1064.34863281 713.770507812 873.654296875 720.818359375 c 0,7,8
 779.21815107 724.307490243 779.21815107 724.307490243 680.5234375 755.338867188 c 1,9,-1
 694.244140625 895.8828125 l 1,10,11
 858.845391746 838.310280613 858.845391746 838.310280613 997.969726562 867.603515625 c 0,12,13
 1077.30178165 884.304899789 1077.30178165 884.304899789 1085.86621094 929.4765625 c 0,14,15
 1093.1015625 977.317382812 1093.1015625 977.317382812 950.265625 1008 c 0,16,17
 776.973632812 1044.90820312 776.973632812 1044.90820312 781.475585938 1213.74121094 c 0,18,19
 786.880859375 1397.54882812 786.880859375 1397.54882812 1099.30761719 1436.13964844 c 0,20,21
 1120.19042969 1438.78222656 1120.19042969 1438.78222656 1135.88964844 1433.35205078 c 128,-1,22
 1151.58886719 1427.921875 1151.58886719 1427.921875 1142.29296875 1401.31835938 c 2,23,-1
 1105.76660156 1296.78027344 l 1,24,25
 861.824094849 1272.36097733 861.824094849 1272.36097733 859.633789062 1197.10546875 c 0,0,1
288.557617188 732.236328125 m 1,26,27
 220 477 220 477 296.94921875 362.341796875 c 0,28,29
 414 190 414 190 760.633789062 181.987304688 c 4,30,31
 1113 174 1113 174 1315.89550781 225.599609375 c 4,32,33
 1428 254 1428 254 1535.30078125 321.086914062 c 4,34,35
 1581 350 1581 350 1584.56933594 526.73828125 c 0,36,37
 1588 694 1588 694 1585.88720703 724.09765625 c 0,38,39
 1581 791 1581 791 1574.0231904 996.764439161 c 0,40,41
 1567 1203 1567 1203 1543.86523438 1409.42089844 c 1,42,-1
 1695.09472656 1502.51171875 l 2,43,44
 1731.89941406 1524.93870781 1731.89941406 1524.93870781 1731.89941406 1479.92382812 c 2,45,-1
 1731.89941406 711.608398438 l 1,46,47
 1750 257 1750 257 1591.63085938 152.662109375 c 0,48,49
 1364 2 1364 2 875.678710938 2 c 0,50,51
 486 2 486 2 307.030273438 100.591796875 c 0,52,53
 104 212 104 212 106.384765625 457.866210938 c 0,54,55
 108 610 108 610 186.997070312 766.758789062 c 1,56,-1
 288.557617188 732.236328125 l 1,26,27
EndSplineSet
Substitution2: "'fina' Terminal Forms in Arabic lookup 9 subtable" uniFEDA
Substitution2: "'medi' Medial Forms in Arabic lookup 11 subtable" uniFEDC
Substitution2: "'init' Initial Forms in Arabic lookup 13 subtable" uniFEDB
EndChar

StartChar: uni0644
Encoding: 1604 1604 36
Width: 1375
VWidth: 3705
GlyphClass: 2
Flags: W
AnchorPoint: "Anchor-10" 570.799 1191.28 basechar 0
AnchorPoint: "Anchor-7" 572.152 -848.482 basechar 0
LayerCount: 2
Fore
SplineSet
1195.86132812 1480.37304688 m 2,0,-1
 1227.12597656 164.060546875 l 2,1,2
 1236 -230 1236 -230 1025.43457031 -383.579101562 c 0,3,4
 876 -492 876 -492 676.578125 -491.587890625 c 0,5,6
 374 -491 374 -491 237.0546875 -343.856445312 c 0,7,8
 77 -171 77 -171 111.71484375 109.635742188 c 0,9,10
 129 251 129 251 209.825195312 429.008789062 c 1,11,-1
 320.041992188 396.317382812 l 1,12,13
 102 -315 102 -315 679.438476562 -311.000976562 c 0,14,15
 947 -309 947 -309 1045.3125 -140.010742188 c 4,16,17
 1087 -68 1087 -68 1085.97851562 17.953125 c 0,18,19
 1069 929 1069 929 1018.40039062 1445.98046875 c 1,20,-1
 1139 1509 l 2,21,22
 1194 1538 1194 1538 1195.86132812 1480.37304688 c 2,0,-1
EndSplineSet
Substitution2: "'fina' Terminal Forms in Arabic lookup 9 subtable" uniFEDE
Substitution2: "'medi' Medial Forms in Arabic lookup 11 subtable" uniFEE0
Substitution2: "'init' Initial Forms in Arabic lookup 13 subtable" uniFEDF
EndChar

StartChar: uni0645
Encoding: 1605 1605 37
Width: 1116
VWidth: 3775
GlyphClass: 2
Flags: W
AnchorPoint: "Anchor-10" 585.394 1297.86 basechar 0
AnchorPoint: "Anchor-7" 206.665 -888.897 basechar 0
LayerCount: 2
Fore
SplineSet
667.024414062 68.6806640625 m 0,0,1
 517 95 517 95 399.590602687 94.7998046875 c 0,2,3
 282 95 282 95 250.184570312 76.5595703125 c 1,4,-1
 263.3984375 -507.263671875 l 6,5,6
 265 -597 265 -597 177.186523438 -686.890625 c 4,7,8
 122.075615216 -742.923120315 122.075615216 -742.923120315 120.072265625 -682.62890625 c 6,9,-1
 106.69140625 -279.909179688 l 2,10,11
 99 -47 99 -47 130.040039062 75.455078125 c 0,12,13
 171 234 171 234 290.078125 276.318359375 c 1,14,15
 367 575 367 575 456.986328125 682.043945312 c 0,16,17
 581 828 581 828 779.755859375 712.823242188 c 0,18,19
 968 604 968 604 1015.14550781 345.657226562 c 0,20,21
 1039 216 1039 216 909.490234375 90.28125 c 0,22,23
 853 35 853 35 821.215820312 42.0224609375 c 0,24,25
 817 43 817 43 667.024414062 68.6806640625 c 0,0,1
412.135742188 283.193359375 m 1,26,27
 584.8203125 273.713867188 584.8203125 273.713867188 685.897460938 254.643554688 c 128,-1,28
 786.974609375 235.573242188 786.974609375 235.573242188 821.884277344 235.573242188 c 128,-1,29
 856.793945312 235.573242188 856.793945312 235.573242188 856.793945312 258.25390625 c 0,30,31
 856.793945312 307.635742188 856.793945312 307.635742188 823.18359375 381.678710938 c 0,32,33
 763.46875 513.228515625 763.46875 513.228515625 645.223632812 544.03515625 c 0,34,35
 630.70703125 547.81640625 630.70703125 547.81640625 612.718261719 547.81640625 c 128,-1,36
 594.729492188 547.81640625 594.729492188 547.81640625 572.344726562 540.4921875 c 0,37,38
 527.6497944 525.867520548 527.6497944 525.867520548 492.280951888 470.798506368 c 128,-1,39
 456.912109375 415.729492188 456.912109375 415.729492188 412.135742188 283.193359375 c 1,26,27
EndSplineSet
Substitution2: "'init' Initial Forms in Arabic lookup 13 subtable" uniFEE3
Substitution2: "'medi' Medial Forms in Arabic lookup 11 subtable" uniFEE4
Substitution2: "'fina' Terminal Forms in Arabic lookup 9 subtable" uniFEE2
EndChar

StartChar: uni0647
Encoding: 1607 1607 39
Width: 873
VWidth: 3738
GlyphClass: 2
Flags: W
AnchorPoint: "Anchor-10" 377.369 1133.95 basechar 0
AnchorPoint: "Anchor-7" 420.886 -224.499 basechar 0
LayerCount: 2
Fore
SplineSet
368.119140625 596.525390625 m 1,0,1
 245 431 245 431 243.873046875 312.25390625 c 0,2,3
 243 186 243 186 447.697265625 185.846679688 c 0,4,5
 621 186 621 186 642.94921875 293.65625 c 0,6,7
 669 424 669 424 436.822265625 559.926757812 c 0,8,9
 382 592 382 592 368.119140625 596.525390625 c 1,0,1
312.573242188 775.623046875 m 0,10,11
 331.541015625 802.034179688 331.541015625 802.034179688 348.365554853 802.034179688 c 128,-1,12
 365.19009408 802.034179688 365.19009408 802.034179688 375.379882812 798.002929688 c 0,13,14
 776.360351562 646.233398438 776.360351562 646.233398438 776.360351562 332.854492188 c 0,15,16
 776.360351562 180.600957614 776.360351562 180.600957614 684.12890625 93.462890625 c 128,-1,17
 591.920365809 6.345703125 591.920365809 6.345703125 432.374023438 6.345703125 c 128,-1,18
 272.774414062 6.345703125 272.774414062 6.345703125 173.868164062 118.68359375 c 0,19,20
 109.25 190.743164062 109.25 190.743164062 109.25 296.484375 c 0,21,22
 109.25 493.137695312 109.25 493.137695312 312.573242188 775.623046875 c 0,10,11
EndSplineSet
Substitution2: "'fina' Terminal Forms in Arabic lookup 9 subtable" uniFEEA
Substitution2: "'medi' Medial Forms in Arabic lookup 11 subtable" uniFEEC
Substitution2: "'init' Initial Forms in Arabic lookup 13 subtable" uniFEEB
EndChar

StartChar: uni0648
Encoding: 1608 1608 40
Width: 823
VWidth: 3773
GlyphClass: 2
Flags: W
AnchorPoint: "Anchor-10" 377.254 1167.8 basechar 0
AnchorPoint: "Anchor-7" 294.319 -722.576 basechar 0
LayerCount: 2
Fore
SplineSet
75.4892578125 -431.139648438 m 0,0,1
 528 -312 528 -312 577.234375 1.3994140625 c 1,2,-1
 440.596679688 -2.8583984375 l 2,3,4
 244 -9 244 -9 168.696289062 87.0751953125 c 0,5,6
 93 184 93 184 120.00390625 351.259765625 c 0,7,8
 145 506 145 506 228.411132812 601.16796875 c 0,9,10
 310 694 310 694 410.264648438 693.603515625 c 0,11,12
 573.295624782 692.995165375 573.295624782 692.995165375 665.154296875 511.181640625 c 0,13,14
 738 367 738 367 740.228246786 168 c 0,15,16
 741 83 741 83 723.852649152 -2.55795384874e-13 c 0,17,18
 698 -128 698 -128 658.669921875 -206.182617188 c 0,19,20
 576 -369 576 -369 387.126953125 -480.125976562 c 0,21,22
 264 -553 264 -553 187.512695312 -569.489257812 c 0,23,24
 137 -581 137 -581 119.215820312 -560.079101562 c 0,25,26
 82.1619215626 -516.484421109 82.1619215626 -516.484421109 68.50390625 -489.551757812 c 0,27,28
 43 -439 43 -439 75.4892578125 -431.139648438 c 0,0,1
580.149414062 177.405273438 m 1,29,30
 567 377 567 377 509.8671875 450 c 4,31,32
 464 508 464 508 399.814453125 507.741210938 c 0,33,34
 315 508 315 508 278.006835938 401.997070312 c 0,35,36
 253 332 253 332 259.434570312 273.140625 c 0,37,38
 274 143 274 143 580.149414062 177.405273438 c 1,29,30
EndSplineSet
Substitution2: "'fina' Terminal Forms in Arabic lookup 9 subtable" uniFEEE
EndChar

StartChar: uni0649
Encoding: 1609 1609 41
Width: 1534
VWidth: 3745
GlyphClass: 2
Flags: W
AnchorPoint: "Anchor-10" 580.513 1094.08 basechar 0
AnchorPoint: "Anchor-7" 518.071 -692.887 basechar 0
LayerCount: 2
Fore
SplineSet
1447.69921875 765.5078125 m 5,0,1
 1442 704 1442 704 1409.77441406 569.825195312 c 1,2,-1
 1363.8515625 572.053710938 l 2,3,4
 1172 581 1172 581 1080.12109375 489.87890625 c 0,5,6
 990 400 990 400 961.73046875 268.068359375 c 1,7,-1
 1240.31445312 175.278320312 l 2,8,9
 1345 140 1345 140 1344.2265625 3.7255859375 c 0,10,11
 1343 -138 1343 -138 1257.57183115 -250 c 0,12,13
 1087 -472 1087 -472 715.8359375 -475.000976562 c 0,14,15
 381 -477 381 -477 228.265625 -317.978515625 c 0,16,17
 72 -154 72 -154 116.545898438 129.610351562 c 0,18,19
 143 299 143 299 215.346679688 435.509765625 c 1,20,-1
 325.611328125 405.131835938 l 1,21,22
 216 78 216 78 287.248046875 -83.5439453125 c 0,23,24
 381 -296 381 -296 721.28125 -293.990234375 c 0,25,26
 1039 -292 1039 -292 1178.43554688 -130.353515625 c 0,27,28
 1234 -66 1234 -66 1187.15625 -26.0053710938 c 0,29,30
 1141 14 1141 14 926.127929688 75.2353515625 c 0,31,32
 851 97 851 97 828.289550781 154.184082031 c 0,33,34
 805 214 805 214 851.98046875 373.787109375 c 0,35,36
 937 662 937 662 1166.56054688 755.43359375 c 4,37,38
 1301 810 1301 810 1447.69921875 765.5078125 c 5,0,1
EndSplineSet
Substitution2: "'fina' Terminal Forms in Arabic lookup 9 subtable" uniFEF0
Substitution2: "'medi' Medial Forms in Arabic lookup 11 subtable" uniFBE9
Substitution2: "'init' Initial Forms in Arabic lookup 13 subtable" uniFBE8
EndChar

StartChar: uni064B
Encoding: 1611 1611 43
Width: -25
VWidth: 2402
GlyphClass: 4
Flags: W
AnchorPoint: "Anchor-10" 637 1153.3 mark 0
AnchorPoint: "Anchor-9" 637 1153.3 mark 0
AnchorPoint: "Anchor-1" 595.196 1727 basemark 0
AnchorPoint: "Anchor-1" 637 1153.3 mark 0
LayerCount: 2
Fore
SplineSet
326.28125 1112.92480469 m 1,0,-1
 326.28125 1209.83007812 l 1,1,-1
 831.359375 1416.36132812 l 1,2,-1
 831.359375 1319.453125 l 1,3,-1
 326.28125 1112.92480469 l 1,0,-1
326.28125 1398.76171875 m 1,4,-1
 326.28125 1495.66699219 l 1,5,-1
 831.359375 1702.19628906 l 1,6,-1
 831.359375 1605.29003906 l 1,7,-1
 326.28125 1398.76171875 l 1,4,-1
EndSplineSet
EndChar

StartChar: uni064C
Encoding: 1612 1612 44
Width: -25
VWidth: 2402
GlyphClass: 4
Flags: W
AnchorPoint: "Anchor-10" 706.932 1262.33 mark 0
AnchorPoint: "Anchor-9" 706.932 1262.33 mark 0
AnchorPoint: "Anchor-1" 593.593 1985.74 basemark 0
AnchorPoint: "Anchor-1" 706.932 1262.33 mark 0
LayerCount: 2
Fore
SplineSet
682.081054688 1807.66210938 m 0,0,1
 635.4140625 1807.66210938 635.4140625 1807.66210938 612.619140625 1787.10839844 c 128,-1,2
 589.82421875 1766.5546875 589.82421875 1766.5546875 589.82421875 1724.77636719 c 0,3,4
 589.82421875 1662.24414062 589.82421875 1662.24414062 671.62109375 1632.5 c 0,5,6
 691.80078125 1625.15917969 691.80078125 1625.15917969 734.59765625 1611.84960938 c 1,7,-1
 750.127929688 1648.07714844 l 2,8,9
 753.275390625 1655.41894531 753.275390625 1655.41894531 755.631835938 1662.59375 c 128,-1,10
 757.989257812 1669.76953125 757.989257812 1669.76953125 759.5546875 1676.76660156 c 128,-1,11
 761.119140625 1683.76367188 761.119140625 1683.76367188 761.899414062 1690.58398438 c 128,-1,12
 762.6796875 1697.40429688 762.6796875 1697.40429688 762.6796875 1704.06542969 c 0,13,14
 762.6796875 1730.89160156 762.6796875 1730.89160156 755.590820312 1751.54394531 c 0,15,16
 745.873046875 1779.85546875 745.873046875 1779.85546875 727.615234375 1793.75878906 c 128,-1,17
 709.357421875 1807.66210938 709.357421875 1807.66210938 682.081054688 1807.66210938 c 0,0,1
331.27734375 1567.06640625 m 2,18,19
 337.979492188 1470.17773438 337.979492188 1470.17773438 347.932617188 1437.5625 c 0,20,21
 380.119140625 1332.10449219 380.119140625 1332.10449219 461.352539062 1334.04101562 c 0,22,23
 502.084960938 1335.01171875 502.084960938 1335.01171875 542.538085938 1354.87304688 c 128,-1,24
 582.9921875 1374.73339844 582.9921875 1374.73339844 623.202148438 1413.64648438 c 0,25,26
 669.795898438 1458.98242188 669.795898438 1458.98242188 696.400390625 1512.19335938 c 2,27,-1
 710.188476562 1539.77441406 l 1,28,-1
 680.01953125 1546.17675781 l 2,29,30
 553.680664062 1572.95605469 553.680664062 1572.95605469 512.194335938 1674.70019531 c 0,31,32
 505.251953125 1691.72070312 505.251953125 1691.72070312 505.251953125 1724.09570312 c 0,33,34
 505.251953125 1756.26171875 505.251953125 1756.26171875 514.016601562 1782.41113281 c 0,35,36
 550.029296875 1889.87402344 550.029296875 1889.87402344 671.806640625 1889.87402344 c 128,-1,37
 793.41796875 1889.87402344 793.41796875 1889.87402344 832.646484375 1785.16113281 c 0,38,39
 844.892578125 1752.47265625 844.892578125 1752.47265625 844.892578125 1710.29882812 c 128,-1,40
 844.892578125 1668.29785156 844.892578125 1668.29785156 831.830078125 1626.85449219 c 2,41,-1
 822.553710938 1597.48730469 l 1,42,-1
 853.311523438 1595.87207031 l 2,43,44
 873.525390625 1594.80566406 873.525390625 1594.80566406 911.638671875 1593.8515625 c 2,45,-1
 914.563476562 1593.77832031 l 1,46,-1
 914.563476562 1511.375 l 1,47,-1
 911.51171875 1511.42773438 l 2,48,49
 876.284179688 1512.04101562 876.284179688 1512.04101562 861.571289062 1513.51855469 c 2,50,-1
 782.775390625 1521.09179688 l 1,51,52
 721.950195312 1383.44628906 721.950195312 1383.44628906 600.155273438 1297.7421875 c 0,53,54
 538.19140625 1254.13867188 538.19140625 1254.13867188 470.0390625 1253.82128906 c 0,55,56
 279.547851562 1252.93457031 279.547851562 1252.93457031 272.821289062 1566.79492188 c 2,57,-1
 272.754882812 1569.859375 l 1,58,-1
 331.083984375 1569.859375 l 1,59,-1
 331.27734375 1567.06640625 l 2,18,19
EndSplineSet
EndChar

StartChar: uni064D
Encoding: 1613 1613 45
Width: -24
VWidth: 2231
GlyphClass: 4
Flags: W
AnchorPoint: "Anchor-7" 534.761 70.6797 mark 0
AnchorPoint: "Anchor-6" 534.761 70.6797 mark 0
AnchorPoint: "Anchor-0" 614.975 -455.578 basemark 0
AnchorPoint: "Anchor-0" 534.761 70.6797 mark 0
LayerCount: 2
Fore
SplineSet
301.962890625 -494.516601562 m 1,0,-1
 301.962890625 -393.424804688 l 1,1,-1
 780.14453125 -197.892578125 l 1,2,-1
 780.14453125 -298.983398438 l 1,3,-1
 301.962890625 -494.516601562 l 1,0,-1
301.962890625 -229.854492188 m 1,4,-1
 301.962890625 -128.76171875 l 1,5,-1
 780.14453125 66.7705078125 l 1,6,-1
 780.14453125 -34.3212890625 l 1,7,-1
 301.962890625 -229.854492188 l 1,4,-1
EndSplineSet
EndChar

StartChar: uni064E
Encoding: 1614 1614 46
Width: -24
VWidth: 2231
GlyphClass: 4
Flags: W
AnchorPoint: "Anchor-10" 541.027 1314.54 mark 0
AnchorPoint: "Anchor-9" 541.027 1314.54 mark 0
AnchorPoint: "Anchor-1" 520.452 1629.02 basemark 0
AnchorPoint: "Anchor-1" 541.027 1314.54 mark 0
LayerCount: 2
Fore
SplineSet
267.21875 1291.70019531 m 1,0,-1
 267.21875 1392.79296875 l 1,1,-1
 745.401367188 1588.32519531 l 1,2,-1
 745.401367188 1487.23339844 l 1,3,-1
 267.21875 1291.70019531 l 1,0,-1
EndSplineSet
EndChar

StartChar: uni064F
Encoding: 1615 1615 47
Width: -24
VWidth: 2231
GlyphClass: 4
Flags: W
AnchorPoint: "Anchor-10" 597.961 1261.64 mark 0
AnchorPoint: "Anchor-9" 597.961 1261.64 mark 0
AnchorPoint: "Anchor-1" 528.853 1858.42 basemark 0
AnchorPoint: "Anchor-1" 597.961 1261.64 mark 0
LayerCount: 2
Fore
SplineSet
791.53125 1418.96386719 m 1,0,1
 737.403118743 1420.05195662 737.403118743 1420.05195662 666.219726562 1427.66113281 c 1,2,3
 613.530911695 1353.51764752 613.530911695 1353.51764752 523.468092566 1297.92483938 c 128,-1,4
 433.388997783 1242.32198483 433.388997783 1242.32198483 305.546875 1235.00097656 c 1,5,-1
 305.546875 1311.64160156 l 1,6,7
 459.386702053 1319.56060433 459.386702053 1319.56060433 554.650390625 1423.61230469 c 1,8,-1
 581.120117188 1451.4921875 l 1,9,10
 482.564496235 1478.18002467 482.564496235 1478.18002467 444 1526 c 4,11,12
 412 1565 412 1565 412.155761719 1623.29785156 c 0,13,14
 412 1699 412 1699 470 1743 c 0,15,16
 533 1791 533 1791 609.870117188 1769.41308594 c 0,17,18
 648.516601562 1758.59375 648.516601562 1758.59375 677.844726562 1729.57128906 c 0,19,20
 726.754969688 1681.17079907 726.754969688 1681.17079907 727.021484375 1603.67773438 c 0,21,22
 726.756835938 1571.12988281 726.756835938 1571.12988281 712.696289062 1525.93945312 c 2,23,-1
 704.4375 1499.3984375 l 1,24,-1
 732.193359375 1497.75878906 l 2,25,26
 763.574501539 1495.91399151 763.574501539 1495.91399151 791.53125 1495.62890625 c 1,27,-1
 791.53125 1418.96386719 l 1,0,1
624.38671875 1512.61425781 m 1,28,29
 649.851791442 1573.25598795 649.851791442 1573.25598795 648.895719723 1614 c 0,30,31
 647.485729449 1674.0882336 647.485729449 1674.0882336 604 1688.80306403 c 0,32,33
 565 1702 565 1702 536 1688 c 0,34,35
 501 1670 501 1670 492.629882812 1633.48925781 c 0,36,37
 476.825808147 1559.57427236 476.825808147 1559.57427236 600.418945312 1520.04785156 c 0,38,39
 611.1174251 1516.62503855 611.1174251 1516.62503855 624.38671875 1512.61425781 c 1,28,29
EndSplineSet
EndChar

StartChar: uni0650
Encoding: 1616 1616 48
Width: -24
VWidth: 2231
GlyphClass: 4
Flags: W
AnchorPoint: "Anchor-7" 549.05 -18.2773 mark 0
AnchorPoint: "Anchor-6" 549.05 -18.2773 mark 0
AnchorPoint: "Anchor-0" 595.143 -318.976 basemark 0
AnchorPoint: "Anchor-0" 549.05 -18.2773 mark 0
LayerCount: 2
Fore
SplineSet
312.181640625 -337.149414062 m 1,0,-1
 312.181640625 -236.056640625 l 1,1,-1
 790.362304688 -40.5263671875 l 1,2,-1
 790.362304688 -141.6171875 l 1,3,-1
 312.181640625 -337.149414062 l 1,0,-1
EndSplineSet
EndChar

StartChar: uni0651
Encoding: 1617 1617 49
Width: -24
VWidth: 2231
GlyphClass: 4
Flags: W
AnchorPoint: "Anchor-10" 589.815 1342.68 mark 0
AnchorPoint: "Anchor-9" 589.815 1342.68 mark 0
AnchorPoint: "Anchor-1" 560.134 1778.24 basemark 0
AnchorPoint: "Anchor-1" 589.815 1342.68 mark 0
LayerCount: 2
Fore
SplineSet
589.624023438 1609.57910156 m 0,0,1
 589.001953125 1501.4296875 589.001953125 1501.4296875 693.940429688 1501.37597656 c 0,2,3
 734.927734375 1501.40332031 734.927734375 1501.40332031 755.041992188 1522.78125 c 128,-1,4
 775.155273438 1544.16015625 775.155273438 1544.16015625 775.155273438 1587.88769531 c 0,5,6
 775.155273438 1677.109375 775.155273438 1677.109375 768.518554688 1719.46484375 c 2,7,-1
 768.274414062 1721.01953125 l 1,8,-1
 769.415039062 1722.10351562 l 2,9,10
 805.2890625 1756.20898438 805.2890625 1756.20898438 846.075195312 1722.88671875 c 2,11,-1
 846.989257812 1722.140625 l 1,12,-1
 847.149414062 1720.97070312 l 2,13,14
 857.791015625 1643.27148438 857.791015625 1643.27148438 857.391601562 1583.41015625 c 0,15,16
 857.592773438 1483.8359375 857.592773438 1483.8359375 818.15234375 1433.35351562 c 128,-1,17
 778.712890625 1382.87207031 778.712890625 1382.87207031 699.985351562 1382.79101562 c 0,18,19
 605.83984375 1382.9453125 605.83984375 1382.9453125 566.563476562 1453.55566406 c 1,20,21
 530.669921875 1312.39160156 530.669921875 1312.39160156 412.158203125 1312.39160156 c 0,22,23
 406.493164062 1312.39160156 406.493164062 1312.39160156 401.021484375 1312.62402344 c 128,-1,24
 395.549804688 1312.85644531 395.549804688 1312.85644531 390.272460938 1313.32128906 c 0,25,26
 230.986328125 1327.36425781 230.986328125 1327.36425781 251.323242188 1550.8203125 c 0,27,28
 252.833984375 1567.01464844 252.833984375 1567.01464844 255.591796875 1587.50878906 c 128,-1,29
 258.349609375 1608.00195312 258.349609375 1608.00195312 262.356445312 1632.82421875 c 2,30,-1
 262.515625 1633.80957031 l 1,31,-1
 263.233398438 1634.50390625 l 2,32,33
 302.798828125 1672.72265625 302.798828125 1672.72265625 336.203125 1633.71777344 c 2,34,-1
 337.091796875 1632.68066406 l 1,35,-1
 336.892578125 1631.33007812 l 2,36,37
 330.797851562 1589.92285156 330.797851562 1589.92285156 327.86328125 1562.61914062 c 128,-1,38
 324.9296875 1535.31640625 324.9296875 1535.31640625 325.171875 1522.50195312 c 0,39,40
 324.924804688 1473.40332031 324.924804688 1473.40332031 348.555664062 1449.36523438 c 128,-1,41
 372.186523438 1425.32714844 372.186523438 1425.32714844 420.577148438 1425.38183594 c 0,42,43
 464.064453125 1425.32714844 464.064453125 1425.32714844 487.010742188 1456.87109375 c 128,-1,44
 509.958007812 1488.4140625 509.958007812 1488.4140625 512.455078125 1552.94238281 c 0,45,46
 514.1796875 1598.54785156 514.1796875 1598.54785156 513.706054688 1686.78710938 c 2,47,-1
 513.69921875 1688.17871094 l 1,48,-1
 514.756835938 1689.08300781 l 2,49,50
 553.583007812 1722.28125 553.583007812 1722.28125 586.87890625 1688.79394531 c 2,51,-1
 587.708007812 1687.95996094 l 1,52,-1
 587.749023438 1686.78417969 l 2,53,54
 589.006835938 1650.92871094 589.006835938 1650.92871094 589.624023438 1609.57910156 c 0,0,1
EndSplineSet
EndChar

StartChar: uni0652
Encoding: 1618 1618 50
Width: -31
VWidth: 2789
GlyphClass: 4
Flags: W
AnchorPoint: "Anchor-10" 711.878 1488.92 mark 0
AnchorPoint: "Anchor-9" 711.878 1488.92 mark 0
AnchorPoint: "Anchor-1" 702.956 2081.45 basemark 0
AnchorPoint: "Anchor-1" 711.878 1488.92 mark 0
LayerCount: 2
Fore
SplineSet
713.103515625 1613.2265625 m 128,-1,1
 775.150376836 1613.2265625 775.150376836 1613.2265625 817.670898438 1655.75488281 c 128,-1,2
 860.19921875 1698.27930448 860.19921875 1698.27930448 860.19921875 1759.484375 c 128,-1,3
 860.19921875 1820.69140625 860.19921875 1820.69140625 817.672851562 1863.21777344 c 128,-1,4
 775.146484375 1905.74511719 775.146484375 1905.74511719 713.099609375 1905.74511719 c 128,-1,5
 651.052744008 1905.74511719 651.052744008 1905.74511719 608.952148438 1863.63867188 c 128,-1,6
 566.844726562 1821.53320312 566.844726562 1821.53320312 566.844726562 1759.48583984 c 0,7,8
 566.844726562 1697.43847656 566.844726562 1697.43847656 608.951171875 1655.33203125 c 128,-1,0
 651.056640625 1613.2265625 651.056640625 1613.2265625 713.103515625 1613.2265625 c 128,-1,1
938.178710938 1760.04003906 m 128,-1,10
 938.178710938 1665.77050781 938.178710938 1665.77050781 873.120117188 1600.29492188 c 128,-1,11
 808.119140625 1534.88378906 808.119140625 1534.88378906 713.916015625 1534.88378906 c 128,-1,12
 619.706054688 1534.88378906 619.706054688 1534.88378906 554.71484375 1600.29492188 c 128,-1,13
 489.654296875 1665.77246094 489.654296875 1665.77246094 489.654296875 1760.04003906 c 128,-1,14
 489.654296875 1854.26855469 489.654296875 1854.26855469 554.666992188 1919.29296875 c 128,-1,15
 619.676757812 1984.30371094 619.676757812 1984.30371094 713.916015625 1984.30371094 c 128,-1,16
 808.156252321 1984.30371094 808.156252321 1984.30371094 873.165039062 1919.29296875 c 128,-1,9
 938.178710938 1854.26953125 938.178710938 1854.26953125 938.178710938 1760.04003906 c 128,-1,10
EndSplineSet
EndChar

StartChar: uni0653
Encoding: 1619 1619 51
Width: -3
VWidth: 2759
GlyphClass: 4
Flags: W
AnchorPoint: "Anchor-10" 485.314 1565.6 mark 0
AnchorPoint: "Anchor-9" 485.314 1565.6 mark 0
AnchorPoint: "Anchor-1" 455.074 2023.52 basemark 0
AnchorPoint: "Anchor-1" 485.314 1565.6 mark 0
LayerCount: 2
Fore
SplineSet
362.12890625 1670.21582031 m 1,0,1
 268 1662 268 1662 177.368164062 1582.37890625 c 1,2,3
 150 1600 150 1600 134.283203125 1620.86230469 c 1,4,5
 215 1831 215 1831 314.73828125 1831.14941406 c 4,6,7
 384 1831 384 1831 465.94140625 1820.47558594 c 132,-1,8
 548 1810 548 1810 582.85546875 1809.96875 c 4,9,10
 708 1810 708 1810 757.977539062 1822.60351562 c 4,11,12
 811 1836 811 1836 820.592773438 1829.48730469 c 5,13,14
 833 1816 833 1816 801.384765625 1769.48925781 c 4,15,16
 776 1733 776 1733 728.657226562 1698.57617188 c 0,17,18
 653 1645 653 1645 362.12890625 1670.21582031 c 1,0,1
EndSplineSet
EndChar

StartChar: uni0657
Encoding: 1623 1623 54
Width: -34
VWidth: 3005
GlyphClass: 4
Flags: W
AnchorPoint: "Anchor-10" 743.995 1752.27 mark 0
AnchorPoint: "Anchor-9" 743.995 1752.27 mark 0
AnchorPoint: "Anchor-1" 743.995 2711.73 basemark 0
AnchorPoint: "Anchor-1" 743.995 1752.27 mark 0
LayerCount: 2
Fore
SplineSet
346.939453125 2337.88791595 m 1,0,1
 417.403375079 2335.96334391 417.403375079 2335.96334391 513.786977564 2326.01391817 c 1,2,3
 596.644642021 2449.75296673 596.644642021 2449.75296673 711.51958869 2521.26743707 c 0,4,5
 871.884004803 2620.16984344 871.884004803 2620.16984344 1014.69238281 2633.57649374 c 1,6,-1
 1014.69238281 2539.58189734 l 1,7,8
 895.963038063 2530.16866458 895.963038063 2530.16866458 724.589569309 2399.0105334 c 0,9,10
 688.65353045 2370.90141887 688.65353045 2370.90141887 658.857611413 2339.53569478 c 2,11,-1
 617.522009126 2296.02409756 l 1,12,-1
 676.403024639 2282.92686625 l 2,13,14
 686.237733178 2280.75670371 686.237733178 2280.75670371 733.408748699 2256.07347266 c 0,15,16
 830.209071663 2204.53763515 830.209071663 2204.53763515 848.677334118 2108.90087834 c 128,-1,17
 867.145596573 2013.26412154 867.145596573 2013.26412154 810.16577341 1943.09467376 c 128,-1,18
 753.185950247 1872.92522599 753.185950247 1872.92522599 653.797822658 1873.45370496 c 128,-1,19
 554.409695068 1873.98218393 554.409695068 1873.98218393 494.203509735 1932.07586924 c 128,-1,20
 433.997324401 1990.16955456 433.997324401 1990.16955456 434.028319766 2093.24464192 c 0,21,22
 433.997294914 2135.23096282 433.997294914 2135.23096282 453.159700588 2196.82184085 c 2,23,-1
 466.05073013 2238.25410581 l 1,24,-1
 422.730291066 2240.81188851 l 2,25,26
 386.110891581 2242.99392773 386.110891581 2242.99392773 346.939453125 2243.61609684 c 1,27,-1
 346.939453125 2337.88791595 l 1,0,1
627.271484375 1967.77539062 m 0,28,29
 752.862304688 1967.77539062 752.862304688 1967.77539062 752.862304688 2075.53710938 c 0,30,31
 752.862304688 2153.13917103 752.862304688 2153.13917103 665.095793259 2188.2493423 c 0,32,33
 634.607589685 2200.45363058 634.607589685 2200.45363058 565.395678366 2221.77574768 c 1,34,-1
 544.508414709 2173.05059243 l 2,35,36
 528.478515625 2135.65078296 528.478515625 2135.65078296 528.478515625 2093.93759995 c 0,37,38
 528.478515625 2052.22441695 528.478515625 2052.22441695 545.744264664 2022.14173716 c 0,39,40
 576.947458757 1967.77539062 576.947458757 1967.77539062 627.271484375 1967.77539062 c 0,28,29
EndSplineSet
EndChar

StartChar: uni065A
Encoding: 1626 1626 55
Width: 1473
VWidth: 3008
GlyphClass: 4
Flags: W
AnchorPoint: "Anchor-10" 743.995 1755.27 mark 0
AnchorPoint: "Anchor-9" 743.995 1755.27 mark 0
AnchorPoint: "Anchor-1" 741.044 2419.52 basemark 0
AnchorPoint: "Anchor-1" 743.995 1755.27 mark 0
LayerCount: 2
Fore
SplineSet
652.322265625 1877.75097656 m 1,0,-1
 401.5234375 2297.03613281 l 1,1,-1
 535.5390625 2297.03613281 l 1,2,-1
 743.995117188 1984.34179688 l 1,3,-1
 952.453125 2297.03613281 l 1,4,-1
 1086.47070312 2297.03613281 l 1,5,-1
 835.666992188 1877.75097656 l 1,6,-1
 652.322265625 1877.75097656 l 1,0,-1
EndSplineSet
EndChar

StartChar: afii57392
Encoding: 1632 1632 56
Width: 924
VWidth: 3201
GlyphClass: 2
Flags: W
LayerCount: 2
Fore
SplineSet
471.256835938 829.943359375 m 1,0,-1
 696.0390625 605.161132812 l 1,1,-1
 465.84765625 374.969726562 l 1,2,-1
 241.065429688 599.752929688 l 1,3,-1
 471.256835938 829.943359375 l 1,0,-1
EndSplineSet
EndChar

StartChar: afii57393
Encoding: 1633 1633 57
Width: 771
VWidth: 3192
GlyphClass: 2
Flags: W
LayerCount: 2
Fore
SplineSet
307.123046875 1372.89160156 m 0,0,1
 540.314453125 688.48046875 540.314453125 688.48046875 548.705078125 290.237304688 c 0,2,3
 552.71875 63.23046875 552.71875 63.23046875 538.919921875 51.4033203125 c 128,-1,4
 525.154296875 39.6044921875 525.154296875 39.6044921875 437.716796875 17.373046875 c 1,5,6
 402.049804688 578.024414062 402.049804688 578.024414062 149.161132812 1269.36523438 c 1,7,-1
 242.915039062 1384.15136719 l 2,8,9
 285.515625 1436.30957031 285.515625 1436.30957031 307.123046875 1372.89160156 c 0,0,1
EndSplineSet
EndChar

StartChar: afii57394
Encoding: 1634 1634 58
Width: 1045
VWidth: 3192
GlyphClass: 2
Flags: W
LayerCount: 2
Fore
SplineSet
429.48046875 852.087890625 m 1,0,1
 517.5234375 437.205078125 517.5234375 437.205078125 517.547851562 217.125976562 c 0,2,3
 517.502929688 80.3857421875 517.502929688 80.3857421875 510.966796875 65.2177734375 c 128,-1,4
 504.431640625 50.0498046875 504.431640625 50.0498046875 498.016601562 47.0654296875 c 0,5,6
 473.139648438 35.4853515625 473.139648438 35.4853515625 403.328125 17.546875 c 1,7,8
 367.217773438 586.872070312 367.217773438 586.872070312 115.827148438 1272.97460938 c 1,9,-1
 237.677734375 1422.15917969 l 2,10,11
 248.799804688 1435.32714844 248.799804688 1435.32714844 259.684570312 1410.43945312 c 128,-1,12
 270.5703125 1385.55273438 270.5703125 1385.55273438 273.59765625 1376.25 c 128,-1,13
 276.625976562 1366.94726562 276.625976562 1366.94726562 288.884765625 1335.56445312 c 0,14,15
 325.026367188 1243.03613281 325.026367188 1243.03613281 336.79296875 1214.97558594 c 0,16,17
 403.765625 1047.04394531 403.765625 1047.04394531 571.317382812 1047.43457031 c 0,18,19
 791.953125 1047.04199219 791.953125 1047.04199219 824.557617188 1363.85839844 c 2,20,-1
 829.456054688 1411.46484375 l 1,21,-1
 951.645507812 1394.99316406 l 1,22,-1
 949.405273438 1340.97363281 l 2,23,24
 928.901367188 841.204101562 928.901367188 841.204101562 539.541015625 844.7734375 c 0,25,26
 492.176757812 845.21875 492.176757812 845.21875 429.48046875 852.087890625 c 1,0,1
EndSplineSet
EndChar

StartChar: afii57395
Encoding: 1635 1635 59
Width: 1245
VWidth: 3192
GlyphClass: 2
Flags: W
LayerCount: 2
Fore
SplineSet
897.158203125 856.416015625 m 0,0,1
 768.0859375 856.265625 768.0859375 856.265625 700.791992188 965.0078125 c 1,2,3
 613.017578125 831.03515625 613.017578125 831.03515625 430.7734375 858.020507812 c 1,4,5
 519.806640625 430.19921875 519.806640625 430.19921875 519.73046875 254.528320312 c 128,-1,6
 519.653320312 78.857421875 519.653320312 78.857421875 509.20703125 53.439453125 c 0,7,8
 504.495117188 42.70703125 504.495117188 42.70703125 406.61328125 17.548828125 c 1,9,10
 370.622070312 582.422851562 370.622070312 582.422851562 118.0625 1272.9765625 c 1,11,-1
 235.918945312 1416.94824219 l 2,12,13
 254.198242188 1439.52636719 254.198242188 1439.52636719 263.727539062 1410.6953125 c 0,14,15
 297.943359375 1312.28808594 297.943359375 1312.28808594 321.822265625 1252.25390625 c 0,16,17
 401.041015625 1048.04492188 401.041015625 1048.04492188 516.903320312 1047.4453125 c 0,18,19
 661.1171875 1047.046875 661.1171875 1047.046875 670.673828125 1245.43945312 c 2,20,-1
 676.778320312 1372.18359375 l 1,21,-1
 799.91796875 1369.74707031 l 1,22,-1
 804.6328125 1229.51074219 l 2,23,24
 810.772460938 1036.00097656 810.772460938 1036.00097656 911.743164062 1035.64453125 c 0,25,26
 1054.77148438 1036.00292969 1054.77148438 1036.00292969 1055.55371094 1347.04199219 c 2,27,-1
 1055.67675781 1396.07910156 l 1,28,-1
 1177.74707031 1390.83496094 l 1,29,-1
 1177.61523438 1318.93945312 l 2,30,31
 1177.08691406 856.264648438 1177.08691406 856.264648438 897.158203125 856.416015625 c 0,0,1
EndSplineSet
EndChar

StartChar: afii57396
Encoding: 1636 1636 60
Width: 951
VWidth: 3198
GlyphClass: 2
Flags: W
LayerCount: 2
Fore
SplineSet
265.868164062 367.783203125 m 1,0,1
 483.928710938 278.483398438 483.928710938 278.483398438 833.866210938 290.00390625 c 1,2,-1
 829.522460938 110.3984375 l 2,3,4
 828.447265625 54.6884765625 828.447265625 54.6884765625 784.1875 56.896484375 c 0,5,6
 420.52734375 73.830078125 420.52734375 73.830078125 170.844726562 238.487304688 c 0,7,8
 97.2626953125 287.404296875 97.2626953125 287.404296875 132.114257812 348.624023438 c 0,9,10
 250.2265625 559.081054688 250.2265625 559.081054688 478.111328125 683.904296875 c 1,11,12
 264.126953125 776.407226562 264.126953125 776.407226562 175.875 879.651367188 c 0,13,14
 110.708007812 954.71484375 110.708007812 954.71484375 126.05078125 999.676757812 c 0,15,16
 190.32421875 1198.58203125 190.32421875 1198.58203125 676.075195312 1407.875 c 0,17,18
 711.268554688 1423.0078125 711.268554688 1423.0078125 714.65625 1409.72949219 c 0,19,20
 717.184570312 1399.80957031 717.184570312 1399.80957031 711.428710938 1372.83105469 c 2,21,-1
 689.149414062 1268.37304688 l 2,22,23
 675.290039062 1203.38574219 675.290039062 1203.38574219 661.697265625 1139.32421875 c 1,24,25
 424.337890625 1126.28417969 424.337890625 1126.28417969 258.137695312 1057.65722656 c 1,26,27
 443.8828125 901.575195312 443.8828125 901.575195312 721.173828125 779.940429688 c 1,28,-1
 721.169921875 778.014648438 l 2,29,30
 721.083007812 738.778320312 721.083007812 738.778320312 720.05078125 695.622070312 c 1,31,32
 400.963867188 557.657226562 400.963867188 557.657226562 265.868164062 367.783203125 c 1,0,1
EndSplineSet
EndChar

StartChar: afii57397
Encoding: 1637 1637 61
Width: 1180
VWidth: 3521
GlyphClass: 2
Flags: W
LayerCount: 2
Fore
SplineSet
588.083984375 1085.37695312 m 1,0,1
 274.443359375 726.84765625 274.443359375 726.84765625 273.653320312 531.059570312 c 0,2,3
 272.505859375 293.645507812 272.505859375 293.645507812 579.124023438 296.450195312 c 0,4,5
 929.049804688 300.444335938 929.049804688 300.444335938 925.840820312 530.348632812 c 0,6,7
 922.251953125 780.153320312 922.251953125 780.153320312 588.083984375 1085.37695312 c 1,0,1
181.6171875 272.970703125 m 0,8,9
 84.62109375 436.297851562 84.62109375 436.297851562 184.657226562 699.337890625 c 0,10,11
 265.619140625 912.22265625 265.619140625 912.22265625 459.086914062 1138.11523438 c 6,12,-1
 485.235351562 1168.64550781 l 1,13,-1
 406.828125 1227.45214844 l 1,14,-1
 531.092773438 1440.69238281 l 1,15,16
 1021.2109375 983.538085938 1021.2109375 983.538085938 1046.05664062 554.466796875 c 0,17,18
 1060.41113281 303.41796875 1060.41113281 303.41796875 899.911132812 175.606445312 c 0,19,20
 791.890625 89.7783203125 791.890625 89.7783203125 583.512695312 89.1376953125 c 0,21,22
 291.111328125 88.7978515625 291.111328125 88.7978515625 181.6171875 272.970703125 c 0,8,9
EndSplineSet
EndChar

StartChar: afii57398
Encoding: 1638 1638 62
Width: 1326
VWidth: 3201
GlyphClass: 2
Flags: W
LayerCount: 2
Fore
SplineSet
960.790039062 1366.5625 m 1,0,1
 980.073242188 362.095703125 980.073242188 362.095703125 1168.42871094 162.818359375 c 1,2,-1
 1042.62597656 15.7109375 l 1,3,4
 947.008789062 112.020507812 947.008789062 112.020507812 891.220703125 330.23828125 c 0,5,6
 835.203125 549.342773438 835.203125 549.342773438 826.083984375 1126.27929688 c 1,7,8
 635.263671875 1087.08886719 635.263671875 1087.08886719 349.13671875 1095.21484375 c 0,9,10
 215.220703125 1099.01171875 215.220703125 1099.01171875 171.764648438 1141.45800781 c 128,-1,11
 128.30859375 1183.90527344 128.30859375 1183.90527344 127.368164062 1391.57324219 c 0,12,13
 127.151367188 1424.06542969 127.151367188 1424.06542969 152.750976562 1414.79003906 c 0,14,15
 459.11328125 1300.02636719 459.11328125 1300.02636719 960.790039062 1366.5625 c 1,0,1
EndSplineSet
EndChar

StartChar: afii57399
Encoding: 1639 1639 63
Width: 1171
VWidth: 3202
GlyphClass: 2
Flags: W
LayerCount: 2
Fore
SplineSet
1102.85058594 1260.16992188 m 1,0,1
 803.241210938 667.39453125 803.241210938 667.39453125 647.041992188 19.7314453125 c 1,2,-1
 536.290039062 19.7314453125 l 1,3,4
 379.591796875 639.842773438 379.591796875 639.842773438 80.8798828125 1261.49804688 c 1,5,-1
 178.580078125 1425.19824219 l 2,6,7
 187.521484375 1440.66015625 187.521484375 1440.66015625 198.03515625 1419.60546875 c 0,8,9
 469.796875 857.357421875 469.796875 857.357421875 591.544921875 373.686523438 c 1,10,11
 726.595703125 926.749023438 726.595703125 926.749023438 964.40625 1414.61132812 c 0,12,13
 974.987304688 1436.33203125 974.987304688 1436.33203125 986.2578125 1423.78027344 c 1,14,-1
 1102.85058594 1260.16992188 l 1,0,1
EndSplineSet
EndChar

StartChar: afii57400
Encoding: 1640 1640 64
Width: 1171
VWidth: 3202
GlyphClass: 2
Flags: W
LayerCount: 2
Fore
SplineSet
985.959960938 21.2333984375 m 2,0,1
 974.37890625 10.62109375 974.37890625 10.62109375 964.412109375 30.705078125 c 0,2,3
 737.658203125 472.181640625 737.658203125 472.181640625 591.546875 1071.64257812 c 1,4,5
 456.21875 531.599609375 456.21875 531.599609375 198.028320312 25.7138671875 c 0,6,7
 187.53515625 5.1259765625 187.53515625 5.1259765625 178.583984375 20.126953125 c 2,8,-1
 80.8798828125 183.834960938 l 1,9,10
 379.592773438 806.817382812 379.592773438 806.817382812 536.290039062 1425.59960938 c 1,11,-1
 647.041992188 1425.59960938 l 1,12,13
 803.403320312 777.266601562 803.403320312 777.266601562 1102.85058594 185.16015625 c 1,14,-1
 985.959960938 21.2333984375 l 2,0,1
EndSplineSet
EndChar

StartChar: afii57401
Encoding: 1641 1641 65
Width: 1044
VWidth: 3202
GlyphClass: 2
Flags: W
LayerCount: 2
Fore
SplineSet
643.711914062 689.280273438 m 1,0,1
 113.98046875 604.350585938 113.98046875 604.350585938 120.8671875 954.969726562 c 0,2,3
 125.006835938 1183.91503906 125.006835938 1183.91503906 210.135742188 1306.31933594 c 0,4,5
 325.616210938 1470.37304688 325.616210938 1470.37304688 491.137695312 1431.51074219 c 0,6,7
 568.366210938 1413.06054688 568.366210938 1413.06054688 629.024414062 1344.21191406 c 0,8,9
 754.297851562 1201.04589844 754.297851562 1201.04589844 763.05859375 966.52734375 c 0,10,11
 787.624023438 308.893554688 787.624023438 308.893554688 944.734375 162.061523438 c 1,12,-1
 820.612304688 15.9990234375 l 1,13,14
 760.0390625 68.119140625 760.0390625 68.119140625 718.923828125 168.674804688 c 0,15,16
 655.280273438 325.323242188 655.280273438 325.323242188 643.711914062 689.280273438 c 1,0,1
314.877929688 889.94140625 m 4,17,18
 414.875976562 845.62890625 414.875976562 845.62890625 623.646484375 891.412109375 c 1,19,-1
 617.950195312 950.599609375 l 2,20,21
 592.734375 1216.62988281 592.734375 1216.62988281 419.46484375 1215.91699219 c 0,22,23
 349.412109375 1215.63378906 349.412109375 1215.63378906 313.006835938 1160.77636719 c 128,-1,24
 276.6015625 1105.91992188 276.6015625 1105.91992188 268.498046875 1042.39453125 c 0,25,26
 252.4921875 916.927734375 252.4921875 916.927734375 314.877929688 889.94140625 c 4,17,18
EndSplineSet
EndChar

StartChar: afii57381
Encoding: 1642 1642 66
Width: 1517
VWidth: 3432
GlyphClass: 2
Flags: W
LayerCount: 2
Fore
SplineSet
923.860351562 389.670898438 m 0,0,1
 923.860351562 453.270507812 923.860351562 453.270507812 968.379882812 498.850585938 c 0,2,3
 1015.02050781 544.430664062 1015.02050781 544.430664062 1078.62011719 544.430664062 c 0,4,5
 1121.02050781 544.430664062 1121.02050781 544.430664062 1156 523.23046875 c 0,6,7
 1192.04003906 502.030273438 1192.04003906 502.030273438 1212.18066406 467.05078125 c 0,8,9
 1233.37988281 432.0703125 1233.37988281 432.0703125 1233.37988281 389.670898438 c 0,10,11
 1233.37988281 326.0703125 1233.37988281 326.0703125 1187.79980469 279.430664062 c 0,12,13
 1142.22070312 234.911132812 1142.22070312 234.911132812 1078.62011719 234.911132812 c 0,14,15
 1036.22070312 234.911132812 1036.22070312 234.911132812 1000.18066406 255.05078125 c 0,16,17
 964.140625 276.250976562 964.140625 276.250976562 944 311.23046875 c 0,18,19
 923.860351562 347.270507812 923.860351562 347.270507812 923.860351562 389.670898438 c 0,0,1
291.024414062 1246.92871094 m 0,20,21
 291.024414062 1310.52832031 291.024414062 1310.52832031 335.543945312 1356.10839844 c 0,22,23
 382.184570312 1401.68847656 382.184570312 1401.68847656 445.784179688 1401.68847656 c 0,24,25
 488.184570312 1401.68847656 488.184570312 1401.68847656 523.1640625 1380.48828125 c 0,26,27
 559.204101562 1359.28808594 559.204101562 1359.28808594 579.344726562 1324.30859375 c 0,28,29
 600.543945312 1289.328125 600.543945312 1289.328125 600.543945312 1246.92871094 c 0,30,31
 600.543945312 1183.328125 600.543945312 1183.328125 554.963867188 1136.68847656 c 0,32,33
 509.384765625 1092.16894531 509.384765625 1092.16894531 445.784179688 1092.16894531 c 0,34,35
 403.384765625 1092.16894531 403.384765625 1092.16894531 367.344726562 1112.30859375 c 0,36,37
 331.3046875 1133.50878906 331.3046875 1133.50878906 311.1640625 1168.48828125 c 0,38,39
 291.024414062 1204.52832031 291.024414062 1204.52832031 291.024414062 1246.92871094 c 0,20,21
1036.91377336 1545.51608352 m 1,40,-1
 1181.29627048 1471.1303186 l 1,41,-1
 434.471602393 25.5847540534 l 1,42,-1
 290.638225339 104.628381742 l 1,43,-1
 1036.91377336 1545.51608352 l 1,40,-1
EndSplineSet
EndChar

StartChar: uni066B
Encoding: 1643 1643 67
Width: 938
VWidth: 3435
GlyphClass: 2
Flags: W
LayerCount: 2
Fore
SplineSet
638.796875 639.668945312 m 1,0,-1
 758.693359375 565.4609375 l 1,1,-1
 185.013671875 -390.555664062 l 1,2,-1
 63.0546875 -309.609375 l 1,3,-1
 638.796875 639.668945312 l 1,0,-1
EndSplineSet
EndChar

StartChar: uni066C
Encoding: 1644 1644 68
Width: 539
VWidth: 3387
GlyphClass: 2
Flags: W
LayerCount: 2
Fore
SplineSet
254.901367188 302.616210938 m 0,0,1
 415.175400995 304.032893617 415.175400995 304.032893617 403.06640625 89.00390625 c 0,2,3
 388.198242188 -174.572265625 388.198242188 -174.572265625 126.916015625 -330.280273438 c 0,4,5
 77.3290087237 -359.858815448 77.3290087237 -359.858815448 55.146484375 -332.004882812 c 0,6,7
 45.6122130125 -318.045352969 45.6122130125 -318.045352969 67.6611328125 -301.541992188 c 0,8,9
 146.76953125 -243.913085938 146.76953125 -243.913085938 200.873046875 -158.330078125 c 128,-1,10
 254.9765625 -72.7470703125 254.9765625 -72.7470703125 248.471679688 -0.5205078125 c 1,11,-1
 222.151367188 3.568359375 l 1,12,13
 154.342773438 8.1044921875 154.342773438 8.1044921875 121.080078125 57.2299804688 c 128,-1,14
 87.8173828125 106.35546875 87.8173828125 106.35546875 101.057617188 173.573730469 c 128,-1,15
 114.297851562 240.791992188 114.297851562 240.791992188 160.704589844 271.899902344 c 128,-1,16
 207.111328125 303.0078125 207.111328125 303.0078125 254.901367188 302.616210938 c 0,0,1
EndSplineSet
EndChar

StartChar: afii63167
Encoding: 1645 1645 69
Width: 1734
VWidth: 3186
GlyphClass: 2
Flags: W
LayerCount: 2
Fore
SplineSet
218.536132812 1158.84375 m 1,0,-1
 714.16015625 1158.84375 l 1,1,-1
 868.931640625 1630.06054688 l 1,2,-1
 1023.70019531 1158.84375 l 1,3,-1
 1519.328125 1158.84375 l 1,4,-1
 1118.91503906 866.131835938 l 1,5,-1
 1272.1015625 395.526367188 l 1,6,-1
 868.931640625 686.861328125 l 1,7,-1
 465.758789062 395.526367188 l 1,8,-1
 618.944335938 866.131835938 l 1,9,-1
 218.536132812 1158.84375 l 1,0,-1
EndSplineSet
EndChar

StartChar: uni066E
Encoding: 1646 1646 70
Width: 1829
VWidth: 3745
GlyphClass: 2
Flags: W
AnchorPoint: "Anchor-10" 787.906 1271.55 basechar 0
AnchorPoint: "Anchor-7" 645.812 -212.49 basechar 0
LayerCount: 2
Fore
SplineSet
286.423828125 732.236328125 m 1,0,1
 253 608 253 608 253 516.235342347 c 0,2,3
 253 425 253 425 299.510742188 355.678150521 c 0,4,5
 408 196 408 196 804.015625 185.172851562 c 0,6,7
 1362 170 1362 170 1546.56835938 331.3046875 c 0,8,9
 1604 381 1604 381 1487.75878906 724.01953125 c 1,10,-1
 1570.046875 821.162109375 l 2,11,12
 1613 872 1613 872 1642.55859375 815.690429688 c 0,13,14
 1717 674 1717 674 1717.26367188 470.703125 c 4,15,16
 1717 357 1717 357 1674.35449219 267.594726562 c 0,17,18
 1546 2 1546 2 864.224609375 2 c 0,19,20
 486 2 486 2 307.02734375 100.59375 c 0,21,22
 104 213 104 213 104.250976562 457.86328125 c 0,23,24
 105 607 105 607 184.85546875 766.762695312 c 1,25,-1
 286.423828125 732.236328125 l 1,0,1
EndSplineSet
Substitution2: "'init' Initial Forms in Arabic lookup 13 subtable" uni066E.init
Substitution2: "'medi' Medial Forms in Arabic lookup 11 subtable" uni066E.medi
Substitution2: "'fina' Terminal Forms in Arabic lookup 9 subtable" uni066E.fina
EndChar

StartChar: uni066F
Encoding: 1647 1647 71
Width: 1402
VWidth: 3773
GlyphClass: 2
Flags: W
AnchorPoint: "Anchor-10" 547.298 1166.3 basechar 0
AnchorPoint: "Anchor-7" 567.936 -696.213 basechar 0
LayerCount: 2
Fore
SplineSet
979.712890625 553.1796875 m 0,0,1
 869 553 869 553 835.6328125 425.706054688 c 0,2,3
 810 327 810 327 845.282226562 303.391601562 c 0,4,5
 924 251 924 251 1092.87304688 277.8125 c 0,6,7
 1131 284 1131 284 1159.37597656 297.879882812 c 1,8,9
 1152 390 1152 390 1125.3125 447.2265625 c 0,10,11
 1097 506 1097 506 1062.41503906 529.704101562 c 0,12,13
 1027 553 1027 553 979.712890625 553.1796875 c 0,0,1
320.059570312 453.734375 m 1,14,15
 263 266 263 266 262.880859375 114.515625 c 0,16,17
 263 -258 263 -258 687.81640625 -257.944335938 c 0,18,19
 1001 -258 1001 -258 1123.20117188 -58.7724609375 c 0,20,21
 1155 -7 1155 -7 1160.0390625 103.715820312 c 1,22,23
 1019 73 1019 73 900.692382812 91.294921875 c 0,24,25
 694 123 694 123 694.240234375 327.806640625 c 0,26,27
 694 409 694 409 725.155008679 501.958268498 c 4,28,29
 757 598 757 598 811.958007812 664.232421875 c 0,30,31
 878 742 878 742 988.677734375 741.723632812 c 0,32,33
 1095 742 1095 742 1162.70117188 658.546875 c 0,34,35
 1297 491 1297 491 1297 190 c 128,-1,36
 1297 -111 1297 -111 1187.30566406 -240.540039062 c 0,37,38
 1021 -437 1021 -437 674.5 -434.5 c 0,39,40
 368 -432 368 -432 236.34765625 -290.58984375 c 0,41,42
 106 -150 106 -150 106.000976562 48.2353515625 c 0,43,44
 106 257 106 257 209.791992188 486.272460938 c 1,45,-1
 320.059570312 453.734375 l 1,14,15
EndSplineSet
Substitution2: "'init' Initial Forms in Arabic lookup 13 subtable" uni066F.init
Substitution2: "'medi' Medial Forms in Arabic lookup 11 subtable" uni066F.medi
Substitution2: "'fina' Terminal Forms in Arabic lookup 9 subtable" uni066F.fina
EndChar

StartChar: uni0670
Encoding: 1648 1648 72
Width: 0
VWidth: 2975
GlyphClass: 4
Flags: W
AnchorPoint: "Anchor-10" 756.062 1750.01 mark 0
AnchorPoint: "Anchor-9" 756.062 1750.01 mark 0
AnchorPoint: "Anchor-1" 744.304 2447.37 basemark 0
AnchorPoint: "Anchor-1" 756.062 1750.01 mark 0
LayerCount: 2
Fore
SplineSet
738.67578125 1809.56933594 m 1,0,-1
 684.276367188 2293.83203125 l 1,1,-1
 804.50390625 2364.63378906 l 1,2,-1
 804.50390625 1831.46679688 l 1,3,-1
 738.67578125 1809.56933594 l 1,0,-1
EndSplineSet
EndChar

StartChar: uni0674
Encoding: 1652 1652 73
Width: 802
VWidth: 2756
GlyphClass: 2
Flags: W
LayerCount: 2
Fore
SplineSet
205.618164062 1773.71875 m 1,0,-1
 226.764648438 1918.70507812 l 1,1,2
 288.693144646 1948.00458171 288.693144646 1948.00458171 336.619140625 1968.37402344 c 1,3,4
 185.59375 1999.14648438 185.59375 1999.14648438 203.297851562 2133.63964844 c 0,5,6
 235.728515625 2377.36523438 235.728515625 2377.36523438 435.756835938 2375.49902344 c 0,7,8
 531.266902741 2374.98036183 531.266902741 2374.98036183 605.873046875 2302.95019531 c 1,9,-1
 570.676757812 2222.19726562 l 1,10,11
 357.250841773 2278.42372407 357.250841773 2278.42372407 303.178710938 2167.67675781 c 0,12,13
 289.402676455 2139.46159406 289.402676455 2139.46159406 299.153320312 2117.02734375 c 0,14,15
 346.140625 2009.0078125 346.140625 2009.0078125 550.62109375 2060.33496094 c 0,16,17
 587.163085938 2069.51074219 587.163085938 2069.51074219 592.739746094 2064.77880859 c 0,18,19
 606.786782462 2052.85955201 606.786782462 2052.85955201 606.594726562 2032.3671875 c 2,20,-1
 605.750976562 1940.01269531 l 1,21,22
 496.353022275 1910.22564091 496.353022275 1910.22564091 205.618164062 1773.71875 c 1,0,-1
EndSplineSet
EndChar

StartChar: uni06A1
Encoding: 1697 1697 77
Width: 1768
VWidth: 3773
GlyphClass: 2
Flags: W
AnchorPoint: "Anchor-10" 749.706 1448.19 basechar 0
AnchorPoint: "Anchor-7" 623.293 -197.962 basechar 0
LayerCount: 2
Fore
SplineSet
286.430664062 732.233398438 m 1,0,1
 216 478 216 478 294.810546875 362.34765625 c 0,2,3
 397 212 397 212 804.01953125 195.971679688 c 0,4,5
 829 195 829 195 1003.40234375 195 c 128,-1,6
 1178 195 1178 195 1285.01660156 213.262695312 c 0,7,8
 1501.56249631 250.923910261 1501.56249631 250.923910261 1510.0703125 368.038085938 c 2,9,-1
 1512.07324219 395.609375 l 1,10,11
 1327 357 1327 357 1201.78027344 394.368164062 c 0,12,13
 1045.90665652 440.322336104 1045.90665652 440.322336104 1044.57901319 610 c 0,14,15
 1044 681 1044 681 1076.51953125 789.87890625 c 4,16,17
 1151 1034 1151 1034 1331.5 1034 c 0,18,19
 1447 1034 1447 1034 1515.09667969 950.297851562 c 0,20,21
 1665 763 1665 763 1656.34570312 408.060546875 c 0,22,23
 1647 2 1647 2 1001.59277344 2 c 2,24,-1
 905.678710938 2 l 2,25,26
 488 2 488 2 307.033203125 100.590820312 c 0,27,28
 103 212 103 212 104.25 457.831054688 c 0,29,30
 105 608 105 608 184.8515625 766.763671875 c 1,31,-1
 286.430664062 732.233398438 l 1,0,1
1332.82128906 845.237304688 m 0,32,33
 1230 845 1230 845 1190.97802734 724.935058594 c 128,-1,34
 1152 605 1152 605 1228.98632812 578.36328125 c 0,35,36
 1270 564 1270 564 1363.98974609 564.495117188 c 0,37,38
 1457 565 1457 565 1511.45703125 589.787109375 c 1,39,40
 1503 712 1503 712 1449.59277344 788.115234375 c 0,41,42
 1409 845 1409 845 1332.82128906 845.237304688 c 0,32,33
EndSplineSet
Substitution2: "'init' Initial Forms in Arabic lookup 13 subtable" uni06A1.init
Substitution2: "'medi' Medial Forms in Arabic lookup 11 subtable" uni06A1.medi
Substitution2: "'fina' Terminal Forms in Arabic lookup 9 subtable" uni06A1.fina
EndChar

StartChar: uni06A9
Encoding: 1705 1705 78
Width: 1962
VWidth: 3745
GlyphClass: 2
Flags: W
AnchorPoint: "Anchor-10" 587.484 1460.04 basechar 0
AnchorPoint: "Anchor-7" 594.53 -238.588 basechar 0
LayerCount: 2
Fore
SplineSet
1100.33789062 1047.86328125 m 1,0,1
 1532 689 1532 689 1628.86328125 522.51171875 c 0,2,3
 1671 450 1671 450 1649.92675781 355.356445312 c 0,4,5
 1598 123 1598 123 1205.22167969 37.54296875 c 0,6,7
 1042 2 1042 2 838.87890625 2 c 0,8,9
 477 2 477 2 305.037109375 98.587890625 c 0,10,11
 103 211 103 211 104.250976562 457.86328125 c 0,12,13
 105 607 105 607 184.85546875 766.762695312 c 1,14,-1
 286.431640625 732.233398438 l 1,15,16
 217 479 217 479 294.80859375 362.3515625 c 0,17,18
 409 192 409 192 750.796875 179.991210938 c 24,19,20
 1254 163 1254 163 1449.8984375 326.056640625 c 4,21,22
 1532 395 1532 395 1502.34534533 438.30683544 c 0,23,24
 1439 531 1439 531 948.01171875 945.607421875 c 1,25,26
 962 1090 962 1090 1006.47753906 1198.06347656 c 1,27,-1
 1869 1499.16210938 l 2,28,29
 1909.56086071 1512.8517863 1909.56086071 1512.8517863 1903.38574219 1471 c 2,30,-1
 1880.61230469 1316.65332031 l 1,31,-1
 1100.33789062 1047.86328125 l 1,0,1
EndSplineSet
Substitution2: "'init' Initial Forms in Arabic lookup 13 subtable" uniFB90
Substitution2: "'medi' Medial Forms in Arabic lookup 11 subtable" uniFB91
Substitution2: "'fina' Terminal Forms in Arabic lookup 9 subtable" uniFB8F
EndChar

StartChar: afii57509
Encoding: 1711 1711 79
Width: 2009
VWidth: 3749
GlyphClass: 2
Flags: W
AnchorPoint: "Anchor-10" 608.817 1493.24 basechar 0
AnchorPoint: "Anchor-7" 594.53 -235.388 basechar 0
LayerCount: 2
Fore
SplineSet
1063.47753906 1138.06347656 m 1,0,-1
 1926 1439.16210938 l 2,1,2
 1966.56086071 1452.8517863 1966.56086071 1452.8517863 1960.38574219 1411 c 2,3,-1
 1937.61230469 1256.65332031 l 1,4,-1
 1157.33789062 987.86328125 l 1,5,6
 1625 624 1625 624 1631.95117188 434.82421875 c 0,7,8
 1638 273 1638 273 1452.97949219 152.033203125 c 0,9,10
 1224 2 1224 2 835.678710938 2 c 0,11,12
 477 2 477 2 305.037109375 98.587890625 c 0,13,14
 104 211 104 211 104.250976562 457.86328125 c 0,15,16
 105 607 105 607 184.85546875 766.762695312 c 1,17,-1
 286.431640625 732.233398438 l 1,18,19
 217 479 217 479 294.80859375 362.3515625 c 0,20,21
 412 189 412 189 754.010742188 180.106445312 c 24,22,23
 1154 170 1154 170 1392.39257812 310.252929688 c 4,24,25
 1409 320 1409 320 1422.35742188 331.6953125 c 4,26,27
 1492 393 1492 393 1471.31738281 440.978515625 c 0,28,29
 1454 481 1454 481 1331.82617188 604.680664062 c 0,30,31
 1220 718 1220 718 994.115234375 895.482421875 c 1,32,33
 1011 1020 1011 1020 1063.47753906 1138.06347656 c 1,0,-1
EndSplineSet
Refer: 274 -1 N 1.1342 0 0 1.1342 1095.09 -666.187 2
Substitution2: "'init' Initial Forms in Arabic lookup 13 subtable" uniFB94
Substitution2: "'medi' Medial Forms in Arabic lookup 11 subtable" uniFB95
Substitution2: "'fina' Terminal Forms in Arabic lookup 9 subtable" uniFB93
EndChar

StartChar: afii57514
Encoding: 1722 1722 80
Width: 1425
VWidth: 3745
GlyphClass: 2
Flags: W
LayerCount: 2
Fore
SplineSet
1204.5625 607.572265625 m 0,0,1
 1336 287 1336 287 1312.05175781 109.443359375 c 0,2,3
 1243 -402 1243 -402 686.913085938 -402.161132812 c 0,4,5
 379 -402 379 -402 237.318359375 -250.16015625 c 0,6,7
 81 -81 81 -81 111.979492188 202.323242188 c 0,8,9
 127 344 127 344 210.064453125 521.631835938 c 1,10,-1
 320.326171875 489.094726562 l 1,11,12
 101 -226 101 -226 689.776367188 -222.57421875 c 4,13,14
 1004 -221 1004 -221 1123.4609375 -27.6904296875 c 0,15,16
 1172 51 1172 51 1143.74023438 175.741210938 c 0,17,18
 1126 256 1126 256 1038.72558594 468.235351562 c 1,19,-1
 1151.20410156 626.548828125 l 2,20,21
 1170 653 1170 653 1182.95696887 640.516223163 c 0,22,23
 1196 629 1196 629 1204.5625 607.572265625 c 0,0,1
EndSplineSet
Substitution2: "'init' Initial Forms in Arabic lookup 13 subtable" uni06BA.init
Substitution2: "'medi' Medial Forms in Arabic lookup 11 subtable" uni06BA.medi
Substitution2: "'fina' Terminal Forms in Arabic lookup 9 subtable" uniFB9F
EndChar

StartChar: uni06F4
Encoding: 1780 1780 87
Width: 1140
VWidth: 2927
GlyphClass: 2
Flags: W
LayerCount: 2
Fore
SplineSet
509.344726562 1016.25097656 m 1,0,1
 469.54296875 1145.75878906 469.54296875 1145.75878906 512.553710938 1253.13378906 c 0,2,3
 578.813476562 1416.41992188 578.813476562 1416.41992188 770.041992188 1415.86035156 c 0,4,5
 899.564453125 1415.41503906 899.564453125 1415.41503906 996.4140625 1299.35058594 c 1,6,-1
 957.004882812 1214.83886719 l 1,7,8
 753.981445312 1292.12304688 753.981445312 1292.12304688 662.620117188 1184.87109375 c 0,9,10
 618.71875 1132.98730469 618.71875 1132.98730469 619.21875 1055.10644531 c 0,11,12
 619.713867188 977.623046875 619.713867188 977.623046875 688.311523438 958.014648438 c 0,13,14
 825.35546875 918.841796875 825.35546875 918.841796875 1012.62695312 978.721679688 c 1,15,-1
 1036.95507812 831.215820312 l 1,16,17
 908.918945312 770.055664062 908.918945312 770.055664062 761.049804688 772.102539062 c 0,18,19
 547.30859375 775.037109375 547.30859375 775.037109375 423.870117188 874.592773438 c 1,20,21
 531.388671875 444.81640625 531.388671875 444.81640625 517.993164062 161.5625 c 0,22,23
 515.348632812 102.612304688 515.348632812 102.612304688 505.889648438 64.064453125 c 0,24,25
 503.162109375 52.8466796875 503.162109375 52.8466796875 405.200195312 27.73046875 c 1,26,27
 371.235351562 577.846679688 371.235351562 577.846679688 116.642578125 1268.64257812 c 1,28,-1
 238.522460938 1417.86816406 l 1,29,-1
 247.064453125 1424.37695312 l 1,30,31
 255.916015625 1427.18261719 255.916015625 1427.18261719 261.200195312 1411.22363281 c 2,32,-1
 323.840820312 1222.02832031 l 2,33,34
 372.181640625 1075.37695312 372.181640625 1075.37695312 509.344726562 1016.25097656 c 1,0,1
EndSplineSet
EndChar

StartChar: uni06F5
Encoding: 1781 1781 88
Width: 1202
VWidth: 3002
GlyphClass: 2
Flags: W
LayerCount: 2
Fore
SplineSet
645.6015625 465.672851562 m 1,0,1
 676.377929688 335.169921875 676.377929688 335.169921875 727.65234375 272.287109375 c 128,-1,2
 778.92578125 209.404296875 778.92578125 209.404296875 845.6640625 209.883789062 c 0,3,4
 1047.28320312 211.333984375 1047.28320312 211.333984375 921.78125 547.450195312 c 0,5,6
 815.81640625 832.290039062 815.81640625 832.290039062 575.158203125 1081.31445312 c 1,7,8
 446.481445312 886.3125 446.481445312 886.3125 402.131835938 803.2734375 c 0,9,10
 192.131835938 401.69140625 192.131835938 401.69140625 257.619140625 264.333007812 c 0,11,12
 284.051757812 208.889648438 284.051757812 208.889648438 362.471679688 209.78125 c 0,13,14
 512.594726562 211.33203125 512.594726562 211.33203125 576.21875 466.798828125 c 1,15,-1
 645.6015625 465.672851562 l 1,0,1
612.801757812 215.260742188 m 1,16,17
 542.505859375 25.1552734375 542.505859375 25.1552734375 362.241210938 25.244140625 c 0,18,19
 117.045898438 25.154296875 117.045898438 25.154296875 114.090820312 310.327148438 c 0,20,21
 110.153320312 661.48046875 110.153320312 661.48046875 467.743164062 1201.65917969 c 1,22,-1
 422.880859375 1242.0234375 l 1,23,-1
 510.795898438 1397.62109375 l 2,24,25
 526.91796875 1426.15234375 526.91796875 1426.15234375 554.090820312 1399.24511719 c 0,26,27
 1101.91015625 856.760742188 1101.91015625 856.760742188 1101.59277344 339.73828125 c 0,28,29
 1101.91894531 25.1494140625 1101.91894531 25.1494140625 853.1796875 25.646484375 c 0,30,31
 691.262695312 26.138671875 691.262695312 26.138671875 612.801757812 215.260742188 c 1,16,17
EndSplineSet
EndChar

StartChar: uni06F6
Encoding: 1782 1782 89
Width: 1031
VWidth: 3202
GlyphClass: 2
Flags: W
LayerCount: 2
Fore
SplineSet
754.625976562 1219.0390625 m 1,0,1
 614.268554688 1255.02246094 614.268554688 1255.02246094 551.01953125 1253.80664062 c 0,2,3
 412.729492188 1254.28222656 412.729492188 1254.28222656 332.94921875 1155.84863281 c 0,4,5
 256.888671875 1060.44433594 256.888671875 1060.44433594 300.095703125 995.822265625 c 0,6,7
 383.733398438 870.73046875 383.733398438 870.73046875 645.96484375 870.333007812 c 0,8,9
 675.28125 870.2890625 675.28125 870.2890625 722.595703125 903.334960938 c 0,10,11
 820.15234375 971.47265625 820.15234375 971.47265625 921.323242188 1005.35546875 c 0,12,13
 926.565429688 1007.45507812 926.565429688 1007.45507812 934.211914062 1005.54296875 c 128,-1,14
 941.857421875 1003.63085938 941.857421875 1003.63085938 935.780273438 977.415039062 c 2,15,-1
 893.491210938 794.998046875 l 1,16,17
 695.493164062 694.37109375 695.493164062 694.37109375 484.57421875 435.983398438 c 128,-1,18
 273.723632812 177.678710938 273.723632812 177.678710938 186.235351562 12.2197265625 c 1,19,-1
 112.798828125 101.709960938 l 1,20,21
 266.78125 461.209960938 266.78125 461.209960938 464.2421875 695.724609375 c 1,22,23
 143.791992188 742.904296875 143.791992188 742.904296875 143.892578125 1041.45117188 c 0,24,25
 143.791992188 1104.94628906 143.791992188 1104.94628906 176.423828125 1181.20703125 c 0,26,27
 289.833007812 1446.36523438 289.833007812 1446.36523438 542.040039062 1446.44433594 c 0,28,29
 686.938476562 1446.36621094 686.938476562 1446.36621094 803.365234375 1342.99707031 c 1,30,-1
 754.625976562 1219.0390625 l 1,0,1
EndSplineSet
EndChar

StartChar: uniFB8F
Encoding: 64399 64399 104
Width: 2153
VWidth: 3745
GlyphClass: 2
Flags: W
AnchorPoint: "Anchor-7" 573.197 -238.588 basechar 0
AnchorPoint: "Anchor-10" 577.484 1457.04 basechar 0
LayerCount: 2
Fore
SplineSet
1119.33789062 1047.86328125 m 1,0,1
 1398 808 1398 808 1692.00048828 494.499511719 c 128,-1,2
 1986.00091582 180.999023438 1986.00091582 180.999023438 2145.71289062 180.999023438 c 2,3,-1
 2165.40527344 180.999023438 l 1,4,-1
 2165.40527344 0 l 1,5,-1
 2146.13769531 0 l 2,6,7
 1914 0 1914 0 1641.57910156 319.446289062 c 1,8,9
 1626 262 1626 262 1568.19824219 202.689453125 c 0,10,11
 1375 -0 1375 -0 868.897460938 0.8798828125 c 4,12,13
 479 2 479 2 306.672851562 97.40625 c 0,14,15
 105 210 105 210 105.984375 457.84765625 c 0,16,17
 106 608 106 608 186.594726562 766.759765625 c 1,18,-1
 288.171875 732.234375 l 1,19,20
 216 480 216 480 300.622070312 356.138671875 c 0,21,22
 412 193 412 193 807.895507812 180.838867188 c 0,23,24
 1269 166 1269 166 1459.22558594 326.052734375 c 0,25,26
 1541 395 1541 395 1513.95117188 436.453125 c 0,27,28
 1473 498 1473 498 959.833007812 952.020507812 c 1,29,30
 969 1071 969 1071 1025.47753906 1198.06347656 c 1,31,-1
 1888 1499.16210938 l 2,32,33
 1928.56086071 1512.8517863 1928.56086071 1512.8517863 1922.38574219 1471 c 2,34,-1
 1899.61230469 1316.65332031 l 1,35,-1
 1119.33789062 1047.86328125 l 1,0,1
EndSplineSet
EndChar

StartChar: uniFB93
Encoding: 64403 64403 108
Width: 2130
VWidth: 3749
GlyphClass: 2
Flags: W
AnchorPoint: "Anchor-7" 594.53 -235.388 basechar 0
AnchorPoint: "Anchor-10" 608.817 1493.24 basechar 0
LayerCount: 2
Fore
SplineSet
1150.33789062 987.86328125 m 1,0,1
 1392 782 1392 782 1604.22265625 547.6796875 c 0,2,3
 1937.65779645 180.376961753 1937.65779645 180.376961753 2119.82617188 180.065429688 c 6,4,-1
 2144.95214844 180.022460938 l 5,5,-1
 2144.95214844 0 l 1,6,-1
 2122.37109375 0 l 2,7,8
 1859 0 1859 0 1615.44726562 298.611328125 c 1,9,10
 1533 168 1533 168 1323.51269531 84.564453125 c 0,11,12
 1117 2 1117 2 818.479492188 2 c 0,13,14
 101 2 101 2 101.051757812 461.053710938 c 0,15,16
 101 613 101 613 183.321289062 773.973632812 c 1,17,-1
 290.2890625 737.388671875 l 1,18,19
 223 494 223 494 289.62890625 372.852539062 c 0,20,21
 391 190 391 190 736.907226562 180.037109375 c 0,22,23
 1305 163 1305 163 1463.44628906 372.227539062 c 0,24,25
 1486 402 1486 402 1469.01269531 438.295410156 c 0,26,27
 1452 474 1452 474 1306.26855469 619.489257812 c 0,28,29
 1161 765 1161 765 993.80078125 895.725585938 c 1,30,31
 1008 1009 1008 1009 1056.47753906 1138.06347656 c 1,32,-1
 1919 1439.16210938 l 2,33,34
 1959.56086071 1452.8517863 1959.56086071 1452.8517863 1953.38574219 1411 c 2,35,-1
 1930.61230469 1256.65332031 l 1,36,-1
 1150.33789062 987.86328125 l 1,0,1
EndSplineSet
Refer: 274 -1 N 1.1342 0 0 1.1342 1095.09 -666.187 2
EndChar

StartChar: uniFB94
Encoding: 64404 64404 109
Width: 1044
VWidth: 3749
GlyphClass: 2
Flags: W
AnchorPoint: "Anchor-10" 280.398 1719.11 basechar 0
AnchorPoint: "Anchor-7" 334.15 -239.938 basechar 0
LayerCount: 2
Fore
SplineSet
180.337890625 987.86328125 m 1,0,1
 661 619 661 619 667.69140625 414.615234375 c 0,2,3
 672 274 672 274 577.831054688 175.669921875 c 0,4,5
 409.24871435 0.2587890625 409.24871435 0.2587890625 28.2861328125 0.2587890625 c 2,6,-1
 -15.8095703125 0.2587890625 l 1,7,-1
 -15.8095703125 179.961914062 l 5,8,-1
 28.306640625 179.961914062 l 6,9,10
 338 180 338 180 475.739257812 304.487304688 c 4,11,12
 536 359 536 359 520.668945312 408.97265625 c 0,13,14
 478 543 478 543 20.2587890625 890.170898438 c 1,15,16
 36 1007 36 1007 86.4775390625 1138.06347656 c 1,17,-1
 949 1439.16210938 l 2,18,19
 989.560860704 1452.8517863 989.560860704 1452.8517863 983.385742188 1411 c 2,20,-1
 960.612304688 1256.65332031 l 1,21,-1
 180.337890625 987.86328125 l 1,0,1
EndSplineSet
Refer: 274 -1 N 1.1342 0 0 1.1342 122.298 -667.187 2
EndChar

StartChar: uniFB95
Encoding: 64405 64405 110
Width: 1135
VWidth: 3749
GlyphClass: 2
Flags: W
AnchorPoint: "Anchor-10" 252.182 1712.34 basechar 0
AnchorPoint: "Anchor-7" 367.424 -213.288 basechar 0
LayerCount: 2
Fore
SplineSet
180.337890625 987.86328125 m 1,0,1
 470 746 470 746 649.6328125 535.532226562 c 0,2,3
 953.974848528 181.029296875 953.974848528 181.029296875 1127.82617188 181.029296875 c 2,4,-1
 1152.95800781 181.029296875 l 1,5,-1
 1152.95800781 0.2587890625 l 1,6,-1
 1114.38378906 0.2587890625 l 2,7,8
 900 0 900 0 661.083007812 295.890625 c 1,9,10
 626 208 626 208 522.217773438 126.797851562 c 0,11,12
 362.326997712 0.2587890625 362.326997712 0.2587890625 28.2861328125 0.2587890625 c 2,13,-1
 -15.8095703125 0.2587890625 l 1,14,-1
 -15.8095703125 179.961914062 l 5,15,-1
 28.306640625 179.961914062 l 6,16,17
 339 180 339 180 473.619140625 300.232421875 c 4,18,19
 545 365 545 365 517.505859375 408.08984375 c 0,20,21
 454 510 454 510 20.0205078125 890.400390625 c 1,22,23
 31 1021 31 1021 86.4775390625 1138.06347656 c 1,24,-1
 949 1439.16210938 l 2,25,26
 989.560860704 1452.8517863 989.560860704 1452.8517863 983.385742188 1411 c 2,27,-1
 960.612304688 1256.65332031 l 1,28,-1
 180.337890625 987.86328125 l 1,0,1
EndSplineSet
Refer: 274 -1 N 1.1342 0 0 1.1342 122.298 -667.187 2
EndChar

StartChar: uniFB9F
Encoding: 64415 64415 112
Width: 1507
VWidth: 3744
GlyphClass: 2
Flags: W
AnchorPoint: "Anchor-10" 580.655 1006.5 basechar 0
AnchorPoint: "Anchor-7" 455.87 -1007.65 basechar 0
LayerCount: 2
Fore
SplineSet
1271.33007812 279.373046875 m 0,0,1
 1323.0005404 185.999023438 1323.0005404 185.999023438 1480.828125 185.999023438 c 2,2,-1
 1520.19824219 185.999023438 l 1,3,-1
 1520.19824219 2 l 1,4,-1
 1490.578125 2 l 2,5,6
 1379 2 1379 2 1316.43554688 69.19140625 c 1,7,8
 1321 -3 1321 -3 1303 -88.0850487225 c 0,9,10
 1206 -540 1206 -540 685.975585938 -538.853515625 c 4,11,12
 374 -538 374 -538 240.803710938 -395.043945312 c 4,13,14
 81 -223 81 -223 111.591453417 47 c 0,15,16
 130 209 130 209 209.79296875 384.94140625 c 1,17,-1
 320.0546875 352.40234375 l 1,18,19
 263 165 263 165 262.880859375 13.18359375 c 0,20,21
 263 -359 263 -359 687.813476562 -359.276367188 c 4,22,23
 1003 -359 1003 -359 1123.19140625 -164.387695312 c 0,24,25
 1155 -113 1155 -113 1155 -28 c 0,26,27
 1155 37 1155 37 1037.66699219 328.455078125 c 1,28,-1
 1144.31640625 484.686523438 l 1,29,30
 1168 516 1168 516 1195.24511719 455.676757812 c 0,31,32
 1233 368 1233 368 1271.33007812 279.373046875 c 0,0,1
EndSplineSet
EndChar

StartChar: uniFBE8
Encoding: 64488 64488 115
Width: 632
VWidth: 3744
GlyphClass: 2
Flags: W
AnchorPoint: "Anchor-10" 323.261 1301.53 basechar 0
AnchorPoint: "Anchor-7" 350.876 -259.541 basechar 0
LayerCount: 2
Fore
SplineSet
373.413085938 347.4609375 m 0,0,1
 373 461 373 461 294.999023438 677.424804688 c 1,2,-1
 375.5078125 770.521484375 l 1,3,4
 421 821 421 821 447.17578125 765.8515625 c 0,5,6
 528 600 528 600 524.999023438 378.788085938 c 0,7,8
 523 234 523 234 443.703125 137.951171875 c 0,9,10
 330 0 330 0 100.708007812 0 c 2,11,-1
 -13.08984375 0 l 1,12,-1
 -13.08984375 179.999023438 l 5,13,-1
 97.8056640625 179.999023438 l 6,14,15
 374 180 374 180 373.413085938 347.4609375 c 0,0,1
EndSplineSet
EndChar

StartChar: uniFBE9
Encoding: 64489 64489 116
Width: 728
VWidth: 3744
GlyphClass: 2
Flags: W
AnchorPoint: "Anchor-10" 391.618 1159.37 basechar 0
AnchorPoint: "Anchor-7" 371.317 -218.507 basechar 0
LayerCount: 2
Fore
SplineSet
109.834960938 0 m 2,0,-1
 -12.337890625 0 l 1,1,-1
 -12.337890625 179.999023438 l 1,2,-1
 85.18359375 179.999023438 l 2,3,4
 327.272508352 180.000001101 327.272508352 180.000001101 344.15625 367.38671875 c 6,5,-1
 362.440429688 570.31640625 l 5,6,-1
 486.720703125 570.369140625 l 5,7,-1
 505.733398438 370.099609375 l 6,8,9
 524.000093838 179.999023438 524.000093838 179.999023438 724.682617188 179.999023438 c 6,10,-1
 740.821289062 179.999023438 l 5,11,-1
 740.821289062 0 l 5,12,-1
 715.583007812 0 l 6,13,14
 512 0 512 0 424.059570312 140.338867188 c 5,15,16
 323 0 323 0 109.834960938 0 c 2,0,-1
EndSplineSet
EndChar

StartChar: uniFE73
Encoding: 65139 65139 124
Width: 895
VWidth: 3435
GlyphClass: 2
Flags: W
AnchorPoint: "Anchor-10" 331.315 1985.89 basechar 0
AnchorPoint: "Anchor-7" 331.315 -200.464 basechar 0
LayerCount: 2
Fore
SplineSet
419.139648438 494.073242188 m 2,0,1
 419.139648438 387.400106073 419.139648438 387.400106073 507.176269531 298.834818661 c 128,-1,2
 595.212890625 210.26953125 595.212890625 210.26953125 808.9453125 210.26953125 c 2,3,-1
 900.182617188 210.26953125 l 1,4,-1
 900.182617188 2.6162109375 l 1,5,-1
 716.444335938 2.6162109375 l 2,6,7
 492.395729159 3.06738629985 492.395729159 3.06738629985 351.803710938 137.5703125 c 0,8,9
 211.489257812 272.225285733 211.489257812 272.225285733 211.489257812 473.893554688 c 2,10,-1
 211.489257812 511.309570312 l 1,11,-1
 419.139648438 511.309570312 l 1,12,-1
 419.139648438 494.073242188 l 2,0,1
EndSplineSet
EndChar

StartChar: uniFE8E
Encoding: 65166 65166 150
Width: 579
VWidth: 3705
GlyphClass: 2
Flags: W
AnchorPoint: "Anchor-10" 223.896 1686.31 basechar 0
AnchorPoint: "Anchor-7" 288.473 -229.464 basechar 0
LayerCount: 2
Fore
SplineSet
177.518554688 904.955078125 m 4,0,1
 179 1345 179 1345 167.987304688 1451.0390625 c 5,2,-1
 270.95703125 1506.05957031 l 6,3,4
 332 1539 332 1539 335.790039062 1457.14550781 c 4,5,6
 346 1241 346 1241 338.5 1000 c 4,7,8
 331 761 331 761 332.779296875 472.400390625 c 4,9,10
 334 304 334 304 378.942382812 242.354492188 c 4,11,12
 424.84222177 180.213605958 424.84222177 180.213605958 565.885742188 179.999023438 c 6,13,-1
 592.203125 179.958984375 l 5,14,-1
 592.203125 0 l 5,15,-1
 540.934570312 0 l 6,16,17
 227.170574229 1.64118718615e-13 227.170574229 1.64118718615e-13 189.728087355 349 c 4,18,19
 180 440 180 440 179.650390625 514.513671875 c 4,20,21
 178 898 178 898 177.518554688 904.955078125 c 4,0,1
EndSplineSet
EndChar

StartChar: uniFEA2
Encoding: 65186 65186 170
Width: 1339
VWidth: 3739
GlyphClass: 2
Flags: W
AnchorPoint: "Anchor-10" 609.972 1252.02 basechar 0
AnchorPoint: "Anchor-7" 464.402 -843.641 basechar 0
LayerCount: 2
Fore
SplineSet
801.056640625 -434.5703125 m 4,0,1
 941 -434 941 -434 1013.30175781 -424.803710938 c 4,2,3
 1086 -415 1086 -415 1122.97949219 -410.271484375 c 4,4,5
 1160 -405 1160 -405 1163.65722656 -404.83203125 c 5,6,-1
 1169.05078125 -405.8046875 l 5,7,8
 1171 -410 1171 -410 1171.64941406 -414.993164062 c 4,9,10
 1172 -420 1172 -420 1173.08398438 -427.620117188 c 6,11,-1
 1173.10351562 -427.8359375 l 5,12,13
 1180 -566 1180 -566 1153.94042969 -580.6796875 c 4,14,15
 1143 -587 1143 -587 1129.49511719 -589.377929688 c 4,16,17
 985 -614 985 -614 818.262695312 -614.439453125 c 4,18,19
 671 -615 671 -615 579.198242188 -599.077148438 c 4,20,21
 395 -568 395 -568 293.673828125 -472.556640625 c 4,22,23
 142 -330 142 -330 142.256835938 -112.819335938 c 4,24,25
 143 283 143 283 489.080078125 495.65234375 c 4,26,27
 614 572 614 572 795.495117188 608.938476562 c 5,28,29
 685 630 685 630 630.286132812 642.482421875 c 4,30,31
 415 691 415 691 345.723632812 668.673828125 c 4,32,33
 277 646 277 646 204.627929688 558.344726562 c 5,34,35
 156 576 156 576 112.594726562 605.782226562 c 5,36,37
 154 703 154 703 227.471240326 786.136798702 c 4,38,39
 301 869 301 869 404.666015625 864.3359375 c 4,40,41
 516 860 516 860 999.737304688 716.556640625 c 4,42,43
 1116 682 1116 682 1222.34667969 685.420898438 c 4,44,45
 1242.12779534 686.003765597 1242.12779534 686.003765597 1235.97753906 671.47265625 c 6,46,-1
 1164.41894531 502.40234375 l 5,47,48
 1091 494 1091 494 1017.98730469 485.309570312 c 5,49,50
 1039.00271921 190.961914062 1039.00271921 190.961914062 1324.82714844 190.961914062 c 6,51,-1
 1352.26269531 190.961914062 l 5,52,-1
 1352.26269531 0.2587890625 l 5,53,-1
 1335.97949219 0.2587890625 l 6,54,55
 925.049206755 3.09849248197e-05 925.049206755 3.09849248197e-05 887.879882812 423.126953125 c 6,56,-1
 884.426757812 462.436523438 l 5,57,58
 745 437 745 437 609.936523438 370.375 c 4,59,60
 288 212 288 212 288.993164062 -86.634765625 c 4,61,62
 290 -436 290 -436 801.056640625 -434.5703125 c 4,0,1
EndSplineSet
EndChar

StartChar: uniFEA3
Encoding: 65187 65187 171
Width: 1300
VWidth: 3745
GlyphClass: 2
Flags: W
AnchorPoint: "Anchor-10" 447.25 1250.14 basechar 0
AnchorPoint: "Anchor-7" 501.367 -226.896 basechar 0
LayerCount: 2
Fore
SplineSet
918.53125 426.1640625 m 1,0,1
 860 439 860 439 615 534.5 c 0,2,3
 473 590 473 590 387 590 c 0,4,5
 280 590 280 590 170 456 c 1,6,-1
 87.2333984375 496.524414062 l 1,7,-1
 96.2119140625 519.106445312 l 2,8,9
 200 779 200 779 418.768554688 777.661132812 c 0,10,11
 503 777 503 777 699.602539062 685.375 c 0,12,13
 1041 527 1041 527 1243.32226562 526.163085938 c 0,14,15
 1270.95490665 526.000265704 1270.95490665 526.000265704 1261.95605469 495.549804688 c 2,16,-1
 1217.49609375 345.10546875 l 1,17,18
 1059 341 1059 341 737.485351562 158.393554688 c 0,19,20
 458 0 458 0 162.451171875 0 c 2,21,-1
 -12.447265625 0 l 1,22,-1
 -12.447265625 179.999023438 l 5,23,-1
 195.760742188 179.999023438 l 6,24,25
 445.071324401 180.000000279 445.071324401 180.000000279 728.838867188 327.538085938 c 6,26,-1
 918.53125 426.1640625 l 1,0,1
EndSplineSet
EndChar

StartChar: uniFEA4
Encoding: 65188 65188 172
Width: 1316
VWidth: 3745
GlyphClass: 2
Flags: W
AnchorPoint: "Anchor-10" 487.542 1256.28 basechar 0
AnchorPoint: "Anchor-7" 535.822 -223.531 basechar 0
LayerCount: 2
Fore
SplineSet
797 198.516601562 m 1,0,1
 758 178 758 178 720 157 c 0,2,3
 422 0 422 0 162.451171875 0 c 2,4,-1
 -12.447265625 0 l 1,5,-1
 -12.447265625 179.999023438 l 1,6,-1
 195.760742188 179.999023438 l 2,7,8
 442.907182819 179.999999633 442.907182819 179.999999633 725 326 c 2,9,-1
 918.53125 426.1640625 l 1,10,11
 824 451 824 451 615 534.5 c 0,12,13
 476 590 476 590 390 590 c 0,14,15
 281 590 281 590 171 456 c 1,16,-1
 86.2333984375 496.286132812 l 1,17,-1
 94.2119140625 515.868164062 l 2,18,19
 201 779 201 779 418.768554688 777.661132812 c 0,20,21
 503 777 503 777 699.602539062 685.375 c 0,22,23
 1038 527 1038 527 1243.32226562 526.163085938 c 0,24,25
 1270.95490665 526.000265704 1270.95490665 526.000265704 1261.95605469 495.549804688 c 2,26,-1
 1217.49609375 345.10546875 l 1,27,28
 1110 343 1110 343 907 251 c 1,29,30
 907 179.999023438 907 179.999023438 1122.23828125 179.999023438 c 2,31,-1
 1329.60546875 179.999023438 l 1,32,-1
 1329.60546875 0 l 1,33,-1
 1139.60742188 0 l 2,34,35
 811 0 811 0 797 198.516601562 c 1,0,1
EndSplineSet
EndChar

StartChar: uniFEAA
Encoding: 65194 65194 178
Width: 1142
VWidth: 3737
GlyphClass: 2
Flags: W
AnchorPoint: "Anchor-10" 619.455 1319.65 basechar 0
AnchorPoint: "Anchor-7" 432.118 -263.355 basechar 0
LayerCount: 2
Fore
SplineSet
230.78515625 325.607421875 m 1,0,1
 230 307 230 307 230.291992188 303.686523438 c 0,2,3
 232 180 232 180 412.369140625 179.999023438 c 4,4,5
 572 180 572 180 672.318359375 242.181152344 c 0,6,7
 751 291 751 291 733.09765625 353.327148438 c 0,8,9
 729 367 729 367 725.0234375 382.133789062 c 2,10,-1
 573.29296875 877.983398438 l 1,11,-1
 671.33984375 992 l 2,12,13
 713.135422875 1041.15928219 713.135422875 1041.15928219 729.854492188 983 c 2,14,-1
 886.681640625 437.458007812 l 2,15,16
 960.000282492 183.999023438 960.000282492 183.999023438 1135.69726562 183.999023438 c 2,17,-1
 1155.53613281 183.999023438 l 1,18,-1
 1155.53613281 0 l 1,19,-1
 1131.90039062 0 l 2,20,21
 927 0 927 0 827.291992188 195.197265625 c 1,22,23
 696 -2 696 -2 411.872070312 0.154296875 c 0,24,25
 103 3 103 3 103.893554688 227.77734375 c 0,26,27
 104 258 104 258 122.610351562 336.577148438 c 1,28,-1
 230.78515625 325.607421875 l 1,0,1
EndSplineSet
EndChar

StartChar: uniFEAE
Encoding: 65198 65198 182
Width: 863
VWidth: 3744
GlyphClass: 2
Flags: W
AnchorPoint: "Anchor-10" 436.778 1029.68 basechar 0
AnchorPoint: "Anchor-7" 215.631 -768.881 basechar 0
LayerCount: 2
Fore
SplineSet
29.888671875 -430.697265625 m 4,0,1
 507 -310 507 -310 540.114257812 39.5673828125 c 4,2,3
 549 134 549 134 421.522460938 377.915039062 c 5,4,5
 488 465 488 465 511.811523438 493.811523438 c 4,6,7
 574 572 574 572 612.227539062 456 c 4,8,9
 661 309 661 309 665.290039062 298.109375 c 4,10,11
 705 179.999023438 705 179.999023438 838.29296875 179.999023438 c 6,12,-1
 876.125976562 179.999023438 l 5,13,-1
 876.125976562 0 l 5,14,-1
 843.346679688 0 l 6,15,16
 749 0 749 0 693.0078125 39.7099609375 c 5,17,18
 671 -101 671 -101 616.513671875 -208.618164062 c 4,19,20
 528 -380 528 -380 343.127929688 -482.723632812 c 4,21,22
 228 -547 228 -547 141.063476562 -569.716796875 c 4,23,24
 97 -581 97 -581 72.830078125 -559.856445312 c 4,25,26
 53.67578125 -542.224609375 53.67578125 -542.224609375 22.517578125 -489.0625 c 4,27,28
 -6 -440 -6 -440 29.888671875 -430.697265625 c 4,0,1
EndSplineSet
PairPos2: "'kern' Horizontal Kerning lookup 15-1" uniFEF3 dx=70 dy=0 dh=70 dv=0 dx=0 dy=0 dh=0 dv=0
PairPos2: "'kern' Horizontal Kerning lookup 15-1" uniFB58 dx=53 dy=0 dh=53 dv=0 dx=0 dy=0 dh=0 dv=0
PairPos2: "'kern' Horizontal Kerning lookup 15-1" uniFBFE dx=70 dy=0 dh=70 dv=0 dx=0 dy=0 dh=0 dv=0
PairPos2: "'kern' Horizontal Kerning lookup 15-4" uni0621 dx=-196 dy=0 dh=-196 dv=0 dx=0 dy=0 dh=0 dv=0
PairPos2: "'kern' Horizontal Kerning lookup 15-3" uni0648 dx=-43 dy=0 dh=-43 dv=0 dx=0 dy=0 dh=0 dv=0
PairPos2: "'kern' Horizontal Kerning lookup 15-1" uni0644 dx=-43 dy=0 dh=-43 dv=0 dx=0 dy=0 dh=0 dv=0
PairPos2: "'kern' Horizontal Kerning lookup 15-1" uni0642 dx=-43 dy=0 dh=-43 dv=0 dx=0 dy=0 dh=0 dv=0
PairPos2: "'kern' Horizontal Kerning lookup 15-1" uni0632 dx=-43 dy=0 dh=-43 dv=0 dx=0 dy=0 dh=0 dv=0
PairPos2: "'kern' Horizontal Kerning lookup 15-1" uni0631 dx=-43 dy=0 dh=-43 dv=0 dx=0 dy=0 dh=0 dv=0
PairPos2: "'kern' Horizontal Kerning lookup 15-1" uniFB8A dx=-43 dy=0 dh=-43 dv=0 dx=0 dy=0 dh=0 dv=0
PairPos2: "'kern' Horizontal Kerning lookup 15-1" afii57508 dx=-43 dy=0 dh=-43 dv=0 dx=0 dy=0 dh=0 dv=0
PairPos2: "'kern' Horizontal Kerning lookup 15-1" uniFB7C dx=-128 dy=0 dh=-128 dv=0 dx=0 dy=0 dh=0 dv=0
PairPos2: "'kern' Horizontal Kerning lookup 15-1" uni06CC dx=-43 dy=0 dh=-43 dv=0 dx=0 dy=0 dh=0 dv=0
PairPos2: "'kern' Horizontal Kerning lookup 15-1" uniFEEB dx=-128 dy=0 dh=-128 dv=0 dx=0 dy=0 dh=0 dv=0
PairPos2: "'kern' Horizontal Kerning lookup 15-1" uniFEDF dx=-128 dy=0 dh=-128 dv=0 dx=0 dy=0 dh=0 dv=0
PairPos2: "'kern' Horizontal Kerning lookup 15-1" uniFB90 dx=-213 dy=0 dh=-213 dv=0 dx=0 dy=0 dh=0 dv=0
PairPos2: "'kern' Horizontal Kerning lookup 15-1" uni06A9 dx=-213 dy=0 dh=-213 dv=0 dx=0 dy=0 dh=0 dv=0
PairPos2: "'kern' Horizontal Kerning lookup 15-1" uni0649 dx=-43 dy=0 dh=-43 dv=0 dx=0 dy=0 dh=0 dv=0
PairPos2: "'kern' Horizontal Kerning lookup 15-1" uni0647 dx=-128 dy=0 dh=-128 dv=0 dx=0 dy=0 dh=0 dv=0
PairPos2: "'kern' Horizontal Kerning lookup 15-1" uniFEE7 dx=-128 dy=0 dh=-128 dv=0 dx=0 dy=0 dh=0 dv=0
PairPos2: "'kern' Horizontal Kerning lookup 15-1" uniFEE3 dx=-128 dy=0 dh=-128 dv=0 dx=0 dy=0 dh=0 dv=0
PairPos2: "'kern' Horizontal Kerning lookup 15-1" uni0645 dx=-128 dy=0 dh=-128 dv=0 dx=0 dy=0 dh=0 dv=0
PairPos2: "'kern' Horizontal Kerning lookup 15-1" uniFEDB dx=-213 dy=0 dh=-213 dv=0 dx=0 dy=0 dh=0 dv=0
PairPos2: "'kern' Horizontal Kerning lookup 15-1" uniFED7 dx=-128 dy=0 dh=-128 dv=0 dx=0 dy=0 dh=0 dv=0
PairPos2: "'kern' Horizontal Kerning lookup 15-1" uniFED3 dx=-128 dy=0 dh=-128 dv=0 dx=0 dy=0 dh=0 dv=0
PairPos2: "'kern' Horizontal Kerning lookup 15-1" uni0641 dx=-128 dy=0 dh=-128 dv=0 dx=0 dy=0 dh=0 dv=0
PairPos2: "'kern' Horizontal Kerning lookup 15-1" uniFECF dx=-128 dy=0 dh=-128 dv=0 dx=0 dy=0 dh=0 dv=0
PairPos2: "'kern' Horizontal Kerning lookup 15-1" uniFECB dx=-128 dy=0 dh=-128 dv=0 dx=0 dy=0 dh=0 dv=0
PairPos2: "'kern' Horizontal Kerning lookup 15-1" uniFEC7 dx=-128 dy=0 dh=-128 dv=0 dx=0 dy=0 dh=0 dv=0
PairPos2: "'kern' Horizontal Kerning lookup 15-1" uni0638 dx=-128 dy=0 dh=-128 dv=0 dx=0 dy=0 dh=0 dv=0
PairPos2: "'kern' Horizontal Kerning lookup 15-1" uniFEC3 dx=-128 dy=0 dh=-128 dv=0 dx=0 dy=0 dh=0 dv=0
PairPos2: "'kern' Horizontal Kerning lookup 15-1" uni0637 dx=-128 dy=0 dh=-128 dv=0 dx=0 dy=0 dh=0 dv=0
PairPos2: "'kern' Horizontal Kerning lookup 15-1" uniFEBF dx=-128 dy=0 dh=-128 dv=0 dx=0 dy=0 dh=0 dv=0
PairPos2: "'kern' Horizontal Kerning lookup 15-1" uni0636 dx=-128 dy=0 dh=-128 dv=0 dx=0 dy=0 dh=0 dv=0
PairPos2: "'kern' Horizontal Kerning lookup 15-1" uniFEBB dx=-128 dy=0 dh=-128 dv=0 dx=0 dy=0 dh=0 dv=0
PairPos2: "'kern' Horizontal Kerning lookup 15-1" uni0635 dx=-128 dy=0 dh=-128 dv=0 dx=0 dy=0 dh=0 dv=0
PairPos2: "'kern' Horizontal Kerning lookup 15-1" uniFEB7 dx=-128 dy=0 dh=-128 dv=0 dx=0 dy=0 dh=0 dv=0
PairPos2: "'kern' Horizontal Kerning lookup 15-1" uni0634 dx=-128 dy=0 dh=-128 dv=0 dx=0 dy=0 dh=0 dv=0
PairPos2: "'kern' Horizontal Kerning lookup 15-1" uniFEB3 dx=-128 dy=0 dh=-128 dv=0 dx=0 dy=0 dh=0 dv=0
PairPos2: "'kern' Horizontal Kerning lookup 15-1" uni0633 dx=-128 dy=0 dh=-128 dv=0 dx=0 dy=0 dh=0 dv=0
PairPos2: "'kern' Horizontal Kerning lookup 15-1" uni0630 dx=-128 dy=0 dh=-128 dv=0 dx=0 dy=0 dh=0 dv=0
PairPos2: "'kern' Horizontal Kerning lookup 15-1" uni062F dx=-128 dy=0 dh=-128 dv=0 dx=0 dy=0 dh=0 dv=0
PairPos2: "'kern' Horizontal Kerning lookup 15-1" uniFEA7 dx=-128 dy=0 dh=-128 dv=0 dx=0 dy=0 dh=0 dv=0
PairPos2: "'kern' Horizontal Kerning lookup 15-1" uniFEA3 dx=-128 dy=0 dh=-128 dv=0 dx=0 dy=0 dh=0 dv=0
PairPos2: "'kern' Horizontal Kerning lookup 15-1" uniFE9F dx=-128 dy=0 dh=-128 dv=0 dx=0 dy=0 dh=0 dv=0
PairPos2: "'kern' Horizontal Kerning lookup 15-1" uniFE9B dx=-128 dy=0 dh=-128 dv=0 dx=0 dy=0 dh=0 dv=0
PairPos2: "'kern' Horizontal Kerning lookup 15-1" uni062B dx=-128 dy=0 dh=-128 dv=0 dx=0 dy=0 dh=0 dv=0
PairPos2: "'kern' Horizontal Kerning lookup 15-1" uniFE97 dx=-128 dy=0 dh=-128 dv=0 dx=0 dy=0 dh=0 dv=0
PairPos2: "'kern' Horizontal Kerning lookup 15-1" uni062A dx=-128 dy=0 dh=-128 dv=0 dx=0 dy=0 dh=0 dv=0
PairPos2: "'kern' Horizontal Kerning lookup 15-1" uni0629 dx=-128 dy=0 dh=-128 dv=0 dx=0 dy=0 dh=0 dv=0
PairPos2: "'kern' Horizontal Kerning lookup 15-1" uni0628 dx=-128 dy=0 dh=-128 dv=0 dx=0 dy=0 dh=0 dv=0
PairPos2: "'kern' Horizontal Kerning lookup 15-1" uni0627 dx=-196 dy=0 dh=-196 dv=0 dx=0 dy=0 dh=0 dv=0
PairPos2: "'kern' Horizontal Kerning lookup 15-1" uni0622 dx=-196 dy=0 dh=-196 dv=0 dx=0 dy=0 dh=0 dv=0
PairPos2: "'kern' Horizontal Kerning lookup 15-1" uniFB94 dx=-235 dy=0 dh=-235 dv=0 dx=0 dy=0 dh=0 dv=0
PairPos2: "'kern' Horizontal Kerning lookup 15-1" afii57509 dx=-235 dy=0 dh=-235 dv=0 dx=0 dy=0 dh=0 dv=0
PairPos2: "'kern' Horizontal Kerning lookup 15-1" uniFB56 dx=-128 dy=0 dh=-128 dv=0 dx=0 dy=0 dh=0 dv=0
PairPos2: "'kern' Horizontal Kerning lookup 15-1" afii57506 dx=-128 dy=0 dh=-128 dv=0 dx=0 dy=0 dh=0 dv=0
EndChar

StartChar: uniFEB2
Encoding: 65202 65202 186
Width: 2528
VWidth: 3744
GlyphClass: 2
Flags: W
AnchorPoint: "Anchor-10" 664.203 979.759 basechar 0
AnchorPoint: "Anchor-7" 383.613 -784.732 basechar 0
LayerCount: 2
Fore
SplineSet
1316.43554688 69.19140625 m 1,0,1
 1321 -5 1321 -5 1302 -92.6637296451 c 0,2,3
 1203 -540 1203 -540 685.975585938 -538.853515625 c 0,4,5
 374 -538 374 -538 240.803710938 -395.043945312 c 0,6,7
 62 -202 62 -202 122.117086365 116 c 0,8,9
 147 246 147 246 209.79296875 384.94140625 c 1,10,-1
 320.0546875 352.40234375 l 1,11,12
 263 165 263 165 262.880859375 13.18359375 c 0,13,14
 263 -359 263 -359 687.813476562 -359.276367188 c 0,15,16
 1003 -359 1003 -359 1123.19140625 -164.387695312 c 0,17,18
 1155 -113 1155 -113 1155 -28 c 0,19,20
 1155 37 1155 37 1037.66699219 328.455078125 c 1,21,-1
 1144.31640625 484.686523438 l 1,22,23
 1168 516 1168 516 1195.24511719 455.676757812 c 0,24,25
 1270 292 1270 292 1271.33007812 289.373046875 c 28,26,27
 1329 182 1329 182 1471.47167969 179.999023438 c 0,28,29
 1606.31153754 177.995370708 1606.31153754 177.995370708 1626.71484375 363.06640625 c 2,30,-1
 1643.06933594 511.412109375 l 1,31,-1
 1766.45996094 511.412109375 l 1,32,-1
 1782.04785156 366.885742188 l 2,33,34
 1803 171 1803 171 1951.59472656 170.5 c 0,35,36
 2093.74123377 170.000908556 2093.74123377 170.000908556 2109.21484375 367.270507812 c 2,37,-1
 2121.98828125 530.116210938 l 1,38,-1
 2250.12207031 530.116210938 l 1,39,-1
 2264.90820312 367.376953125 l 2,40,41
 2282.00008956 180.999023438 2282.00008956 180.999023438 2501.88671875 180.999023438 c 2,42,-1
 2540.92578125 180.999023438 l 1,43,-1
 2540.92578125 0 l 1,44,-1
 2496.86425781 0 l 2,45,46
 2252 0 2252 0 2187.86230469 140.819335938 c 1,47,48
 2097 -2 2097 -2 1945 -2 c 0,49,50
 1803 -2 1803 -2 1703.31152344 137.880859375 c 1,51,52
 1595 -3 1595 -3 1483.97460938 -2.015625 c 0,53,54
 1379 -1 1379 -1 1316.43554688 69.19140625 c 1,0,1
EndSplineSet
EndChar

StartChar: uniFEB3
Encoding: 65203 65203 187
Width: 1571
VWidth: 3744
GlyphClass: 2
Flags: W
AnchorPoint: "Anchor-10" 935.148 1112.27 basechar 0
AnchorPoint: "Anchor-7" 865.32 -263.321 basechar 0
LayerCount: 2
Fore
SplineSet
1153.99316406 180.349609375 m 12,0,1
 1321.78230178 179.996246483 1321.78230178 179.996246483 1319.68847656 343.302734375 c 4,2,3
 1319 397 1319 397 1241.27441406 613.266601562 c 5,4,-1
 1321.78320312 706.36328125 l 5,5,6
 1367 757 1367 757 1393.45117188 701.693359375 c 4,7,8
 1474 536 1474 536 1471.27441406 374.629882812 c 4,9,10
 1469 232 1469 232 1389.97851562 123.79296875 c 4,11,12
 1297 -4 1297 -4 1156.98339844 -1.158203125 c 28,13,14
 984 3 984 3 908.935546875 138.845703125 c 1,15,16
 801 -3 801 -3 666.145507812 -2.966796875 c 0,17,18
 495 -2 495 -2 418.49609375 138.840820312 c 1,19,20
 328 0 328 0 112.4453125 0 c 2,21,-1
 -12.9951171875 0 l 1,22,-1
 -12.9951171875 179.999023438 l 1,23,-1
 116.655273438 179.999023438 l 2,24,25
 325.755169118 179.999998858 325.755169118 179.999998858 346.140625 365.081054688 c 2,26,-1
 362.41796875 512.864257812 l 1,27,-1
 485.999023438 512.864257812 l 1,28,-1
 501.504882812 368.895507812 l 2,29,30
 522 182 522 182 667.267578125 179.998046875 c 0,31,32
 810.113798302 177.998406989 810.113798302 177.998406989 831.208984375 366.399414062 c 2,33,-1
 847.526367188 512.129882812 l 1,34,-1
 971.010742188 512.129882812 l 1,35,-1
 986.55859375 370.216796875 l 2,36,37
 1007 181 1007 181 1153.99316406 180.349609375 c 12,0,1
EndSplineSet
EndChar

StartChar: uniFEB4
Encoding: 65204 65204 188
Width: 1731
VWidth: 3744
GlyphClass: 2
Flags: W
AnchorPoint: "Anchor-7" 914.254 -267.588 basechar 0
AnchorPoint: "Anchor-10" 886.536 1035.47 basechar 0
LayerCount: 2
Fore
SplineSet
1706.18945312 0 m 2,0,1
 1461 0 1461 0 1393.45410156 156.162109375 c 1,2,3
 1319 0 1319 0 1163.63671875 1.001953125 c 0,4,5
 1010 2 1010 2 919.23828125 139.790039062 c 1,6,7
 825 1 825 1 669 1 c 0,8,9
 520 1 520 1 424.467773438 136.46484375 c 1,10,11
 330 0 330 0 120.116210938 0 c 2,12,-1
 -13.083984375 0 l 1,13,-1
 -13.083984375 179.999023438 l 1,14,-1
 126.655273438 179.999023438 l 2,15,16
 335.313818969 180.000001471 335.313818969 180.000001471 356.147460938 366.06640625 c 2,17,-1
 372.46484375 511.797851562 l 1,18,-1
 495.950195312 511.797851562 l 1,19,-1
 511.498046875 369.87890625 l 2,20,21
 532 180 532 180 674.794921875 181.998046875 c 0,22,23
 820.392431657 184.005410484 820.392431657 184.005410484 841.20703125 367.986328125 c 2,24,-1
 857.514648438 512.129882812 l 1,25,-1
 981.021484375 512.129882812 l 1,26,-1
 996.560546875 371.802734375 l 2,27,28
 1018 177 1018 177 1176.61425781 181.349609375 c 0,29,30
 1298.57000106 184.987174453 1298.57000106 184.987174453 1314.2890625 375.2421875 c 2,31,-1
 1327.05078125 529.703125 l 1,32,-1
 1455.2109375 529.703125 l 1,33,-1
 1469.98730469 375.331054688 l 2,34,35
 1489.00009554 180.999023438 1489.00009554 180.999023438 1706.96289062 180.999023438 c 2,36,-1
 1744.88183594 180.999023438 l 5,37,-1
 1744.88183594 0 l 1,38,-1
 1706.18945312 0 l 2,0,1
EndSplineSet
EndChar

StartChar: uniFEBA
Encoding: 65210 65210 194
Width: 2711
VWidth: 3745
GlyphClass: 2
Flags: W
AnchorPoint: "Anchor-7" 551.602 -834.642 basechar 0
AnchorPoint: "Anchor-10" 664.203 978.759 basechar 0
LayerCount: 2
Fore
SplineSet
1271.33007812 279.373046875 m 24,0,1
 1331 177 1331 177 1464.56640625 180.692382812 c 1,2,3
 1832 763 1832 763 2172.35839844 764.534179688 c 0,4,5
 2408 766 2408 766 2497.109375 577.494140625 c 0,6,7
 2567.50293001 428.246095592 2567.50293001 428.246095592 2486.92291095 271 c 4,8,9
 2462.43669004 223.216905892 2462.43669004 223.216905892 2421.73632812 181.623046875 c 1,10,-1
 2724.75878906 181.870117188 l 1,11,-1
 2724.75878906 0.0673828125 l 1,12,-1
 2607.39257812 0.0673828125 l 2,13,14
 2380 0 2380 0 2270.84375 90.3515625 c 1,15,16
 2092.82403888 -2.09137393963 2092.82403888 -2.09137393963 1833.98828125 -2.1064453125 c 2,17,-1
 1599.1875 -2.1201171875 l 2,18,19
 1405 -2 1405 -2 1316.43554688 69.19140625 c 1,20,21
 1321 -3 1321 -3 1303 -88.0850487225 c 0,22,23
 1206 -540 1206 -540 685.975585938 -538.853515625 c 0,24,25
 374 -538 374 -538 240.803710938 -395.043945312 c 0,26,27
 67 -208 67 -208 118.696072571 97 c 0,28,29
 142 236 142 236 209.79296875 384.94140625 c 1,30,-1
 320.0546875 352.40234375 l 1,31,32
 263 165 263 165 262.880859375 13.18359375 c 0,33,34
 263 -359 263 -359 687.813476562 -359.276367188 c 0,35,36
 1003 -359 1003 -359 1123.19140625 -164.387695312 c 0,37,38
 1155 -113 1155 -113 1155 -28 c 0,39,40
 1155 37 1155 37 1037.66699219 328.455078125 c 1,41,-1
 1144.31640625 484.686523438 l 1,42,43
 1169 517 1169 517 1195.24511719 455.676757812 c 0,44,45
 1271 280 1271 280 1271.33007812 279.373046875 c 24,0,1
1614.34179688 177.671875 m 1,46,-1
 1925.52539062 177.671875 l 2,47,48
 2201 178 2201 178 2311.70996094 272.962890625 c 0,49,50
 2374 327 2374 327 2360.43066406 417.23828125 c 0,51,52
 2335 593 2335 593 2158.43261719 588.02734375 c 0,53,54
 1954 581 1954 581 1614.34179688 177.671875 c 1,46,-1
EndSplineSet
EndChar

StartChar: uniFEBB
Encoding: 65211 65211 195
Width: 1756
VWidth: 3745
GlyphClass: 2
Flags: W
AnchorPoint: "Anchor-10" 921.956 1413.91 basechar 0
AnchorPoint: "Anchor-7" 662.342 -247.568 basechar 0
LayerCount: 2
Fore
SplineSet
719.841796875 179.698242188 m 5,0,-1
 1030.98144531 179.698242188 l 6,1,2
 1503.03222656 180.000976562 1503.03222656 180.000976562 1465.92285156 417.260742188 c 4,3,4
 1438 593 1438 593 1253.74121094 587.77734375 c 4,5,6
 1053 582 1053 582 719.841796875 179.698242188 c 5,0,-1
349.329101562 138.564453125 m 1,7,8
 255.174910869 -0.7412109375 255.174910869 -0.7412109375 28.1640625 -0.7412109375 c 2,9,-1
 -12.998046875 -0.7412109375 l 1,10,-1
 -12.998046875 179.961914062 l 1,11,-1
 9.4033203125 179.961914062 l 2,12,13
 264.07008331 180.000010484 264.07008331 180.000010484 279.373046875 391.895507812 c 2,14,-1
 292.100585938 568.129882812 l 1,15,-1
 410.33984375 568.129882812 l 1,16,-1
 425.078125 391.979492188 l 2,17,18
 441 199 441 199 570.114257812 182.815429688 c 5,19,20
 934 762 934 762 1277.84667969 764.559570312 c 4,21,22
 1514 766 1514 766 1602.60449219 577.509765625 c 4,23,24
 1634 511 1634 511 1632.05859375 426.03515625 c 4,25,26
 1628 244 1628 244 1465.23535156 124.552734375 c 4,27,28
 1291.91847481 -2.05955618093 1291.91847481 -2.05955618093 939.477539062 -2.080078125 c 6,29,-1
 704.678710938 -2.09375 l 6,30,31
 456 -2 456 -2 349.329101562 138.564453125 c 1,7,8
EndSplineSet
EndChar

StartChar: uniFEBC
Encoding: 65212 65212 196
Width: 1815
VWidth: 3745
GlyphClass: 2
Flags: W
AnchorPoint: "Anchor-10" 940.8 1326.63 basechar 0
AnchorPoint: "Anchor-7" 678.137 -236.413 basechar 0
LayerCount: 2
Fore
SplineSet
717.44140625 179.698242188 m 1,0,-1
 1028.58203125 179.698242188 l 2,1,2
 1500.05859375 180.000976562 1500.05859375 180.000976562 1463.52246094 417.260742188 c 0,3,4
 1436 593 1436 593 1251.34082031 587.77734375 c 0,5,6
 1050 582 1050 582 717.44140625 179.698242188 c 1,0,-1
702.278320312 -2.09375 m 2,7,8
 453.083638875 -2.10826005694 453.083638875 -2.10826005694 342.672851562 140.8046875 c 1,9,10
 249.170949987 -0.7412109375 249.170949987 -0.7412109375 28.1640625 -0.7412109375 c 2,11,-1
 -12.998046875 -0.7412109375 l 1,12,-1
 -12.998046875 179.961914062 l 1,13,-1
 9.4033203125 179.961914062 l 2,14,15
 261.464114726 180.000070256 261.464114726 180.000070256 278.040039062 391.889648438 c 2,16,-1
 291.827148438 568.129882812 l 1,17,-1
 409.018554688 568.129882812 l 1,18,-1
 423.74609375 391.96875 l 2,19,20
 440 199 440 199 567.713867188 182.814453125 c 1,21,22
 972 827 972 827 1367.7890625 757.470703125 c 0,23,24
 1534.40560086 727.749265719 1534.40560086 727.749265719 1597.61230469 601 c 4,25,26
 1639 518 1639 518 1626.28125 404.109375 c 0,27,28
 1611 268 1611 268 1524.75585938 179.323242188 c 1,29,-1
 1827.84863281 180.006835938 l 1,30,-1
 1827.84863281 0.09375 l 1,31,-1
 1710.48144531 0.09375 l 2,32,33
 1483 0 1483 0 1373.93554688 90.3779296875 c 1,34,35
 1195.87478171 -2.06500896621 1195.87478171 -2.06500896621 937.078125 -2.080078125 c 2,36,-1
 702.278320312 -2.09375 l 2,7,8
EndSplineSet
EndChar

StartChar: uniFEC2
Encoding: 65218 65218 202
Width: 1687
VWidth: 3745
GlyphClass: 2
Flags: W
AnchorPoint: "Anchor-10" 499.975 1626.06 basechar 0
AnchorPoint: "Anchor-7" 797.173 -236.469 basechar 0
LayerCount: 2
Fore
SplineSet
579.793945312 181.791015625 m 1,0,-1
 890.946289062 181.791015625 l 2,1,2
 1360 182 1360 182 1325.88769531 419.346679688 c 0,3,4
 1301 595 1301 595 1120.23828125 590.107421875 c 0,5,6
 912 584 912 584 579.793945312 181.791015625 c 1,0,-1
270.198242188 -0.7431640625 m 1,7,8
 112 124 112 124 106.084960938 159.323242188 c 1,9,-1
 101.7890625 159.323242188 l 1,10,-1
 101.7890625 169.323242188 l 1,11,-1
 106.607421875 169.323242188 l 1,12,13
 110.858946183 179.657149538 110.858946183 179.657149538 134.399414062 179.657226562 c 2,14,-1
 432.862304688 179.658203125 l 1,15,16
 465 234 465 234 497.756835938 288.345703125 c 1,17,18
 497 343 497 343 473.5 836 c 128,-1,19
 450 1329 450 1329 425.545898438 1443.48144531 c 1,20,-1
 551.046875 1501.52148438 l 2,21,22
 613.83436214 1530.92243819 613.83436214 1530.92243819 614.983398438 1459.04785156 c 2,23,-1
 631.059570312 453.450195312 l 1,24,25
 898 766 898 766 1136 767 c 128,-1,26
 1374 768 1374 768 1462.57714844 579.588867188 c 4,27,28
 1494 513 1494 513 1492.203125 433.493164062 c 4,29,30
 1490 288 1490 288 1384.1796875 179.3828125 c 1,31,-1
 1699.48144531 180.198242188 l 1,32,-1
 1699.48144531 0.6103515625 l 1,33,-1
 1598.90429688 0.6103515625 l 2,34,35
 1474 1 1474 1 1240.00976562 87.44140625 c 1,36,37
 1065.05831892 0.0291383058412 1065.05831892 0.0291383058412 799.443359375 0.013671875 c 2,38,-1
 564.647460938 0 l 1,39,-1
 270.198242188 -0.7431640625 l 1,7,8
EndSplineSet
EndChar

StartChar: uniFEC3
Encoding: 65219 65219 203
Width: 1352
VWidth: 3745
GlyphClass: 2
Flags: W
AnchorPoint: "Anchor-7" 502.774 -230.068 basechar 0
AnchorPoint: "Anchor-10" 231.176 1614.33 basechar 0
LayerCount: 2
Fore
SplineSet
315.731445312 190.439453125 m 1,0,-1
 626.875976562 180.439453125 l 1,1,2
 1034 179 1034 179 1062.42480469 367.409179688 c 0,3,4
 1066 391 1066 391 1061.82714844 418.001953125 c 0,5,6
 1034 594 1034 594 856.169921875 588.755859375 c 0,7,8
 642 582 642 582 315.731445312 190.439453125 c 1,0,-1
233.696289062 287.015625 m 1,9,10
 190 1289 190 1289 161.510742188 1442.15136719 c 1,11,-1
 286.04296875 1499.35644531 l 2,12,13
 350.28384716 1529.13156081 350.28384716 1529.13156081 351.154296875 1473.04785156 c 2,14,-1
 367 452.09765625 l 1,15,16
 636 765 636 765 876.810546875 765.502929688 c 0,17,18
 1108 766 1108 766 1198.50683594 578.25390625 c 4,19,20
 1229 515 1229 515 1228.14257812 432.131835938 c 4,21,22
 1225 244 1225 244 1061.25537109 125.067871094 c 0,23,24
 887.562476086 -1.31836074109 887.562476086 -1.31836074109 535.381835938 -1.3388671875 c 2,25,-1
 300.579101562 -1.3525390625 l 1,26,-1
 -12.5654296875 0.1640625 l 1,27,-1
 -12.037109375 180.416015625 l 1,28,-1
 168.813476562 180.299804688 l 1,29,-1
 233.696289062 287.015625 l 1,9,10
EndSplineSet
EndChar

StartChar: uniFEC4
Encoding: 65220 65220 204
Width: 1422
VWidth: 3745
GlyphClass: 2
Flags: W
AnchorPoint: "Anchor-7" 496.374 -224.802 basechar 0
AnchorPoint: "Anchor-10" 224.776 1626 basechar 0
LayerCount: 2
Fore
SplineSet
365.931640625 453.090820312 m 1,0,1
 636 766 636 766 874.94921875 766.194335938 c 0,2,3
 1109 766 1109 766 1198.52246094 579.223632812 c 4,4,5
 1231 512 1231 512 1227.15234375 440.520507812 c 4,6,7
 1218 279 1218 279 1120.15234375 180.030273438 c 1,8,-1
 1435.41992188 180.846679688 l 1,9,-1
 1435.41992188 0.2587890625 l 1,10,-1
 1334.84570312 0.2587890625 l 2,11,12
 1125 0 1125 0 975.93359375 91.0712890625 c 1,13,14
 791.922241102 -2.03934637883 791.922241102 -2.03934637883 535.374023438 -1.3388671875 c 2,15,-1
 -12.5654296875 0.1572265625 l 1,16,-1
 -12.037109375 180.416015625 l 1,17,-1
 168.798828125 180.299804688 l 1,18,-1
 232.6328125 288.0078125 l 1,19,20
 189 1290 189 1290 160.423828125 1443.13476562 c 1,21,-1
 293.044921875 1507.30273438 l 2,22,23
 348.116676128 1534.05668145 348.116676128 1534.05668145 349.9296875 1424.04785156 c 2,24,-1
 365.931640625 453.090820312 l 1,0,1
315.731445312 181.439453125 m 1,25,-1
 626.875976562 181.439453125 l 2,26,27
 990 181 990 181 1054.22851562 338.2265625 c 0,28,29
 1069 374 1069 374 1061.82714844 419.001953125 c 0,30,31
 1034 595 1034 595 856.169921875 589.755859375 c 0,32,33
 651 583 651 583 315.731445312 181.439453125 c 1,25,-1
EndSplineSet
EndChar

StartChar: uniFECA
Encoding: 65226 65226 210
Width: 1323
VWidth: 3739
GlyphClass: 2
Flags: W
AnchorPoint: "Anchor-10" 606.396 1323.45 basechar 0
AnchorPoint: "Anchor-7" 497.724 -865.26 basechar 0
LayerCount: 2
Fore
SplineSet
664.94921875 580.368164062 m 5,0,1
 617.950680295 682.10676327 617.950680295 682.10676327 353.096679688 683.58203125 c 2,2,-1
 350.116210938 683.598632812 l 1,3,-1
 349.991210938 810.005859375 l 1,4,5
 454 876 454 876 749.80859375 873.9375 c 0,6,7
 1048 872 1048 872 1048.52636719 729.6796875 c 0,8,9
 1049 591 1049 591 836.918945312 477.856445312 c 1,10,11
 911.942397774 180.228515625 911.942397774 180.228515625 1288.66113281 180.228515625 c 2,12,-1
 1335.34082031 180.228515625 l 1,13,-1
 1335.34082031 0.2587890625 l 1,14,-1
 1299.81933594 0.2587890625 l 2,15,16
 779.221899065 0.000110259060648 779.221899065 0.000110259060648 728.247070312 417.190429688 c 2,17,-1
 726.598632812 430.681640625 l 1,18,19
 654.767772781 413.005594236 654.767772781 413.005594236 579.0078125 370.376953125 c 0,20,21
 246 183 246 183 258.326171875 -119.661132812 c 0,22,23
 271 -451 271 -451 850.809570312 -433.028320312 c 0,24,25
 915 -431 915 -431 982.706054688 -422.513671875 c 0,26,27
 1050 -414 1050 -414 1135.76269531 -404.5 c 1,28,29
 1141 -414 1141 -414 1139.50488281 -469.344726562 c 0,30,31
 1137 -563 1137 -563 1121.48828125 -576.024414062 c 0,32,33
 1080 -614 1080 -614 743.59765625 -614.329101562 c 0,34,35
 415 -615 415 -615 262.877929688 -472.431640625 c 0,36,37
 111 -329 111 -329 111.323242188 -132.8203125 c 0,38,39
 111.853074311 184.112572041 111.853074311 184.112572041 323.473423948 390 c 0,40,41
 478.078898384 540.417119783 478.078898384 540.417119783 664.94921875 580.368164062 c 5,0,1
EndSplineSet
EndChar

StartChar: uniFECB
Encoding: 65227 65227 211
Width: 1140
VWidth: 3739
GlyphClass: 2
Flags: W
AnchorPoint: "Anchor-10" 555.836 1414.17 basechar 0
AnchorPoint: "Anchor-7" 508.066 -231.427 basechar 0
LayerCount: 2
Fore
SplineSet
893.728515625 628.19140625 m 1,0,1
 744 686 744 686 664.655273438 686.245117188 c 0,2,3
 467 686 467 686 352.173828125 540.424804688 c 0,4,5
 324 505 324 505 324.1875 477.553710938 c 0,6,7
 324 379 324 379 424.0546875 305.606445312 c 0,8,9
 528 228 528 228 549.029296875 227.478515625 c 0,10,11
 599.376836351 228.00393259 599.376836351 228.00393259 852.681640625 282.788085938 c 2,12,-1
 994.16015625 313.38671875 l 1,13,14
 1038.18354398 324.044434553 1038.18354398 324.044434553 1032.39550781 290.987304688 c 2,15,-1
 1006.95605469 145.6953125 l 1,16,17
 611.703310864 0.2587890625 611.703310864 0.2587890625 62.5625 0.2587890625 c 2,18,-1
 -12.9169921875 0.2587890625 l 1,19,-1
 -12.9169921875 179.961914062 l 1,20,-1
 326.38671875 179.999023438 l 1,21,22
 184 287 184 287 184.623046875 451.879882812 c 0,23,24
 185 606 185 606 276 718 c 0,25,26
 423 899 423 899 684 866.462890625 c 4,27,28
 840 847 840 847 940.186523438 749.42578125 c 5,29,-1
 893.728515625 628.19140625 l 1,0,1
EndSplineSet
EndChar

StartChar: uniFECC
Encoding: 65228 65228 212
Width: 1019
VWidth: 3741
GlyphClass: 2
Flags: W
AnchorPoint: "Anchor-10" 470.738 1239.06 basechar 0
AnchorPoint: "Anchor-7" 459.112 -231.153 basechar 0
LayerCount: 2
Fore
SplineSet
655 305.572265625 m 5,0,1
 797.043414183 180.961914062 797.043414183 180.961914062 1013.73242188 180.961914062 c 2,2,-1
 1032.28515625 180.961914062 l 1,3,-1
 1032.28515625 1 l 1,4,-1
 939.689453125 1 l 2,5,6
 723 1 723 1 565.125 185.731445312 c 1,7,8
 357.28999114 0.2587890625 357.28999114 0.2587890625 122.096679688 0.2587890625 c 2,9,-1
 -13.05078125 0.2587890625 l 1,10,-1
 -13.05078125 179.961914062 l 1,11,-1
 13.5791015625 179.961914062 l 2,12,13
 365 180 365 180 492.078125 319.1796875 c 5,14,15
 440 478 440 478 175.420898438 497.96484375 c 5,16,-1
 175.319335938 613.874023438 l 5,17,18
 288 683 288 683 530 683.619140625 c 4,19,20
 678 684 678 684 767.1875 639.69140625 c 4,21,22
 842 602 842 602 835.87109375 545.641601562 c 4,23,24
 827 455 827 455 655 305.572265625 c 5,0,1
EndSplineSet
EndChar

StartChar: uniFEDA
Encoding: 65242 65242 226
Width: 2016
VWidth: 3705
GlyphClass: 2
Flags: W
AnchorPoint: "Anchor-10" 579.215 1632.87 basechar 0
AnchorPoint: "Anchor-7" 610.608 -244.552 basechar 0
LayerCount: 2
Fore
SplineSet
1646.16308594 221.909179688 m 1,0,1
 1459 1 1459 1 875.678710938 1 c 0,2,3
 486 1 486 1 307.033203125 99.5908203125 c 0,4,5
 108 209 108 209 106.384765625 456.854492188 c 0,6,7
 106 604 106 604 186.990234375 765.76171875 c 1,8,-1
 288.563476562 731.234375 l 1,9,10
 191 374 191 374 406.020507812 264.426757812 c 4,11,12
 555 188 555 188 774.018554688 180.97265625 c 4,13,14
 1290 166 1290 166 1533.9453125 319.944335938 c 0,15,16
 1572 344 1572 344 1578 401 c 128,-1,17
 1584 458 1584 458 1582.99951172 688.512207031 c 128,-1,18
 1582 919 1582 919 1565.00585938 1144.29980469 c 0,19,20
 1548 1370 1548 1370 1543.87304688 1408.42675781 c 1,21,-1
 1695.02050781 1501.45019531 l 2,22,23
 1731.86603209 1523.91830742 1731.86603209 1523.91830742 1731.89941406 1478.92480469 c 2,24,-1
 1732.58886719 549.653320312 l 2,25,26
 1732.9997812 190.19140625 1732.9997812 190.19140625 1973.01269531 190.19140625 c 2,27,-1
 2028.19726562 190.19140625 l 1,28,-1
 2028.19726562 0.12890625 l 1,29,-1
 1993.41894531 0.12890625 l 2,30,31
 1712 0 1712 0 1646.16308594 221.909179688 c 1,0,1
848.966796875 1196.08984375 m 0,32,33
 847.14453125 1150.58203125 847.14453125 1150.58203125 1004.56396484 1123.05273438 c 128,-1,34
 1161.98339844 1095.5234375 1161.98339844 1095.5234375 1162.99853516 942.706054688 c 128,-1,35
 1164.01367188 789.888671875 1164.01367188 789.888671875 1018.08007812 737.928710938 c 0,36,37
 957.23828125 716.169921875 957.23828125 716.169921875 862.77734375 719.596679688 c 128,-1,38
 768.405451073 723.019393167 768.405451073 723.019393167 669.856445312 754.34375 c 1,39,-1
 683.578125 894.89453125 l 1,40,41
 794.476195703 856.006634808 794.476195703 856.006634808 885.769347852 857.31435256 c 0,42,43
 1064.41577635 859.873351789 1064.41577635 859.873351789 1075.1953125 928.447265625 c 0,44,45
 1077.43457031 943.615234375 1077.43457031 943.615234375 1063.83007812 957.377929688 c 0,46,47
 1035.54408365 985.992878301 1035.54408365 985.992878301 939.595703125 1007.00195312 c 0,48,49
 765.928710938 1044.59570312 765.928710938 1044.59570312 770.80859375 1212.73046875 c 0,50,51
 776.073242188 1408.76367188 776.073242188 1408.76367188 1088.7578125 1435.15136719 c 0,52,53
 1098.88267734 1436 1098.88267734 1436 1104.06096757 1436 c 128,-1,54
 1109.23925781 1436 1109.23925781 1436 1111.69238281 1435.79882812 c 0,55,56
 1143.1194949 1433.20909397 1143.1194949 1433.20909397 1131.62695312 1400.31835938 c 2,57,-1
 1094.68066406 1294.578125 l 1,58,59
 850.8826937 1270.02293374 850.8826937 1270.02293374 848.966796875 1196.08984375 c 0,32,33
EndSplineSet
EndChar

StartChar: uniFEDB
Encoding: 65243 65243 227
Width: 1044
VWidth: 3745
GlyphClass: 2
Flags: W
AnchorPoint: "Anchor-10" 276.736 1613.92 basechar 0
AnchorPoint: "Anchor-7" 335.081 -261.885 basechar 0
LayerCount: 2
Fore
SplineSet
23.3369140625 950.484375 m 1,0,1
 41 1082 41 1082 86.4775390625 1198.06347656 c 1,2,-1
 949 1499.16181282 l 2,3,4
 989.560763811 1512.85175042 989.560763811 1512.85175042 983.385670128 1471 c 2,5,-1
 960.612304688 1316.65332031 l 1,6,-1
 180.337890625 1047.86328125 l 1,7,8
 704 632 704 632 708.224609375 413.499023438 c 0,9,10
 711 269 711 269 619.263671875 173.694335938 c 0,11,12
 449 0 449 0 96.552734375 0 c 2,13,-1
 -12.609375 0 l 1,14,-1
 -12.609375 179.999023438 l 5,15,-1
 96.5732421875 179.999023438 l 6,16,17
 374 180 374 180 514.095703125 297.864257812 c 4,18,19
 569 344 569 344 567.43359375 405.891601562 c 0,20,21
 564 497 564 497 23.3369140625 950.484375 c 1,0,1
EndSplineSet
EndChar

StartChar: uniFEDC
Encoding: 65244 65244 228
Width: 1211
VWidth: 3745
GlyphClass: 2
Flags: W
AnchorPoint: "Anchor-10" 254.919 1599.12 basechar 0
AnchorPoint: "Anchor-7" 404.945 -250.381 basechar 0
LayerCount: 2
Fore
SplineSet
180.337890625 1047.86328125 m 1,0,1
 473 795 473 795 759.3984375 496.854003906 c 0,2,3
 1062.74548478 180.265625 1062.74548478 180.265625 1203.55957031 180.265625 c 6,4,-1
 1225.49121094 180.265625 l 5,5,-1
 1225.49121094 0 l 1,6,-1
 1203.9765625 0 l 2,7,8
 966 0 966 0 706.791992188 315.80859375 c 1,9,10
 645 171 645 171 482.638671875 78.162109375 c 0,11,12
 346 0 346 0 95.486328125 0 c 2,13,-1
 -12.609375 0 l 1,14,-1
 -12.609375 179.999023438 l 5,15,-1
 95.5068359375 179.999023438 l 6,16,17
 370 180 370 180 513.030273438 306.399414062 c 4,18,19
 599 382 599 382 567.137695312 434.953125 c 0,20,21
 503 539 503 539 21.4775390625 952.451171875 c 1,22,23
 36 1071 36 1071 86.4775390625 1198.06347656 c 1,24,-1
 949 1499.16210938 l 2,25,26
 989.560860704 1512.8517863 989.560860704 1512.8517863 983.385742188 1471 c 2,27,-1
 960.612304688 1316.65332031 l 1,28,-1
 180.337890625 1047.86328125 l 1,0,1
EndSplineSet
EndChar

StartChar: uniFEDE
Encoding: 65246 65246 230
Width: 1449
VWidth: 3705
GlyphClass: 2
Flags: W
AnchorPoint: "Anchor-10" 581.374 1218.89 basechar 0
AnchorPoint: "Anchor-7" 542.521 -853.186 basechar 0
LayerCount: 2
Fore
SplineSet
1225.76660156 88.3427734375 m 1,0,1
 1227 -535 1227 -535 676.587890625 -535.586914062 c 0,2,3
 375 -536 375 -536 237.0546875 -387.856445312 c 0,4,5
 77 -215 77 -215 111.71484375 65.63671875 c 0,6,7
 115 92 115 92 120.247070312 119 c 0,8,9
 144 240 144 240 209.825195312 385.009765625 c 1,10,-1
 320.032226562 352.3203125 l 1,11,12
 104 -359 104 -359 679.438476562 -355.000976562 c 0,13,14
 947 -353 947 -353 1045.31738281 -184.000976562 c 0,15,16
 1088 -111 1088 -111 1084.98046875 -26.083984375 c 0,17,18
 1033 1381 1033 1381 1018.23632812 1445.83886719 c 1,19,-1
 1138 1509 l 2,20,21
 1194.71235303 1538.84860686 1194.71235303 1538.84860686 1195.85058594 1484.59667969 c 2,22,-1
 1219.19238281 372.049804688 l 2,23,24
 1223.00501124 190.76171875 1223.00501124 190.76171875 1430.6015625 190.76171875 c 2,25,-1
 1461.78125 190.76171875 l 1,26,-1
 1461.78125 0.109375 l 1,27,-1
 1443.36328125 0.109375 l 2,28,29
 1284 0 1284 0 1225.76660156 88.3427734375 c 1,0,1
EndSplineSet
EndChar

StartChar: uniFEDF
Encoding: 65247 65247 231
Width: 556
VWidth: 3705
GlyphClass: 2
Flags: W
AnchorPoint: "Anchor-10" 258.796 1636.56 basechar 0
AnchorPoint: "Anchor-7" 183.305 -251.229 basechar 0
LayerCount: 2
Fore
SplineSet
243.954101562 280.3828125 m 4,0,1
 285 357 285 357 263.478515625 672.23046875 c 0,2,3
 233 1140 233 1140 202.827148438 1453.14941406 c 1,4,-1
 310.034179688 1504.72851562 l 2,5,6
 379.57700042 1537.79884715 379.57700042 1537.79884715 381.842773438 1464.09179688 c 2,7,-1
 410.239257812 540.3359375 l 2,8,9
 418 292 418 292 360.708007812 175.354492188 c 0,10,11
 275 0 275 0 10.892578125 0 c 2,12,-1
 -12.203125 0 l 1,13,-1
 -12.203125 179.999023438 l 5,14,-1
 16.552734375 179.999023438 l 6,15,16
 192 180 192 180 243.954101562 280.3828125 c 4,0,1
EndSplineSet
EndChar

StartChar: uniFEE0
Encoding: 65248 65248 232
Width: 677
VWidth: 3705
GlyphClass: 2
Flags: W
AnchorPoint: "Anchor-10" 318.267 1601.21 basechar 0
AnchorPoint: "Anchor-7" 284.362 -247.795 basechar 0
LayerCount: 2
Fore
SplineSet
354.0078125 151.907226562 m 5,0,1
 237 0 237 0 67.2060546875 0 c 6,2,-1
 -12.466796875 0 l 5,3,-1
 -12.466796875 179.999023438 l 5,4,-1
 29.7373046875 179.999023438 l 6,5,6
 207.442371329 180.000007991 207.442371329 180.000007991 262.603515625 278.853515625 c 4,7,8
 309 362 309 362 296.334960938 662.961914062 c 4,9,10
 273 1195 273 1195 258.544921875 1427.41601562 c 5,11,-1
 366.079101562 1475.35839844 l 6,12,13
 437.186523438 1507.08321807 437.186523438 1507.08321807 437.186523438 1435 c 6,14,-1
 437.186523438 610.708984375 l 6,15,16
 437 301 437 301 492.662109375 240.5859375 c 4,17,18
 548.000891971 179.999023438 548.000891971 179.999023438 652.537109375 179.999023438 c 6,19,-1
 690.873046875 179.999023438 l 5,20,-1
 690.873046875 0 l 5,21,-1
 642.051757812 0 l 6,22,23
 449 0 449 0 354.0078125 151.907226562 c 5,0,1
EndSplineSet
EndChar

StartChar: uniFEE2
Encoding: 65250 65250 234
Width: 1258
VWidth: 3782
GlyphClass: 2
Flags: W
AnchorPoint: "Anchor-10" 578.784 1171.23 basechar 0
AnchorPoint: "Anchor-7" 210.916 -817.977 basechar 0
LayerCount: 2
Fore
SplineSet
1070.47363281 92.041015625 m 1,0,1
 987 -193 987 -193 783.975585938 -193.045898438 c 0,2,3
 498 -193 498 -193 497.227539062 193.666992188 c 0,4,5
 497 280 497 280 499.407226562 309.524414062 c 1,6,7
 321 256 321 256 255.500976562 144.25390625 c 1,8,-1
 270.356445312 -469.451171875 l 6,9,10
 272 -536 272 -536 169.544921875 -638.950195312 c 4,11,12
 127.62550771 -681.379043381 127.62550771 -681.379043381 125.5 -619.165039062 c 6,13,-1
 112.159179688 -228.676757812 l 2,14,15
 110 -165 110 -165 109.885742188 -76.337890625 c 0,16,17
 110 13 110 13 117.723632812 90.7021484375 c 0,18,19
 133 244 133 244 248.178710938 360.98828125 c 0,20,21
 363 478 363 478 525.522460938 493.297851562 c 1,22,23
 547 594 547 594 570.303710938 639.526367188 c 0,24,25
 580.914299198 660.82794897 580.914299198 660.82794897 600.916015625 645.4765625 c 2,26,-1
 1107.52636719 256.651367188 l 2,27,28
 1207.00126732 179.999023438 1207.00126732 179.999023438 1257.79296875 179.999023438 c 2,29,-1
 1271.77441406 179.999023438 l 1,30,-1
 1271.77441406 0 l 1,31,-1
 1247.08691406 0 l 2,32,33
 1167 0 1167 0 1070.47363281 92.041015625 c 1,0,1
635.899414062 394.45703125 m 1,34,35
 629.208984375 310.513671875 629.208984375 310.513671875 632.67578125 163.111328125 c 0,36,37
 639.663085938 -8.662109375 639.663085938 -8.662109375 795.8828125 -9.755859375 c 0,38,39
 810.651367188 -9.7314453125 810.651367188 -9.7314453125 826.423828125 -8.291015625 c 0,40,41
 891.073242188 -2.322265625 891.073242188 -2.322265625 922.763671875 63.1689453125 c 0,42,43
 935.5234375 89.751953125 935.5234375 89.751953125 934.993652344 134.217773438 c 128,-1,44
 934.463867188 178.68359375 934.463867188 178.68359375 870.763671875 235.66015625 c 0,45,46
 793.775390625 310.771484375 793.775390625 310.771484375 635.899414062 394.45703125 c 1,34,35
EndSplineSet
EndChar

StartChar: uniFEE3
Encoding: 65251 65251 235
Width: 1023
VWidth: 3749
GlyphClass: 2
Flags: W
AnchorPoint: "Anchor-10" 543.686 1168.83 basechar 0
AnchorPoint: "Anchor-7" 529.424 -288.974 basechar 0
LayerCount: 2
Fore
SplineSet
305.989257812 169.768554688 m 1,0,1
 177 0 177 0 2.4541015625 0 c 2,2,-1
 -13.146484375 0 l 1,3,-1
 -13.146484375 179.999023438 l 1,4,-1
 11.01953125 179.999023438 l 2,5,6
 107.504159965 179.999023438 107.504159965 179.999023438 204 307 c 0,7,8
 359 511 359 511 426 578.279015912 c 0,9,10
 498.813287345 657.069513412 498.813287345 657.069513412 577.987304688 671.635742188 c 0,11,12
 718 696 718 696 800.948242188 588.036132812 c 0,13,14
 908 449 908 449 907.227539062 287.890625 c 0,15,16
 907 132 907 132 808.014648438 39.3388671875 c 0,17,18
 749 -17 749 -17 689.65625 -17.083984375 c 0,19,20
 545 -17 545 -17 305.989257812 169.768554688 c 1,0,1
416.130859375 320.145507812 m 1,21,22
 658 109 658 109 744.59375 202.744140625 c 0,23,24
 772 232 772 232 770.407226562 277.498046875 c 0,25,26
 767 409 767 409 672.348632812 474.12890625 c 4,27,28
 570 545 570 545 416.130859375 320.145507812 c 1,21,22
EndSplineSet
EndChar

StartChar: uniFEE4
Encoding: 65252 65252 236
Width: 1135
VWidth: 3749
GlyphClass: 2
Flags: W
AnchorPoint: "Anchor-10" 561.076 1150.23 basechar 0
AnchorPoint: "Anchor-7" 493.449 -300.66 basechar 0
LayerCount: 2
Fore
SplineSet
416.134765625 284.944335938 m 1,0,1
 583 140 583 140 668.0859375 139.565429688 c 0,2,3
 756 140 756 140 769.723632812 210.352539062 c 0,4,5
 789 303 789 303 725.3828125 383.169921875 c 0,6,7
 664 459 664 459 610.704101562 458.977539062 c 0,8,9
 536 459 536 459 416.134765625 284.944335938 c 1,0,1
872.565429688 100.67578125 m 1,10,11
 783 -52 783 -52 681.868164062 -51.6962890625 c 0,12,13
 542 -51 542 -51 306.024414062 134.534179688 c 1,14,15
 210 0 210 0 2.4541015625 0 c 2,16,-1
 -13.146484375 0 l 1,17,-1
 -13.146484375 179.999023438 l 1,18,-1
 31.01953125 179.999023438 l 2,19,20
 130.999208193 179.999023438 130.999208193 179.999023438 221 291 c 0,21,22
 375 479 375 479 441 548.827082645 c 0,23,24
 506 617 506 617 573.104492188 628.4765625 c 0,25,26
 693 650 693 650 772.264648438 569.344726562 c 0,27,28
 868 472 868 472 934.547851562 306.848632812 c 0,29,30
 981.000391575 190.999023438 981.000391575 190.999023438 1122.34765625 190.999023438 c 2,31,-1
 1148.77929688 190.999023438 l 1,32,-1
 1148.77929688 0 l 1,33,-1
 1133.44726562 0 l 2,34,35
 976 0 976 0 872.565429688 100.67578125 c 1,10,11
EndSplineSet
EndChar

StartChar: uniFEEA
Encoding: 65258 65258 242
Width: 1016
VWidth: 3733
GlyphClass: 2
Flags: W
AnchorPoint: "Anchor-10" 531.224 1276.82 basechar 0
AnchorPoint: "Anchor-7" 340.803 -220.268 basechar 0
LayerCount: 2
Fore
SplineSet
234.090820312 393.059570312 m 4,0,1
 266.279296875 325.650390625 266.279296875 325.650390625 512.857421875 330.236328125 c 6,2,-1
 655.029296875 332.8828125 l 5,3,-1
 588.43359375 633.127929688 l 5,4,5
 319.294921875 548.98046875 319.294921875 548.98046875 265.982421875 493.02734375 c 132,-1,6
 212.669921875 437.073242188 212.669921875 437.073242188 234.090820312 393.059570312 c 4,0,1
1010.32128906 0 m 2,7,8
 769 0 769 0 684.489257812 236.897460938 c 1,9,-1
 512.211914062 135.474609375 l 1,10,-1
 511.369140625 135.487304688 l 2,11,12
 416.785096225 137.124917689 416.785096225 137.124917689 314.946289062 155.552734375 c 128,-1,13
 213 174 213 174 178.864257812 187.251953125 c 0,14,15
 109 215 109 215 101.947265625 260.927734375 c 0,16,17
 81 402 81 402 106.29296875 487.627929688 c 4,18,19
 159 668 159 668 555.028320312 803.076171875 c 5,20,-1
 542.123046875 869.541015625 l 5,21,-1
 623.490234375 965.895507812 l 6,22,23
 670.235533334 1021.27905849 670.235533334 1021.27905849 687.108398438 939.86328125 c 6,24,-1
 796.974609375 409.731445312 l 6,25,26
 845 180 845 180 991.045898438 180 c 2,27,-1
 1029.39160156 180 l 1,28,-1
 1029.39160156 0 l 1,29,-1
 1010.32128906 0 l 2,7,8
EndSplineSet
EndChar

StartChar: uniFEEB
Encoding: 65259 65259 243
Width: 1234
VWidth: 3739
GlyphClass: 2
Flags: W
AnchorPoint: "Anchor-10" 526.316 1461.29 basechar 0
AnchorPoint: "Anchor-7" 573.812 -242.204 basechar 0
LayerCount: 2
Fore
SplineSet
644.173828125 288.377929688 m 1,0,1
 819 227 819 227 925.875976562 221.157226562 c 1,2,3
 1021 378 1021 378 974.174804688 472.286132812 c 4,4,5
 941 539 941 539 772.520507812 618.564453125 c 5,6,7
 779 428 779 428 644.173828125 288.377929688 c 1,0,1
502.42578125 142.095703125 m 1,8,9
 289.264871121 0.51171875 289.264871121 0.51171875 47.8837890625 0.51171875 c 2,10,-1
 -12.58984375 0.51171875 l 1,11,-1
 -12.58984375 180 l 1,12,-1
 59.1103515625 180 l 2,13,14
 252 180 252 180 347.5546875 215.177734375 c 1,15,16
 242 254 242 254 183.484149094 330.146342719 c 0,17,18
 127 404 127 404 150.268554688 513.397460938 c 4,19,20
 193 712 193 712 389.01171875 830.481445312 c 5,21,-1
 257.727539062 884.189453125 l 5,22,-1
 320.350585938 1056.64550781 l 5,23,-1
 701.23046875 876.831054688 l 5,24,25
 1184 647 1184 647 1117.86230469 347.336914062 c 0,26,27
 1093 234 1093 234 1032.71420233 153.445181017 c 0,28,29
 971 71 971 71 886.30859375 60.576171875 c 0,30,31
 806 50 806 50 502.42578125 142.095703125 c 1,8,9
505.2734375 336.993164062 m 1,32,33
 609 404 609 404 645.170898438 549.45703125 c 4,34,35
 677 676 677 676 563.578125 711.50390625 c 4,36,37
 427 754 427 754 329.875976562 600.59375 c 4,38,39
 299 552 299 552 290.076171875 523.8125 c 4,40,41
 270 458 270 458 319.830078125 419.421875 c 0,42,43
 391 366 391 366 505.2734375 336.993164062 c 1,32,33
EndSplineSet
EndChar

StartChar: uniFEEC
Encoding: 65260 65260 244
Width: 988
VWidth: 3768
GlyphClass: 2
Flags: W
AnchorPoint: "Anchor-7" 339.865 -725.584 basechar 0
AnchorPoint: "Anchor-10" 463.619 1371.17 basechar 0
LayerCount: 2
Fore
SplineSet
291.271484375 182.501953125 m 1,0,1
 592 192 592 192 622.217773438 348.270507812 c 4,2,3
 626 368 626 368 626.0546875 389.203125 c 4,4,5
 626 499 626 499 473.221679688 672.567382812 c 5,6,7
 333 453 333 453 291.271484375 182.501953125 c 1,0,1
586.017578125 -550.971679688 m 1,8,9
 217 -287 217 -287 171.772460938 0.109375 c 1,10,-1
 -12.2470703125 -0.001953125 l 1,11,-1
 -12.2470703125 180.685546875 l 1,12,-1
 164.1796875 180.375 l 1,13,14
 196 532 196 532 413.331054688 823.994140625 c 4,15,16
 472 903 472 903 530.876953125 858.517578125 c 4,17,18
 759 683 759 683 759.180664062 410.434570312 c 4,19,20
 759 249 759 249 632.439453125 121.495117188 c 0,21,22
 535 23 535 23 302.770507812 -0.92578125 c 1,23,24
 374 -181 374 -181 541.434570312 -308.951171875 c 1,25,26
 600 180 600 180 981.092773438 180 c 2,27,-1
 1001.81835938 180 l 1,28,-1
 1001.81835938 0 l 1,29,-1
 944.28515625 0 l 2,30,31
 696 0 696 0 695.977539062 -257.297851562 c 0,32,33
 696 -354 696 -354 718.635742188 -429.940429688 c 1,34,-1
 586.017578125 -550.971679688 l 1,8,9
EndSplineSet
EndChar

StartChar: uniFEEE
Encoding: 65262 65262 246
Width: 856
VWidth: 3773
GlyphClass: 2
Flags: W
AnchorPoint: "Anchor-10" 339.024 1255.41 basechar 0
AnchorPoint: "Anchor-7" 251.093 -735.899 basechar 0
LayerCount: 2
Fore
SplineSet
577.234375 1.3994140625 m 1,0,-1
 441.193359375 0.609375 l 2,1,2
 246 -1 246 -1 180.512695312 70.6064453125 c 0,3,4
 91 167 91 167 119.487304688 340.6640625 c 0,5,6
 146 505 146 505 229.919921875 601.1796875 c 0,7,8
 341 729 341 729 492.94921875 679.619140625 c 0,9,10
 608 642 608 642 674.97265625 496.303710938 c 0,11,12
 732 371 732 371 735.544921875 179.15234375 c 1,13,-1
 872.5390625 179.96875 l 1,14,-1
 872.5390625 0.30078125 l 1,15,-1
 723.852539062 0 l 17,16,17
 696 -131 696 -131 658.669921875 -206.182617188 c 0,18,19
 577 -368 577 -368 387.126953125 -480.125976562 c 0,20,21
 264 -553 264 -553 187.512695312 -569.489257812 c 0,22,23
 137 -581 137 -581 119.215820312 -560.079101562 c 0,24,25
 81 -511 81 -511 68.50390625 -489.551757812 c 0,26,27
 40 -440 40 -440 75.4892578125 -431.139648438 c 0,28,29
 528 -312 528 -312 577.234375 1.3994140625 c 1,0,-1
580.814453125 180.555664062 m 5,30,31
 554 507 554 507 400.48046875 506.741210938 c 0,32,33
 314 507 314 507 277.943359375 398.198242188 c 0,34,35
 221 227 221 227 322.215820312 190.265625 c 0,36,37
 367 174 367 174 580.814453125 180.555664062 c 5,30,31
EndSplineSet
EndChar

StartChar: uniFEF0
Encoding: 65264 65264 248
Width: 1496
VWidth: 3745
GlyphClass: 2
Flags: W
AnchorPoint: "Anchor-10" 689.539 784.408 basechar 0
AnchorPoint: "Anchor-7" 479.513 -810.205 basechar 0
LayerCount: 2
Fore
SplineSet
325.611328125 329.465820312 m 1,0,1
 217 14 217 14 287.249023438 -151.213867188 c 4,2,3
 372 -351 372 -351 692.390625 -351.501953125 c 4,4,5
 1023 -352 1023 -352 1160.73242188 -215.44140625 c 28,6,7
 1244 -133 1244 -133 1142.39355469 -61.5849609375 c 0,8,9
 1072 -12 1072 -12 980.193359375 -2.484375 c 0,10,11
 887 7 887 7 875.948989677 12.6723350793 c 0,12,13
 865 18 865 18 868.204101562 44.79296875 c 0,14,15
 886.026992305 180.205078125 886.026992305 180.205078125 957.348632812 180.205078125 c 2,16,-1
 1508.05078125 180.205078125 l 1,17,-1
 1508.05078125 0.69921875 l 1,18,-1
 1285.70703125 0.9951171875 l 1,19,20
 1379 -67 1379 -67 1337.06738281 -190.3359375 c 4,21,22
 1309 -274 1309 -274 1250 -335.475585938 c 4,23,24
 1062 -532 1062 -532 692.004882812 -532.48046875 c 4,25,26
 368 -533 368 -533 225.939453125 -385.124023438 c 4,27,28
 73 -225 73 -225 116.545898438 53.9453125 c 0,29,30
 143 223 143 223 215.34375 359.845703125 c 1,31,-1
 325.611328125 329.465820312 l 1,0,1
EndSplineSet
EndChar

StartChar: uniFEFB
Encoding: 65275 65275 259
Width: 1217
VWidth: 3705
GlyphClass: 3
Flags: W
AnchorPoint: "Anchor-9" 951.165 1645.52 baselig 0
AnchorPoint: "Anchor-6" 920.383 -179.223 baselig 0
AnchorPoint: "Anchor-6" 283.478 -263.959 baselig 1
AnchorPoint: "Anchor-9" 163.317 1606.48 baselig 1
LayerCount: 2
Fore
SplineSet
227.23828125 -23.8408203125 m 1,0,1
 191 53 191 53 182.485351562 120.66015625 c 4,2,3
 181 132 181 132 186.702148438 132.490234375 c 4,4,5
 488 152 488 152 625.094726562 198.84765625 c 5,6,-1
 90.3798828125 1268.79101562 l 1,7,-1
 232.311523438 1372.67382812 l 1,8,-1
 744.359375 254.645507812 l 5,9,10
 900 339 900 339 917.798828125 489.8671875 c 0,11,12
 944 705 944 705 865.234375 1454.09863281 c 1,13,-1
 979.059570312 1509.37988281 l 2,14,15
 1044.82069214 1540.91401731 1044.82069214 1540.91401731 1046.89550781 1463.08007812 c 2,16,-1
 1068.72851562 644.043945312 l 2,17,18
 1077 320 1077 320 898.654785156 149.124023438 c 0,19,20
 720.011499121 -21.9889855964 720.011499121 -21.9889855964 229.836914062 -23.8310546875 c 2,21,-1
 227.23828125 -23.8408203125 l 1,0,1
EndSplineSet
LCarets2: 1 0
Ligature2: "'rlig' Required Ligatures in Arabic lookup 16 subtable" uniFEDF uniFE8E
EndChar

StartChar: uniFEFC
Encoding: 65276 65276 260
Width: 1321
VWidth: 3705
GlyphClass: 3
Flags: W
AnchorPoint: "Anchor-9" 985.282 1669.62 baselig 0
AnchorPoint: "Anchor-6" 951.695 -210.265 baselig 0
AnchorPoint: "Anchor-6" 278.932 -246.661 baselig 1
AnchorPoint: "Anchor-9" 167.839 1617.33 baselig 1
LayerCount: 2
Fore
SplineSet
1296.6796875 0 m 2,0,1
 1032 0 1032 0 971.197265625 265.041992188 c 1,2,3
 782 -25 782 -25 227.275390625 -25.8388671875 c 1,4,5
 193 49 193 49 183.658203125 107.208984375 c 0,6,7
 180 130 180 130 186.59375 130.485351562 c 0,8,9
 487 149 487 149 622.092773438 196.850585938 c 1,10,-1
 90.3798828125 1266.79101562 l 1,11,-1
 232.311523438 1370.67382812 l 1,12,-1
 741.35546875 252.651367188 l 1,13,14
 904 347 904 347 917.793945312 519.810546875 c 0,15,16
 936 751 936 751 865.23046875 1452.09472656 c 1,17,-1
 987.059570312 1514.18261719 l 2,18,19
 1044.67413728 1543.83230408 1044.67413728 1543.83230408 1047.2109375 1454.08496094 c 2,20,-1
 1072.99316406 541.95703125 l 2,21,22
 1083.0135908 180.509765625 1083.0135908 180.509765625 1297.01171875 180.509765625 c 2,23,-1
 1334.66210938 180.509765625 l 1,24,-1
 1334.66210938 0 l 1,25,-1
 1296.6796875 0 l 2,0,1
EndSplineSet
LCarets2: 1 0
Ligature2: "'rlig' Required Ligatures in Arabic lookup 16 subtable" uniFEE0 uniFE8E
EndChar

StartChar: arabic_dot
Encoding: 65536 -1 261
Width: 233
VWidth: 3243
GlyphClass: 2
Flags: W
LayerCount: 2
Fore
SplineSet
128.224922417 262.752535769 m 2,0,-1
 251.634773213 139.343659963 l 2,1,2
 260.495457557 129.930276127 260.495457557 129.930276127 249.018858176 117.783586824 c 2,3,-1
 130.684738366 -0.551511981399 l 2,4,5
 122.922494719 -7.93008750755 122.922494719 -7.93008750755 116.186211465 -7.84944578072 c 128,-1,6
 109.44992821 -7.76880405388 109.44992821 -7.76880405388 101.857950593 -0.177205656644 c 2,7,-1
 -14.3186485966 115.99939352 l 2,8,9
 -27.5535571732 129.97904538 -27.5535571732 129.97904538 -13.7353475372 144.327071589 c 2,10,-1
 104.917660803 262.980079931 l 2,11,12
 116.866515843 274.112269495 116.866515843 274.112269495 128.224922417 262.752535769 c 2,0,-1
EndSplineSet
EndChar

StartChar: arabic_2dots
Encoding: 65537 -1 262
Width: 612
VWidth: 3243
GlyphClass: 2
Flags: W
LayerCount: 2
Fore
SplineSet
469.197265625 1.3671875 m 2,0,1
 455.959960938 -12.1826171875 455.959960938 -12.1826171875 442.42578125 1.3515625 c 2,2,-1
 331.111328125 112.66796875 l 2,3,4
 317.782226562 126.221679688 317.782226562 126.221679688 331.614257812 140.053710938 c 2,5,-1
 444.680664062 253.120117188 l 2,6,7
 456 264 456 264 466.862304688 253.186523438 c 2,8,-1
 585.596679688 134.451171875 l 2,9,10
 588.8515625 131.440429688 588.8515625 131.440429688 589.734375 128.763671875 c 128,-1,11
 590.6171875 126.0859375 590.6171875 126.0859375 588.989257812 122.696289062 c 128,-1,12
 587.361328125 119.306640625 587.361328125 119.306640625 582.696289062 114.8671875 c 2,13,-1
 469.197265625 1.3671875 l 2,0,1
165.53515625 253.181640625 m 6,14,-1
 283.888671875 134.828125 l 6,15,16
 288 130 288 130 288.0234375 125.767578125 c 132,-1,17
 288.002480371 121.504548709 288.002480371 121.504548709 281.313476562 114.815429688 c 6,18,-1
 167.919921875 1.419921875 l 6,19,20
 154.227664605 -11.7805130488 154.227664605 -11.7805130488 141.177734375 1.26953125 c 6,21,-1
 29.455078125 112.993164062 l 6,22,23
 16.116752009 125.887137465 16.116752009 125.887137465 30.283203125 140.053710938 c 6,24,-1
 143.349609375 253.12109375 l 6,25,26
 147 256 147 256 149.4140625 257.849609375 c 4,27,28
 152 259 152 259 154.470703125 259.313476562 c 4,29,30
 159 259 159 259 165.53515625 253.181640625 c 6,14,-1
EndSplineSet
EndChar

StartChar: arabic_3dots
Encoding: 65538 -1 263
Width: 590
VWidth: 3243
GlyphClass: 2
Flags: W
LayerCount: 2
Fore
SplineSet
300.868164062 444.268554688 m 2,0,-1
 415.448242188 329.688476562 l 2,1,2
 415.587890625 329.556640625 415.587890625 329.556640625 416.981445312 328.297851562 c 128,-1,3
 418.375976562 327.0390625 418.375976562 327.0390625 412.788085938 321.451171875 c 2,4,-1
 303.4921875 212.153320312 l 2,5,6
 295.642578125 204.3046875 295.642578125 204.3046875 287.793945312 212.153320312 c 2,7,-1
 180.5390625 319.41015625 l 2,8,9
 173.03125 326.881835938 173.03125 326.881835938 181.061523438 334.912109375 c 2,10,-1
 290.357421875 444.208984375 l 2,11,12
 295.64453125 449.495117188 295.64453125 449.495117188 300.868164062 444.268554688 c 2,0,-1
446.813476562 217.922851562 m 2,13,-1
 561.327148438 103.409179688 l 2,14,15
 564.385924665 100.652146091 564.385924665 100.652146091 558.786132812 95.0517578125 c 2,16,-1
 448.759765625 -14.986328125 l 2,17,18
 441.778536933 -22.2297815294 441.778536933 -22.2297815294 433.793945312 -14.2451171875 c 2,19,-1
 326.5703125 92.9794921875 l 2,20,21
 319.26655782 100.71759038 319.26655782 100.71759038 327.061523438 108.512695312 c 2,22,-1
 436.342773438 217.795898438 l 2,23,24
 442 223 442 223 446.813476562 217.922851562 c 2,13,-1
268.041015625 104.727539062 m 4,25,26
 272.378695072 100.643443737 272.378695072 100.643443737 266.788085938 95.052734375 c 6,27,-1
 157.844726562 -13.892578125 l 6,28,29
 149.779053671 -22.2283451293 149.779053671 -22.2283451293 141.795898438 -14.2451171875 c 6,30,-1
 34.572265625 92.9794921875 l 6,31,32
 27.2675755388 100.716585259 27.2675755388 100.716585259 35.0634765625 108.512695312 c 6,33,-1
 144.328125 217.780273438 l 5,34,-1
 149.857421875 221.654296875 l 5,35,36
 150.799031898 221.939194266 150.799031898 221.939194266 154.787109375 217.952148438 c 6,37,-1
 268.041015625 104.727539062 l 4,25,26
EndSplineSet
EndChar

StartChar: arabic_3dots_a
Encoding: 65539 -1 264
Width: 636
VWidth: 3243
GlyphClass: 2
Flags: W
LayerCount: 2
Fore
SplineSet
324.3359375 -204.376953125 m 6,0,1
 322.139648438 -206.573242188 322.139648438 -206.573242188 320.517578125 -207.481445312 c 4,2,3
 319.703125 -207.9375 319.703125 -207.9375 319.116210938 -207.936523438 c 132,-1,4
 318.525390625 -207.935546875 318.525390625 -207.935546875 317.69140625 -207.465820312 c 6,5,-1
 313.82421875 -204.317382812 l 5,6,-1
 204.52734375 -95.021484375 l 6,7,8
 196.500976562 -86.994140625 196.500976562 -86.994140625 204.026367188 -79.4970703125 c 6,9,-1
 311.65625 28.1328125 l 6,10,11
 316.8984375 32.8330078125 316.8984375 32.8330078125 319.262695312 32.7900390625 c 6,12,-1
 320.458007812 32.517578125 l 6,13,14
 321.459960938 32.154296875 321.459960938 32.154296875 323.076171875 31.044921875 c 6,15,-1
 326.958984375 27.7373046875 l 5,16,-1
 436.254882812 -81.5595703125 l 6,17,18
 441.704101562 -87.0087890625 441.704101562 -87.0087890625 438.788085938 -89.9248046875 c 6,19,-1
 324.3359375 -204.376953125 l 6,0,1
470.276367188 22.0341796875 m 2,20,21
 468.330072852 20.0890795303 468.330072852 20.0890795303 465.912109375 19.4365234375 c 0,22,23
 464 19 464 19 463.046875 19.5009765625 c 0,24,25
 461.820889696 20.0853781394 461.820889696 20.0853781394 459.82421875 22.08203125 c 2,26,-1
 350.497070312 131.408203125 l 2,27,28
 346 136 346 136 345.525390625 139.318359375 c 0,29,30
 345.020652984 141.894585329 345.020652984 141.894585329 350.026367188 146.900390625 c 2,31,-1
 457.354492188 254.23046875 l 2,32,33
 462.038610569 259.039641374 462.038610569 259.039641374 463.41796875 259.028320312 c 2,34,-1
 466.392578125 259.00390625 l 2,35,36
 467 259 467 259 469.241210938 257.356445312 c 128,-1,37
 471.396947268 255.693859103 471.396947268 255.693859103 472.956054688 254.134765625 c 2,38,-1
 582.16796875 144.923828125 l 1,39,-1
 586.461914062 138.543945312 l 1,40,-1
 586.403320312 138.348632812 l 1,41,-1
 584.873046875 136.560546875 l 1,42,-1
 470.276367188 22.0341796875 l 2,20,21
165.094726562 253.96875 m 2,43,44
 172.454008228 261.328098631 172.454008228 261.328098631 175.888671875 257.931640625 c 2,45,-1
 290.194335938 144.897460938 l 2,46,47
 295.659902623 139.345474863 295.659902623 139.345474863 292.68359375 136.369140625 c 2,48,-1
 178.094726562 21.779296875 l 2,49,50
 175 19 175 19 173.01171875 18.5693359375 c 0,51,52
 170.883267556 19.0249898095 170.883267556 19.0249898095 167.826171875 22.08203125 c 2,53,-1
 57.7451171875 132.161132812 l 2,54,55
 50.5665217916 139.439503097 50.5665217916 139.439503097 57.7724609375 146.645507812 c 2,56,-1
 165.094726562 253.96875 l 2,43,44
EndSplineSet
EndChar

StartChar: uni066E.fina
Encoding: 65540 -1 265
Width: 1992
VWidth: 3745
GlyphClass: 2
Flags: W
AnchorPoint: "Anchor-10" 1049.91 1792.78 basechar 0
AnchorPoint: "Anchor-7" 980.749 -375.569 basechar 0
LayerCount: 2
Fore
SplineSet
1979.09960938 0 m 2,0,1
 1693 0 1693 0 1638.88574219 225.639648438 c 1,2,3
 1470 2 1470 2 835.678710938 2 c 0,4,5
 477 2 477 2 305.037109375 98.587890625 c 0,6,7
 103 211 103 211 104.250976562 457.86328125 c 0,8,9
 105 607 105 607 184.85546875 766.762695312 c 1,10,-1
 286.431640625 732.233398438 l 1,11,12
 217 479 217 479 294.80859375 362.3515625 c 0,13,14
 409 193 409 193 754.010742188 184.106445312 c 4,15,16
 845 182 845 182 917.204101562 182 c 4,17,18
 989 182 989 182 1068.63964844 187.5703125 c 4,19,20
 1148 193 1148 193 1214.94433594 204.255859375 c 4,21,22
 1562.90764291 261.984677506 1562.90764291 261.984677506 1616.43261719 501.4453125 c 2,23,-1
 1633.41796875 577.434570312 l 1,24,-1
 1749.76757812 571.424804688 l 1,25,-1
 1748.31738281 535.846679688 l 2,26,27
 1733.9999606 180.999023438 1733.9999606 180.999023438 1971.35351562 180.999023438 c 6,28,-1
 2004.73828125 180.999023438 l 5,29,-1
 2004.73828125 0 l 1,30,-1
 1979.09960938 0 l 2,0,1
EndSplineSet
EndChar

StartChar: uni06A1.fina
Encoding: 65543 -1 268
Width: 2003
VWidth: 3740
GlyphClass: 2
Flags: W
AnchorPoint: "Anchor-10" 756.262 1972.83 basechar 0
AnchorPoint: "Anchor-7" 943.447 -460.558 basechar 0
LayerCount: 2
Fore
SplineSet
1499.5859375 138.1484375 m 1,0,1
 1253 2 1253 2 870.616699219 2 c 0,2,3
 488 2 488 2 307.034179688 100.58984375 c 0,4,5
 105 212 105 212 104.250976562 457.857421875 c 0,6,7
 104 605 104 605 184.854492188 766.762695312 c 1,8,-1
 286.426757812 732.235351562 l 1,9,10
 217 475 217 475 294.809570312 362.350585938 c 0,11,12
 423 178 423 178 898.76171875 177.979492188 c 4,13,14
 1075 178 1075 178 1328.13378906 224.9765625 c 5,15,16
 1277 264 1277 264 1227 353 c 0,17,18
 1136 516 1136 516 1261.98242188 710.364257812 c 0,19,20
 1359 859 1359 859 1501.3125 859.458007812 c 0,21,22
 1644 859 1644 859 1748.18457031 706.915039062 c 0,23,24
 1814 610 1814 610 1814.10546875 511.21484375 c 0,25,26
 1814.00872307 466.987734658 1814.00872307 466.987734658 1798.27734375 413.373046875 c 0,27,28
 1766 304 1766 304 1651.99316406 216.904296875 c 5,29,30
 1793.00383525 180.999023438 1793.00383525 180.999023438 1994.953125 180.999023438 c 6,31,-1
 2015.49316406 180.999023438 l 5,32,-1
 2015.49316406 0 l 1,33,-1
 1979.36328125 0 l 2,34,35
 1695 0 1695 0 1499.5859375 138.1484375 c 1,0,1
1611.09472656 598.458984375 m 0,36,37
 1525.74429882 697.456480963 1525.74429882 697.456480963 1439.515625 645.7734375 c 0,38,39
 1381 611 1381 611 1347.94238281 534.133789062 c 0,40,41
 1318 465 1318 465 1357.47558594 406.915039062 c 0,42,43
 1380 374 1380 374 1424.87792969 335.173339844 c 0,44,45
 1470 296 1470 296 1509.84375 295.99609375 c 4,46,47
 1543 296 1543 296 1592.98730469 343.24609375 c 4,48,49
 1665 412 1665 412 1665.24414062 467.104492188 c 0,50,51
 1665 535 1665 535 1611.09472656 598.458984375 c 0,36,37
EndSplineSet
EndChar

StartChar: uni06A1.init
Encoding: 65544 -1 269
Width: 871
VWidth: 3773
GlyphClass: 2
Flags: W
AnchorPoint: "Anchor-10" 487.044 2032.37 basechar 0
AnchorPoint: "Anchor-7" 434.877 -373.909 basechar 0
LayerCount: 2
Fore
SplineSet
437.944335938 863.416015625 m 4,0,1
 322 863 322 863 288.091796875 724.078125 c 4,2,3
 261 612 261 612 355.328125 586.37890625 c 4,4,5
 425 568 425 568 521.294921875 582.661132812 c 4,6,7
 582 592 582 592 615.462890625 607.76953125 c 5,8,9
 606 736 606 736 558.12109375 798.87890625 c 4,10,11
 510 863 510 863 437.944335938 863.416015625 c 4,0,1
189.006835938 179.999023438 m 2,12,13
 619.439259926 179.999023438 619.439259926 179.999023438 616.27734375 407.305664062 c 6,14,-1
 616.189453125 413.624023438 l 5,15,16
 407 369 407 369 278.365234375 422.502929688 c 4,17,18
 150 476 150 476 150.327148438 627.041015625 c 4,19,20
 151 730 151 730 185.200195312 821 c 4,21,22
 273 1052 273 1052 445.864257812 1051.99316406 c 4,23,24
 552 1052 552 1052 621.16015625 965.801757812 c 4,25,26
 756 798 756 798 761.543945312 463.743164062 c 4,27,28
 762 434 762 434 760.421875 402.600585938 c 4,29,30
 745 0 745 0 213.461914062 0 c 2,31,-1
 -12.39453125 0 l 1,32,-1
 -12.39453125 179.999023438 l 1,33,-1
 189.006835938 179.999023438 l 2,12,13
EndSplineSet
EndChar

StartChar: uni06A1.medi
Encoding: 65545 -1 270
Width: 1067
VWidth: 3740
GlyphClass: 2
Flags: W
AnchorPoint: "Anchor-10" 485.076 1478.72 basechar 0
AnchorPoint: "Anchor-7" 458.729 -209.104 basechar 0
LayerCount: 2
Fore
SplineSet
559.779296875 138.205078125 m 1,0,1
 389 0 389 0 27.548828125 0 c 2,2,-1
 -12.1591796875 0 l 1,3,-1
 -12.1591796875 179.999023438 l 5,4,-1
 27.501953125 179.999023438 l 6,5,6
 225 180 225 180 389.62890625 222.83984375 c 5,7,8
 249 331 249 331 249.399414062 490.524414062 c 0,9,10
 250 598 250 598 318.584960938 701.963867188 c 0,11,12
 423 857 423 857 563.71875 857.45703125 c 0,13,14
 705 857 705 857 809.516601562 704.924804688 c 0,15,16
 876 608 876 608 875.4453125 509.231445312 c 0,17,18
 876 338 876 338 713.403320312 214.955078125 c 5,19,20
 866.004263192 179.999023438 866.004263192 179.999023438 1037.96679688 179.999023438 c 6,21,-1
 1079.83984375 179.999023438 l 5,22,-1
 1079.83984375 0 l 1,23,-1
 1043.70996094 0 l 2,24,25
 745 0 745 0 559.779296875 138.205078125 c 1,0,1
696.270507812 565.368164062 m 0,26,27
 603 704 603 704 501.0390625 643.981445312 c 0,28,29
 473 628 473 628 446.35546875 592.986816406 c 0,30,31
 342.953411153 460.224128708 342.953411153 460.224128708 452.946289062 357.408203125 c 4,32,33
 521 294 521 294 565.841796875 293.865234375 c 4,34,35
 611 294 611 294 654.255859375 341.219726562 c 4,36,37
 727.566129733 421.719724113 727.566129733 421.719724113 726.977539062 481.171875 c 0,38,39
 727 520 727 520 696.270507812 565.368164062 c 0,26,27
EndSplineSet
EndChar

StartChar: uni066F.fina
Encoding: 65546 -1 271
Width: 1443
VWidth: 3773
GlyphClass: 2
Flags: W
AnchorPoint: "Anchor-10" 470.114 754.358 basechar 0
AnchorPoint: "Anchor-7" 391.375 -884 basechar 0
LayerCount: 2
Fore
SplineSet
1153.03613281 191.525390625 m 1,0,1
 1124 508 1124 508 972.702148438 507.709960938 c 0,2,3
 887 508 887 508 851.9296875 403.458007812 c 0,4,5
 794.659553596 228.962700172 794.659553596 228.962700172 893.412109375 200.928710938 c 0,6,7
 946 186 946 186 1153.03613281 191.525390625 c 1,0,1
320.057617188 351.401367188 m 1,8,9
 263 164 263 164 262.880859375 12.18359375 c 0,10,11
 263 -350 263 -350 687.813476562 -350.276367188 c 0,12,13
 1011 -350 1011 -350 1123.14648438 -160.129882812 c 0,14,15
 1155 -106 1155 -106 1160.04101562 1.642578125 c 1,16,-1
 1013.45898438 1.5771484375 l 2,17,18
 814 1 814 1 739.5390625 86.171875 c 0,19,20
 685 148 685 148 684.73046875 258.40625 c 0,21,22
 685 399 685 399 752.155273438 527.954101562 c 4,23,24
 804 627 804 627 887.122070312 670.265625 c 4,25,26
 933 694 933 694 983.872070312 693.577148438 c 4,27,28
 1152 694 1152 694 1238.0625 501.108398438 c 4,29,30
 1295 373 1295 373 1297.77148438 190.116210938 c 1,31,-1
 1456.30078125 190.498046875 l 1,32,-1
 1456.30078125 0.0341796875 l 1,33,-1
 1297.35351562 0.0341796875 l 1,34,35
 1256 -541 1256 -541 679.641601562 -539.853515625 c 0,36,37
 373 -539 373 -539 231.831054688 -384.475585938 c 0,38,39
 109 -250 109 -250 109.001953125 -50.263671875 c 0,40,41
 109 160 109 160 209.791992188 383.940429688 c 1,42,-1
 320.057617188 351.401367188 l 1,8,9
EndSplineSet
EndChar

StartChar: arabic_gaf_bar
Encoding: 65550 -1 274
Width: 788
VWidth: 3131
GlyphClass: 2
Flags: W
LayerCount: 2
Fore
SplineSet
772.499369516 2071 m 6,0,-1
 755.013671875 1969.16601562 l 1,1,-1
 40.84375 1725.89257812 l 1,2,-1
 72.1240234375 1853.734375 l 1,3,-1
 756 2090.34126938 l 2,4,5
 777.072265625 2097.63183594 777.072265625 2097.63183594 772.499369516 2071 c 6,0,-1
EndSplineSet
EndChar

StartChar: guillemotleft
Encoding: 171 171 284
Width: 1316
VWidth: 3378
Flags: W
LayerCount: 2
Fore
SplineSet
488.756835938 2.0810546875 m 1,0,1
 154.206054688 463.54296875 154.206054688 463.54296875 154.20703125 615.755859375 c 128,-1,2
 154.20703125 767.969726562 154.20703125 767.969726562 488.721679688 1229.74511719 c 1,3,-1
 676.290039062 1229.74511719 l 1,4,-1
 647.606445312 1188.38964844 l 2,5,6
 363.396484375 778.708007812 363.396484375 778.708007812 363.396484375 615.1171875 c 128,-1,7
 363.396484375 451.521484375 363.396484375 451.521484375 647.548828125 43.4794921875 c 2,8,-1
 676.37890625 2.0810546875 l 1,9,-1
 488.756835938 2.0810546875 l 1,0,1
969.298828125 2.080078125 m 5,10,11
 636 463 636 463 635.784179688 615.505859375 c 4,12,13
 636 767 636 767 969.262695312 1229.74511719 c 5,14,-1
 1156.828125 1229.74511719 l 5,15,-1
 1128.14160156 1188.390625 l 6,16,17
 844 779 844 779 843.872070312 615.326171875 c 4,18,19
 844.000380272 451.514511961 844.000380272 451.514511961 1127.65136719 44.109375 c 6,20,-1
 1156.91308594 2.0810546875 l 5,21,-1
 969.298828125 2.080078125 l 5,10,11
EndSplineSet
EndChar

StartChar: guillemotright
Encoding: 187 187 285
Width: 1321
VWidth: 3378
Flags: W
LayerCount: 2
Fore
SplineSet
827.313476562 1229.74511719 m 5,0,1
 1161.83007812 767.966796875 1161.83007812 767.966796875 1161.83007812 615.754882812 c 132,-1,2
 1161.83105469 463.54296875 1161.83105469 463.54296875 827.280273438 2.0810546875 c 5,3,-1
 639.657226562 2.0810546875 l 5,4,-1
 668.487304688 43.4794921875 l 6,5,6
 952.640625 451.521484375 952.640625 451.521484375 952.640625 615.1171875 c 132,-1,7
 952.640625 778.711914062 952.640625 778.711914062 668.430664062 1188.38964844 c 6,8,-1
 639.747070312 1229.74511719 l 5,9,-1
 827.313476562 1229.74511719 l 5,0,1
346.7734375 1229.74511719 m 5,10,11
 680.249023438 767.451171875 680.249023438 767.451171875 680.249023438 615.323242188 c 132,-1,12
 680.249023438 463.194335938 680.249023438 463.194335938 346.739257812 2.0810546875 c 5,13,-1
 159.123046875 2.0810546875 l 5,14,-1
 187.947265625 43.4794921875 l 6,15,16
 472.1640625 451.690429688 472.1640625 451.690429688 472.1640625 615.200195312 c 132,-1,17
 472.1640625 778.711914062 472.1640625 778.711914062 187.893554688 1188.38964844 c 6,18,-1
 159.208984375 1229.74511719 l 5,19,-1
 346.7734375 1229.74511719 l 5,10,11
EndSplineSet
EndChar

StartChar: exclam
Encoding: 33 33 294
Width: 916
VWidth: -1
Flags: W
LayerCount: 2
Fore
SplineSet
327 158.837890625 m 132,-1,1
 327 215.537109375 327 215.537109375 367.5 256.037109375 c 132,-1,2
 408 296.537109375 408 296.537109375 464.700195312 296.537109375 c 132,-1,3
 521.400390625 296.537109375 521.400390625 296.537109375 562.912109375 257.049804688 c 4,4,5
 602.400390625 215.537109375 602.400390625 215.537109375 602.400390625 158.837890625 c 132,-1,6
 602.400390625 102.137695312 602.400390625 102.137695312 561.900390625 61.6376953125 c 132,-1,7
 521.400390625 21.1376953125 521.400390625 21.1376953125 464.700195312 21.1376953125 c 132,-1,8
 408 21.1376953125 408 21.1376953125 367.5 61.6376953125 c 132,-1,0
 327 102.137695312 327 102.137695312 327 158.837890625 c 132,-1,1
472.76776874 1554.90722656 m 1,9,-1
 485.110774845 1554.54790022 l 2,10,11
 580.301498081 1551.99190438 580.301498081 1551.99190438 571.993164062 1408.71875 c 2,12,-1
 523.886763621 579.147415769 l 2,13,14
 523 556 523 556 468.177734375 555.6640625 c 0,15,16
 405.695424636 556.001645578 405.695424636 556.001645578 404.043359924 580.154569798 c 2,17,-1
 347.389648438 1408.42285156 l 2,18,19
 347 1420 347 1420 346.446289062 1431.57421875 c 0,20,21
 345.001087108 1554.90722656 345.001087108 1554.90722656 444.345703125 1554.90722656 c 2,22,-1
 472.76776874 1554.90722656 l 1,9,-1
EndSplineSet
EndChar

StartChar: period
Encoding: 46 46 295
Width: 903
VWidth: 3384
Flags: W
LayerCount: 2
Fore
SplineSet
315 158.837890625 m 132,-1,1
 315 215.537109375 315 215.537109375 355.5 256.037109375 c 132,-1,2
 396 296.537109375 396 296.537109375 452.700195312 296.537109375 c 132,-1,3
 509.400390625 296.537109375 509.400390625 296.537109375 550.912109375 257.049804688 c 4,4,5
 590.400390625 215.537109375 590.400390625 215.537109375 590.400390625 158.837890625 c 132,-1,6
 590.400390625 102.137695312 590.400390625 102.137695312 549.900390625 61.6376953125 c 132,-1,7
 509.400390625 21.1376953125 509.400390625 21.1376953125 452.700195312 21.1376953125 c 132,-1,8
 396 21.1376953125 396 21.1376953125 355.5 61.6376953125 c 132,-1,0
 315 102.137695312 315 102.137695312 315 158.837890625 c 132,-1,1
EndSplineSet
EndChar

StartChar: colon
Encoding: 58 58 296
Width: 963
VWidth: 3384
Flags: W
LayerCount: 2
Fore
SplineSet
375 878.837890625 m 132,-1,1
 375 935.537109375 375 935.537109375 415.5 976.037109375 c 132,-1,2
 456 1016.53710938 456 1016.53710938 512.700195312 1016.53710938 c 132,-1,3
 569.400390625 1016.53710938 569.400390625 1016.53710938 610.912109375 977.049804688 c 4,4,5
 650.400390625 935.537109375 650.400390625 935.537109375 650.400390625 878.837890625 c 132,-1,6
 650.400390625 822.137695312 650.400390625 822.137695312 609.900390625 781.637695312 c 132,-1,7
 569.400390625 741.137695312 569.400390625 741.137695312 512.700195312 741.137695312 c 132,-1,8
 456 741.137695312 456 741.137695312 415.5 781.637695312 c 132,-1,0
 375 822.137695312 375 822.137695312 375 878.837890625 c 132,-1,1
375 158.837890625 m 132,-1,10
 375 215.537109375 375 215.537109375 415.5 256.037109375 c 132,-1,11
 456 296.537109375 456 296.537109375 512.700195312 296.537109375 c 132,-1,12
 569.400390625 296.537109375 569.400390625 296.537109375 610.912109375 257.049804688 c 4,13,14
 650.400390625 215.537109375 650.400390625 215.537109375 650.400390625 158.837890625 c 132,-1,15
 650.400390625 102.137695312 650.400390625 102.137695312 609.900390625 61.6376953125 c 132,-1,16
 569.400390625 21.1376953125 569.400390625 21.1376953125 512.700195312 21.1376953125 c 132,-1,17
 456 21.1376953125 456 21.1376953125 415.5 61.6376953125 c 132,-1,9
 375 102.137695312 375 102.137695312 375 158.837890625 c 132,-1,10
EndSplineSet
EndChar

StartChar: uniFDFC
Encoding: 65020 65020 297
Width: 2787
VWidth: 3744
Flags: W
LayerCount: 2
Fore
SplineSet
2570.38964844 701.942382812 m 0,0,1
 2578 693 2578 693 2596.14111328 661.919433594 c 0,2,3
 2614 631 2614 631 2632.97558594 580.271484375 c 0,4,5
 2708 380 2708 380 2647.11914062 179.143554688 c 0,6,7
 2619 87 2619 87 2561.48730469 1.3232421875 c 0,8,9
 2446 -170 2446 -170 2118.02539062 -300.819335938 c 0,10,11
 2107.09579211 -305.166428465 2107.09579211 -305.166428465 2097.50976562 -292.598632812 c 0,12,13
 2067 -252 2067 -252 2030.29101563 -162.067871094 c 0,14,15
 2025 -149 2025 -149 2043.6328125 -143.447265625 c 0,16,17
 2450 -31 2450 -31 2516.63867188 243.708984375 c 0,18,19
 2536 323 2536 323 2404.51855469 573.911132812 c 1,20,21
 2503 701 2503 701 2509.29322582 706.789401776 c 0,22,23
 2516 713 2516 713 2522.51025391 716.530761719 c 128,-1,24
 2529 720 2529 720 2537.51855469 720.385742188 c 0,25,26
 2546 720 2546 720 2554.25195312 715.727539062 c 0,27,28
 2562 711 2562 711 2570.38964844 701.942382812 c 0,0,1
1714.25390625 265.1171875 m 5,29,-1
 1863.70214844 115.669921875 l 5,30,-1
 1714.25390625 -33.7802734375 l 5,31,-1
 1564.80566406 115.669921875 l 5,32,-1
 1714.25390625 265.1171875 l 5,29,-1
2031.78125 265.1171875 m 5,33,-1
 2181.22949219 115.669921875 l 5,34,-1
 2031.78125 -33.78125 l 5,35,-1
 1882.33398438 115.669921875 l 5,36,-1
 2031.78125 265.1171875 l 5,33,-1
1207.85644531 384.076171875 m 0,37,38
 1204 -72 1204 -72 867.795898438 -173.844726562 c 0,39,40
 794 -196 794 -196 705.8515625 -195.990234375 c 0,41,42
 457 -196 457 -196 340.712890625 -69.517578125 c 0,43,44
 192 92 192 92 227.379882812 380.303710938 c 0,45,46
 245 523 245 523 325.491210938 699.673828125 c 1,47,-1
 425.701171875 666.984375 l 1,48,49
 300 258 300 258 430.624023438 97.5830078125 c 0,50,51
 519 -11 519 -11 708.700195312 -9.4033203125 c 0,52,53
 933 -7 933 -7 1020.3203125 135.333984375 c 0,54,55
 1053 189 1053 189 1051.3828125 288.577148438 c 0,56,57
 1033 1165 1033 1165 1003.11914062 1348.56152344 c 1,58,-1
 1124.96484375 1431.19628906 l 2,59,60
 1181.97177946 1469.98080023 1181.97177946 1469.98080023 1184.16113281 1384.07226562 c 2,61,-1
 1197.91796875 844.264648438 l 2,62,63
 1208 449 1208 449 1207.85644531 384.076171875 c 0,37,38
1452.32714844 844.349609375 m 1,64,65
 1467 1220 1467 1220 1435.03417969 1362.28417969 c 1,66,-1
 1566.69140625 1448.44726562 l 2,67,68
 1612 1478 1612 1478 1621.20996094 1386.14355469 c 0,69,70
 1626 1342 1626 1342 1618.93554688 1148.33886719 c 0,71,72
 1612 941 1612 941 1614.74121094 859.815429688 c 0,73,74
 1620 684 1620 684 1651.91894531 637.948242188 c 0,75,76
 1682.78212552 591.329101562 1682.78212552 591.329101562 1825.62304688 591.329101562 c 2,77,-1
 1935.12402344 591.329101562 l 2,78,79
 2038 591 2038 591 2093.1796875 657.83203125 c 0,80,81
 2130 702 2130 702 2099.31180773 781.127067279 c 0,82,83
 2070 855 2070 855 2044.22070312 920.741210938 c 1,84,-1
 2130.90527344 1020.99804688 l 1,85,86
 2169 1074 2169 1074 2202.06738281 1002.79003906 c 0,87,88
 2305 789 2305 789 2240.99121094 606.72265625 c 0,89,90
 2173.11466435 411.330078125 2173.11466435 411.330078125 1918.01660156 411.330078125 c 2,91,-1
 1825.21191406 411.330078125 l 2,92,93
 1598 411 1598 411 1526.05859375 500.563476562 c 0,94,95
 1453 590 1453 590 1452.32714844 844.349609375 c 1,64,65
EndSplineSet
EndChar

StartChar: uniFD3E
Encoding: 64830 64830 299
Width: 1480
VWidth: 3
Flags: W
LayerCount: 2
Fore
SplineSet
579.641601562 651.709960938 m 0,0,1
 577.51171875 726.267578125 577.51171875 726.267578125 632.8984375 781.65234375 c 128,-1,2
 688.283203125 837.0390625 688.283203125 837.0390625 764.971679688 837.0390625 c 128,-1,3
 841.659179688 837.0390625 841.659179688 837.0390625 897.044921875 781.65234375 c 128,-1,4
 952.430664062 726.267578125 952.430664062 726.267578125 950.299804688 651.709960938 c 0,5,6
 952.430664062 577.153320312 952.430664062 577.153320312 897.044921875 521.766601562 c 128,-1,7
 841.659179688 466.380859375 841.659179688 466.380859375 764.971679688 466.380859375 c 128,-1,8
 688.283203125 466.380859375 688.283203125 466.380859375 632.8984375 521.766601562 c 128,-1,9
 577.51171875 577.153320312 577.51171875 577.153320312 579.641601562 651.709960938 c 0,0,1
688.919921875 651.66015625 m 0,10,11
 688 619 688 619 712.459960938 594.223632812 c 0,12,13
 737 570 737 570 770.837890625 569.7421875 c 0,14,15
 805 570 805 570 829.216796875 594.223632812 c 0,16,17
 851.759765625 616.760742188 851.759765625 616.760742188 852.756835938 651.66015625 c 0,18,19
 854 685 854 685 829.216796875 709.096679688 c 0,20,21
 805 734 805 734 770.837890625 733.578125 c 0,22,23
 737 734 737 734 712.459960938 709.096679688 c 0,24,25
 690 687 690 687 688.919921875 651.66015625 c 0,10,11
1245.04882812 239.635742188 m 2,26,27
 1244.11520941 182.643554687 1244.11520941 182.643554687 1188.04882812 182.643554688 c 2,28,-1
 964.252929688 182.643554688 l 1,29,-1
 960.485351562 178.874023438 l 1,30,31
 1040.96972656 -253.350585938 1040.96972656 -253.350585938 1252.41796875 -422.350585938 c 0,32,33
 1307.24622779 -466.021419627 1307.24622779 -466.021419627 1200.98632812 -521.557617188 c 1,34,35
 728.480414222 -381.350497722 728.480414222 -381.350497722 604.09375 145.0234375 c 1,36,-1
 567.142578125 182.643554688 l 1,37,-1
 343.361328125 182.643554688 l 2,38,39
 309.65982652 182.007825384 309.65982652 182.007825384 292.188476562 215.84765625 c 0,40,41
 286.352539062 227.155030117 286.352539062 227.155030117 286.352539062 239.643554688 c 2,42,-1
 286.352539062 463.44140625 l 1,43,-1
 128.112304688 621.678710938 l 2,44,45
 117.499023438 631.805664062 117.499023438 631.805664062 111.51171875 655.760742188 c 128,-1,46
 105.524414062 679.715820312 105.524414062 679.715820312 128.104492188 702.297851562 c 2,47,-1
 286.352539062 860.544921875 l 1,48,-1
 286.352539062 1084.33105469 l 2,49,50
 285.754882812 1111.88867188 285.754882812 1111.88867188 300.592285156 1122.35644531 c 0,51,52
 327.502812161 1141.34179688 327.502812161 1141.34179688 343.3515625 1141.34179688 c 2,53,-1
 567.1484375 1141.34179688 l 1,54,-1
 592.115234375 1166.31054688 l 1,55,56
 709.580015042 1753.43908259 709.580015042 1753.43908259 1200.59960938 1898.3125 c 0,57,58
 1237.89355469 1909.26367188 1237.89355469 1909.26367188 1254.78710938 1870.16894531 c 0,59,60
 1263.80012728 1848.8227361 1263.80012728 1848.8227361 1255.1796875 1801.59570312 c 1,61,62
 1035.1999438 1600.59460398 1035.1999438 1600.59460398 957.138671875 1148.45703125 c 1,63,-1
 964.25390625 1141.34179688 l 1,64,-1
 1188.22070312 1141.34179688 l 1,65,66
 1245.04882812 1134.79543428 1245.04882812 1134.79543428 1245.04882812 1084.34179688 c 2,67,-1
 1245.04882812 239.635742188 l 2,26,27
711.333984375 187.225585938 m 0,68,69
 779.079101562 -116.46484375 779.079101562 -116.46484375 1009.91894531 -301.510742188 c 1,70,71
 883.00390625 -64.1083984375 883.00390625 -64.1083984375 842.994140625 188.545898438 c 0,72,73
 838.358398438 217.970703125 838.358398438 217.970703125 858.870117188 238.48046875 c 2,74,-1
 900.34375 279.954101562 l 2,75,76
 917.301363854 296.642578125 917.301363854 296.642578125 940.643554688 296.642578125 c 2,77,-1
 1131.04882812 296.642578125 l 1,78,-1
 1131.04882812 1027.34277344 l 1,79,-1
 940.649414062 1027.34277344 l 2,80,81
 917.31640625 1027.05957031 917.31640625 1027.05957031 900.337890625 1044.03710938 c 2,82,-1
 855.83203125 1088.54492188 l 2,83,84
 835.192382812 1108.7734375 835.192382812 1108.7734375 839.84765625 1137.84960938 c 0,85,86
 888.05929509 1439.19289852 888.05929509 1439.19289852 1022.93554688 1687.14257812 c 1,87,88
 771.803710938 1491.68847656 771.803710938 1491.68847656 700.795898438 1127.83691406 c 0,89,90
 697.365906605 1110.33953942 697.365906605 1110.33953942 685.081054688 1098.0546875 c 2,91,-1
 631.0703125 1044.04492188 l 2,92,93
 615.091950052 1027.34277344 615.091950052 1027.34277344 590.7578125 1027.34277344 c 2,94,-1
 400.3515625 1027.34277344 l 1,95,-1
 400.3515625 836.926757812 l 2,96,97
 399.91960523 812.889317479 399.91960523 812.889317479 383.65625 796.630859375 c 2,98,-1
 249.018554688 661.993164062 l 1,99,-1
 383.655273438 527.356445312 l 2,100,101
 400.3515625 510.727539062 400.3515625 510.727539062 400.3515625 487.05078125 c 2,102,-1
 400.3515625 296.642578125 l 1,103,-1
 590.765625 296.642578125 l 2,104,105
 614.750751746 296.258031308 614.750751746 296.258031308 631.0625 279.948242188 c 2,106,-1
 696.038085938 214.974609375 l 2,107,108
 708.114257812 202.9609375 708.114257812 202.9609375 711.333984375 187.225585938 c 0,68,69
EndSplineSet
EndChar

StartChar: uniFD3F
Encoding: 64831 64831 300
Width: 1480
VWidth: 3
Flags: W
LayerCount: 2
Fore
SplineSet
524.641601562 651.709960938 m 4,0,1
 522.51171875 726.267578125 522.51171875 726.267578125 577.8984375 781.65234375 c 132,-1,2
 633.283203125 837.0390625 633.283203125 837.0390625 709.971679688 837.0390625 c 132,-1,3
 786.659179688 837.0390625 786.659179688 837.0390625 842.044921875 781.65234375 c 132,-1,4
 897.430664062 726.267578125 897.430664062 726.267578125 895.299804688 651.709960938 c 4,5,6
 897.430664062 577.153320312 897.430664062 577.153320312 842.044921875 521.766601562 c 132,-1,7
 786.659179688 466.380859375 786.659179688 466.380859375 709.971679688 466.380859375 c 132,-1,8
 633.283203125 466.380859375 633.283203125 466.380859375 577.8984375 521.766601562 c 132,-1,9
 522.51171875 577.153320312 522.51171875 577.153320312 524.641601562 651.709960938 c 4,0,1
633.919921875 651.66015625 m 4,10,11
 633 619 633 619 657.459960938 594.223632812 c 4,12,13
 682 570 682 570 715.837890625 569.7421875 c 4,14,15
 750 570 750 570 774.216796875 594.223632812 c 4,16,17
 796.759880134 616.760498026 796.759880134 616.760498026 797.756835938 651.66015625 c 4,18,19
 799 685 799 685 774.216796875 709.096679688 c 4,20,21
 750 734 750 734 715.837890625 733.578125 c 4,22,23
 682 734 682 734 657.459960938 709.096679688 c 4,24,25
 635 687 635 687 633.919921875 651.66015625 c 4,10,11
279.209960938 -521.559570312 m 1,26,27
 174.24269571 -465.909871694 174.24269571 -465.909871694 227.77734375 -422.35546875 c 0,28,29
 439.63671875 -251.1640625 439.63671875 -251.1640625 519.715820312 178.875 c 1,30,-1
 515.947265625 182.643554688 l 1,31,-1
 292.16015625 182.643554688 l 2,32,33
 255.146638501 182.049197142 255.146638501 182.049197142 239.247070312 219.541015625 c 0,34,35
 235.15234375 229.198463455 235.15234375 229.198463455 235.15234375 239.643554688 c 2,36,-1
 235.15234375 1084.33300781 l 2,37,38
 234.723632812 1108.50390625 234.723632812 1108.50390625 253.361328125 1124.95117188 c 128,-1,39
 271.9375 1141.34179688 271.9375 1141.34179688 292.15234375 1141.34179688 c 2,40,-1
 515.948242188 1141.34179688 l 1,41,-1
 523.0625 1148.45507812 l 1,42,43
 445.1050165 1601.38881866 445.1050165 1601.38881866 225.020507812 1801.59472656 c 1,44,45
 216.668864323 1848.69251936 216.668864323 1848.69251936 229.649373568 1878.97956046 c 128,-1,46
 242.629882812 1909.26660156 242.629882812 1909.26660156 279.610351562 1898.30957031 c 0,47,48
 771.368164062 1749.04882812 771.368164062 1749.04882812 887.970703125 1166.890625 c 1,49,-1
 913.068359375 1141.34179688 l 1,50,-1
 1136.85546875 1141.34179688 l 2,51,52
 1160.97265625 1141.05566406 1160.97265625 1141.05566406 1177.52539062 1122.90234375 c 0,53,54
 1193.84863281 1103.78417969 1193.84863281 1103.78417969 1193.84863281 1084.34179688 c 2,55,-1
 1193.84863281 860.544921875 l 1,56,-1
 1352.09570312 702.299804688 l 2,57,58
 1374.90820312 679.625976562 1374.90820312 679.625976562 1370.45654297 661.9453125 c 0,59,60
 1363.08738834 632.67723209 1363.08738834 632.67723209 1352.09765625 621.6875 c 2,61,-1
 1193.84863281 463.44140625 l 1,62,-1
 1193.84863281 239.63671875 l 2,63,64
 1193.35449219 202.328125 1193.35449219 202.328125 1156.57324219 186.725585938 c 0,65,66
 1146.94529234 182.643554688 1146.94529234 182.643554688 1136.84960938 182.643554688 c 2,67,-1
 913.059570312 182.643554688 l 1,68,-1
 876.106445312 145.0234375 l 1,69,70
 752.179956683 -380.764580492 752.179956683 -380.764580492 279.209960938 -521.559570312 c 1,26,27
470.313476562 -301.490234375 m 1,71,72
 701.428710938 -116.459960938 701.428710938 -116.459960938 768.87109375 187.236328125 c 0,73,74
 772.492687544 203.304210982 772.492687544 203.304210982 784.161132812 214.97265625 c 2,75,-1
 849.14453125 279.954101562 l 2,76,77
 866.102539062 296.642578125 866.102539062 296.642578125 889.443359375 296.642578125 c 2,78,-1
 1079.84960938 296.642578125 l 1,79,-1
 1079.84960938 487.043945312 l 2,80,81
 1079.53106919 510.34456986 1079.53106919 510.34456986 1096.54492188 527.35546875 c 2,82,-1
 1231.18261719 661.993164062 l 1,83,-1
 1096.54882812 796.626953125 l 2,84,85
 1079.84960938 812.924804688 1079.84960938 812.924804688 1079.84960938 836.935546875 c 2,86,-1
 1079.84960938 1027.34277344 l 1,87,-1
 889.44921875 1027.34277344 l 2,88,89
 866.116119232 1027.05966202 866.116119232 1027.05966202 849.138671875 1044.03710938 c 2,90,-1
 795.026367188 1098.14941406 l 1,91,92
 783.131011729 1112.37276229 783.131011729 1112.37276229 779.385742188 1127.94238281 c 0,93,94
 709.102735737 1497.07122473 709.102735737 1497.07122473 457.138671875 1687.37109375 c 1,95,96
 584.532833114 1451.2592705 584.532833114 1451.2592705 640.350585938 1137.86621094 c 0,97,98
 645.388911982 1109.56666285 645.388911982 1109.56666285 624.373046875 1088.54882812 c 2,99,-1
 579.870117188 1044.04492188 l 2,100,101
 563.895507812 1027.34277344 563.895507812 1027.34277344 539.557617188 1027.34277344 c 2,102,-1
 349.15234375 1027.34277344 l 1,103,-1
 349.15234375 296.642578125 l 1,104,-1
 539.565429688 296.642578125 l 2,105,106
 563.548844859 296.261702016 563.548844859 296.261702016 579.862304688 279.948242188 c 2,107,-1
 621.330078125 238.481445312 l 2,108,109
 642.134765625 217.743164062 642.134765625 217.743164062 637.204101562 188.53125 c 0,110,111
 591.569335938 -75.58203125 591.569335938 -75.58203125 470.313476562 -301.490234375 c 1,71,72
EndSplineSet
EndChar

StartChar: NameMe.303
Encoding: 65562 -1 301
Width: 556
VWidth: 3705
Flags: W
AnchorPoint: "Anchor-10" 254.76 1481.69 basechar 0
AnchorPoint: "Anchor-7" 210.877 -259.762 basechar 0
LayerCount: 2
Fore
SplineSet
264.46484375 608.056640625 m 0,0,1
 262 643 262 643 207.9375 1336.08203125 c 2,2,-1
 207.819335938 1337.60742188 l 1,3,-1
 332.252929688 1422.05175781 l 2,4,5
 385.239394578 1458.16315246 385.239394578 1458.16315246 386.865234375 1398.47070312 c 2,6,-1
 410.23828125 540.333007812 l 2,7,8
 414 410 414 410 401.28515625 323.184570312 c 0,9,10
 389 232 389 232 360.708984375 175.356445312 c 0,11,12
 275 0 275 0 10.892578125 0 c 2,13,-1
 -12.203125 0 l 1,14,-1
 -12.203125 179.999023438 l 5,15,-1
 16.552734375 179.999023438 l 6,16,17
 186 180 186 180 240.6796875 272.520507812 c 4,18,19
 283 344 283 344 264.46484375 608.056640625 c 0,0,1
EndSplineSet
EndChar

StartChar: NameMe.304
Encoding: 65563 -1 302
Width: 635
VWidth: 3705
Flags: W
LayerCount: 2
Fore
SplineSet
316.796875 132.439453125 m 1,0,1
 227 0 227 0 46.501953125 0 c 2,2,-1
 -12.50390625 0 l 1,3,-1
 -12.50390625 179.999023438 l 5,4,-1
 19.7001953125 179.999023438 l 6,5,6
 158 180 158 180 210.296875 249.8671875 c 4,7,8
 262.98638206 321.337980018 262.98638206 321.337980018 257.025390625 477.5234375 c 0,9,10
 247.997400663 714.068105889 247.997400663 714.068105889 219.874023438 1110.28417969 c 2,11,-1
 219.763671875 1111.83886719 l 1,12,-1
 361 1206.42147193 l 2,13,14
 397.9765625 1230.98443083 397.9765625 1230.98443083 397.9765625 1183 c 2,15,-1
 397.9765625 483.450195312 l 2,16,17
 398 262 398 262 492.798828125 209.259765625 c 4,18,19
 546.001775622 179.999023438 546.001775622 179.999023438 632.500976562 179.999023438 c 6,20,-1
 648.435546875 179.999023438 l 5,21,-1
 648.435546875 0 l 1,22,-1
 596.202148438 0 l 2,23,24
 407 0 407 0 316.796875 132.439453125 c 1,0,1
EndSplineSet
EndChar

StartChar: NameMe.306
Encoding: 65566 -1 304
Width: 579
VWidth: 3705
Flags: W
LayerCount: 2
Fore
SplineSet
184.518554688 794.955078125 m 0,0,1
 186 1142 186 1142 167.987304688 1311.0390625 c 1,2,-1
 270.95703125 1386.05957031 l 2,3,4
 331 1430 331 1430 335.790039062 1337.14550781 c 0,5,6
 346 1125 346 1125 338.5 890 c 0,7,8
 331 673 331 673 332.779296875 472.400390625 c 0,9,10
 334 304 334 304 378.942382812 242.354492188 c 4,11,12
 424.84222177 180.213605958 424.84222177 180.213605958 565.885742188 179.999023438 c 6,13,-1
 592.203125 179.958984375 l 5,14,-1
 592.203125 0 l 1,15,-1
 540.934570312 0 l 2,16,17
 383 0 383 0 285.3671875 100.893554688 c 0,18,19
 191 199 191 199 186.650390625 564.513671875 c 0,20,21
 184 774 184 774 184.518554688 794.955078125 c 0,0,1
EndSplineSet
EndChar
